<svg width="48" height="45" viewBox="0 0 48 45" fill="none" xmlns="http://www.w3.org/2000/svg">
<path d="M1.26313 44L4.10313 37.06H4.78313L7.61313 44H6.59313L4.26313 38.13H4.61313L2.26313 44H1.26313ZM2.61313 42.43V41.61H6.26313V42.43H2.61313ZM11.936 44V41.23C11.936 40.87 11.8227 40.5733 11.596 40.34C11.3693 40.1067 11.076 39.99 10.716 39.99C10.476 39.99 10.2627 40.0433 10.076 40.15C9.88935 40.2567 9.74268 40.4033 9.63602 40.59C9.52935 40.7767 9.47602 40.99 9.47602 41.23L9.10602 41.02C9.10602 40.66 9.18602 40.34 9.34602 40.06C9.50602 39.78 9.72935 39.56 10.016 39.4C10.3027 39.2333 10.626 39.15 10.986 39.15C11.346 39.15 11.6627 39.24 11.936 39.42C12.216 39.6 12.436 39.8367 12.596 40.13C12.756 40.4167 12.836 40.7233 12.836 41.05V44H11.936ZM8.57602 44V39.25H9.47602V44H8.57602ZM14.0645 44V39.25H14.9645V44H14.0645ZM14.5145 38.3C14.3479 38.3 14.2112 38.2467 14.1045 38.14C13.9979 38.0267 13.9445 37.8867 13.9445 37.72C13.9445 37.56 13.9979 37.4267 14.1045 37.32C14.2112 37.2067 14.3479 37.15 14.5145 37.15C14.6812 37.15 14.8179 37.2067 14.9245 37.32C15.0312 37.4267 15.0845 37.56 15.0845 37.72C15.0845 37.8867 15.0312 38.0267 14.9245 38.14C14.8179 38.2467 14.6812 38.3 14.5145 38.3ZM16.2909 44V39.25H17.1909V44H16.2909ZM19.5009 44V41.13C19.5009 40.7767 19.3909 40.5 19.1709 40.3C18.9575 40.0933 18.6875 39.99 18.3609 39.99C18.1409 39.99 17.9442 40.0367 17.7709 40.13C17.5975 40.2233 17.4575 40.3533 17.3509 40.52C17.2442 40.6867 17.1909 40.8867 17.1909 41.12L16.8209 40.94C16.8209 40.58 16.8975 40.2667 17.0509 40C17.2109 39.7333 17.4275 39.5267 17.7009 39.38C17.9742 39.2267 18.2809 39.15 18.6209 39.15C18.9542 39.15 19.2542 39.2233 19.5209 39.37C19.7942 39.5167 20.0075 39.7233 20.1609 39.99C20.3209 40.2567 20.4009 40.5733 20.4009 40.94V44H19.5009ZM22.7109 44V41.13C22.7109 40.7767 22.6009 40.5 22.3809 40.3C22.1675 40.0933 21.9009 39.99 21.5809 39.99C21.3609 39.99 21.1609 40.0367 20.9809 40.13C20.8075 40.2233 20.6675 40.3533 20.5609 40.52C20.4542 40.6867 20.4009 40.8867 20.4009 41.12L19.8909 40.94C19.9109 40.5733 20.0075 40.26 20.1809 40C20.3609 39.7333 20.5909 39.5267 20.8709 39.38C21.1509 39.2267 21.4575 39.15 21.7909 39.15C22.1375 39.15 22.4475 39.2233 22.7209 39.37C22.9942 39.5167 23.2109 39.7233 23.3709 39.99C23.5375 40.2567 23.6209 40.5767 23.6209 40.95V44H22.7109ZM26.8655 44.1C26.4322 44.1 26.0389 43.9933 25.6855 43.78C25.3322 43.56 25.0522 43.2633 24.8455 42.89C24.6455 42.5167 24.5455 42.0967 24.5455 41.63C24.5455 41.1633 24.6455 40.7433 24.8455 40.37C25.0522 39.9967 25.3289 39.7 25.6755 39.48C26.0289 39.26 26.4255 39.15 26.8655 39.15C27.2255 39.15 27.5455 39.2267 27.8255 39.38C28.1122 39.5267 28.3422 39.7333 28.5155 40C28.6889 40.26 28.7855 40.5633 28.8055 40.91V42.34C28.7855 42.68 28.6889 42.9833 28.5155 43.25C28.3489 43.5167 28.1222 43.7267 27.8355 43.88C27.5555 44.0267 27.2322 44.1 26.8655 44.1ZM27.0155 43.25C27.4622 43.25 27.8222 43.1 28.0955 42.8C28.3689 42.4933 28.5055 42.1033 28.5055 41.63C28.5055 41.3033 28.4422 41.02 28.3155 40.78C28.1955 40.5333 28.0222 40.3433 27.7955 40.21C27.5689 40.07 27.3055 40 27.0055 40C26.7055 40 26.4389 40.07 26.2055 40.21C25.9789 40.35 25.7989 40.5433 25.6655 40.79C25.5389 41.03 25.4755 41.3067 25.4755 41.62C25.4755 41.94 25.5389 42.2233 25.6655 42.47C25.7989 42.71 25.9822 42.9 26.2155 43.04C26.4489 43.18 26.7155 43.25 27.0155 43.25ZM28.4455 44V42.72L28.6155 41.56L28.4455 40.41V39.25H29.3555V44H28.4455ZM31.3763 44V37.26H32.2763V44H31.3763ZM30.2063 40.07V39.25H33.4463V40.07H30.2063ZM34.338 44V39.25H35.238V44H34.338ZM34.788 38.3C34.6213 38.3 34.4846 38.2467 34.378 38.14C34.2713 38.0267 34.218 37.8867 34.218 37.72C34.218 37.56 34.2713 37.4267 34.378 37.32C34.4846 37.2067 34.6213 37.15 34.788 37.15C34.9546 37.15 35.0913 37.2067 35.198 37.32C35.3046 37.4267 35.358 37.56 35.358 37.72C35.358 37.8867 35.3046 38.0267 35.198 38.14C35.0913 38.2467 34.9546 38.3 34.788 38.3ZM38.7343 44.1C38.2676 44.1 37.8476 43.99 37.4743 43.77C37.101 43.55 36.8043 43.2533 36.5843 42.88C36.3643 42.5 36.2543 42.0767 36.2543 41.61C36.2543 41.15 36.3643 40.7367 36.5843 40.37C36.8043 39.9967 37.101 39.7 37.4743 39.48C37.8476 39.26 38.2676 39.15 38.7343 39.15C39.1943 39.15 39.611 39.26 39.9843 39.48C40.3643 39.6933 40.6643 39.9867 40.8843 40.36C41.1043 40.7333 41.2143 41.15 41.2143 41.61C41.2143 42.0767 41.1043 42.5 40.8843 42.88C40.6643 43.2533 40.3643 43.55 39.9843 43.77C39.611 43.99 39.1943 44.1 38.7343 44.1ZM38.7343 43.23C39.0343 43.23 39.301 43.16 39.5343 43.02C39.7676 42.88 39.951 42.69 40.0843 42.45C40.2176 42.2033 40.2843 41.9233 40.2843 41.61C40.2843 41.3033 40.2143 41.03 40.0743 40.79C39.941 40.55 39.7576 40.3633 39.5243 40.23C39.2976 40.09 39.0343 40.02 38.7343 40.02C38.4343 40.02 38.1676 40.09 37.9343 40.23C37.701 40.3633 37.5176 40.55 37.3843 40.79C37.251 41.03 37.1843 41.3033 37.1843 41.61C37.1843 41.9233 37.251 42.2033 37.3843 42.45C37.5176 42.69 37.701 42.88 37.9343 43.02C38.1676 43.16 38.4343 43.23 38.7343 43.23ZM45.5884 44V41.23C45.5884 40.87 45.475 40.5733 45.2484 40.34C45.0217 40.1067 44.7284 39.99 44.3684 39.99C44.1284 39.99 43.915 40.0433 43.7284 40.15C43.5417 40.2567 43.395 40.4033 43.2884 40.59C43.1817 40.7767 43.1284 40.99 43.1284 41.23L42.7584 41.02C42.7584 40.66 42.8384 40.34 42.9984 40.06C43.1584 39.78 43.3817 39.56 43.6684 39.4C43.955 39.2333 44.2784 39.15 44.6384 39.15C44.9984 39.15 45.315 39.24 45.5884 39.42C45.8684 39.6 46.0884 39.8367 46.2484 40.13C46.4084 40.4167 46.4884 40.7233 46.4884 41.05V44H45.5884ZM42.2284 44V39.25H43.1284V44H42.2284Z" fill="black"/>
<circle cx="24" cy="16" r="15" stroke="black" stroke-width="2"/>
<path d="M29.2046 15.7145C29.4129 15.8532 29.4129 16.1467 29.2046 16.2854L21.1458 21.6507C20.9031 21.8123 20.5696 21.6471 20.5696 21.3652V10.6346C20.5696 10.3528 20.9031 10.1876 21.1458 10.3492L29.2046 15.7145Z" fill="black"/>
</svg>
