<svg width="36" height="21" viewBox="0 0 36 21" fill="none" xmlns="http://www.w3.org/2000/svg">
<path d="M5.70023 1.75C5.70023 0.783501 6.34494 0 7.14023 0H8.82023C9.61552 0 10.2602 0.783502 10.2602 1.75V19.25C10.2602 20.2165 9.61552 21 8.82023 21H7.14024C6.34495 21 5.70023 20.2165 5.70023 19.25V1.75Z" fill="black"/>
<path d="M3.42012 5.29728C3.42012 4.33078 4.06483 3.54728 4.86012 3.54728H6.54012C7.33541 3.54728 7.98012 4.33078 7.98012 5.29728V14.9223C7.98012 15.8888 7.33541 16.6723 6.54012 16.6723H4.86012C4.06483 16.6723 3.42012 15.8888 3.42012 14.9223V5.29728Z" fill="black"/>
<path d="M28.0201 5.53084C28.0201 4.56434 28.6648 3.78084 29.4601 3.78084H31.1401C31.9354 3.78084 32.5801 4.56434 32.5801 5.53084V15.1558C32.5801 16.1223 31.9354 16.9058 31.1401 16.9058H29.4601C28.6648 16.9058 28.0201 16.1223 28.0201 15.1558V5.53084Z" fill="black"/>
<path d="M0 10.0511C0 9.08461 0.64471 8.30111 1.44 8.30111H34.56C35.3553 8.30111 36 9.08461 36 10.0511V10.6344C36 11.6009 35.3553 12.3844 34.56 12.3844H1.44C0.644711 12.3844 0 11.6009 0 10.6344V10.0511Z" fill="black"/>
<path d="M25.74 1.75C25.74 0.783501 26.3847 0 27.18 0H28.86C29.6553 0 30.3 0.783502 30.3 1.75V19.25C30.3 20.2165 29.6553 21 28.86 21H27.18C26.3847 21 25.74 20.2165 25.74 19.25V1.75Z" fill="black"/>
</svg>