<svg width="37" height="14" viewBox="0 0 37 14" fill="none" xmlns="http://www.w3.org/2000/svg">
<path d="M3.02143 1.75C3.02143 0.783502 3.68404 0 4.50143 0H5.98143C6.79881 0 7.46143 0.783502 7.46143 1.75V12.25C7.46143 13.2165 6.79881 14 5.98143 14H4.50143C3.68404 14 3.02143 13.2165 3.02143 12.25V1.75Z" fill="black"/>
<path d="M0 6.70845C0 5.74195 0.662619 4.95845 1.48 4.95845H35.52C36.3374 4.95845 37 5.74195 37 6.70845V7.29178C37 8.25828 36.3374 9.04178 35.52 9.04178H1.48C0.662619 9.04178 0 8.25828 0 7.29178V6.70845Z" fill="black"/>
<path d="M29.5386 1.75C29.5386 0.783502 30.2012 0 31.0186 0H32.4986C33.316 0 33.9786 0.783502 33.9786 1.75V12.25C33.9786 13.2165 33.316 14 32.4986 14H31.0186C30.2012 14 29.5386 13.2165 29.5386 12.25V1.75Z" fill="black"/>
</svg>