<svg width="43" height="55" viewBox="0 0 43 55" fill="none" xmlns="http://www.w3.org/2000/svg">
<path d="M21.4134 0.750977C26.1161 0.750984 29.5099 3.18956 31.598 6.60547C33.2168 9.25367 34.0404 12.4808 34.0404 15.5635C34.0404 22.9842 35.9793 26.7095 37.9183 29.7539C39.8242 32.7464 41.5609 34.8767 41.5609 39.3262C41.5608 42.1535 40.3482 44.4873 39.0999 46.1387C38.4779 46.9615 37.8555 47.6042 37.39 48.0391C37.1576 48.2561 36.9654 48.4206 36.8333 48.5293C36.7674 48.5836 36.7161 48.6236 36.683 48.6494C36.6664 48.6623 36.6543 48.6721 36.6468 48.6777C36.6432 48.6805 36.6403 48.6826 36.639 48.6836L36.6195 48.6973L36.6019 48.7129L36.5999 48.7148C36.5977 48.7167 36.5936 48.7201 36.5882 48.7246C36.5772 48.7337 36.5592 48.7484 36.5355 48.7676C36.488 48.806 36.4151 48.8632 36.3187 48.9375C36.1255 49.0865 35.8367 49.3026 35.4613 49.5625C34.71 50.0825 33.6147 50.7784 32.2474 51.4746C29.5066 52.8701 25.7073 54.249 21.4134 54.249C17.1196 54.249 13.3208 52.8701 10.5804 51.4746C9.2131 50.7783 8.11769 50.0825 7.36655 49.5625C6.9912 49.3026 6.70224 49.0865 6.50912 48.9375C6.4131 48.8634 6.34073 48.8059 6.2933 48.7676C6.26957 48.7484 6.25162 48.7337 6.24057 48.7246C6.23506 48.7201 6.23115 48.7168 6.22885 48.7148C6.22784 48.714 6.22728 48.7132 6.2269 48.7129L6.21323 48.7012L6.19858 48.6904L6.1976 48.6895C6.19616 48.6883 6.19329 48.6863 6.18979 48.6836C6.18225 48.6777 6.17 48.6684 6.15366 48.6553C6.1202 48.6285 6.06855 48.5863 6.00229 48.5303C5.8698 48.4183 5.67734 48.2493 5.44467 48.0273C4.97798 47.5822 4.35391 46.9273 3.7308 46.0957C2.47864 44.4244 1.26716 42.0898 1.26694 39.3262C1.26672 34.8746 3.00589 32.696 4.91049 29.6816C6.84654 26.6175 8.7864 22.8928 8.78647 15.5635C8.78647 12.4808 9.61002 9.25367 11.2289 6.60547C13.317 3.18955 16.7107 0.750977 21.4134 0.750977Z" fill="currentColor" stroke="black" stroke-width="1.5"/>
</svg>
