<svg width="250" height="123" viewBox="0 0 250 123" fill="none" xmlns="http://www.w3.org/2000/svg">
<path d="M36.4188 27.5177C39.6893 27.5178 42.6634 28.7839 44.8729 30.8507C45.1102 31.0207 45.3366 31.213 45.5497 31.4259L71.3075 57.1642C73.414 59.2692 73.4083 62.6757 71.2948 64.7736C69.1811 66.8716 65.7598 66.8659 63.6532 64.7609L48.7694 49.8888V72.255L60.2547 115.344C61.0203 118.216 59.303 121.162 56.4188 121.925C53.5345 122.688 50.5761 120.977 49.8104 118.105L38.3231 75.0109H34.5126L23.0253 118.105C22.2596 120.977 19.3002 122.688 16.4159 121.925C13.5317 121.162 11.8144 118.216 12.5799 115.344L24.0682 72.2492V49.9347L9.23033 64.7609C7.12371 66.8659 3.70242 66.8716 1.58873 64.7736C-0.52461 62.6757 -0.530291 59.2691 1.57603 57.1642L27.3338 31.4259C27.4784 31.2815 27.6299 31.1463 27.786 31.0216C30.0126 28.8541 33.0592 27.5177 36.4188 27.5177ZM246.081 77.4357C248.245 77.4357 250 79.1905 250 81.3547V83.7052C250 85.8694 248.245 87.6242 246.081 87.6242H241.379V118.189C241.379 120.353 239.625 122.107 237.461 122.107C235.297 122.107 233.542 120.353 233.542 118.189V87.6242H197.492V118.189C197.492 120.353 195.737 122.107 193.573 122.107H192.79C190.626 122.107 188.871 120.353 188.871 118.189V87.6242H183.386C181.221 87.6242 179.467 85.8694 179.467 83.7052V81.3547C179.467 79.1905 181.221 77.4357 183.386 77.4357H246.081ZM202.79 55.1984C203.043 54.3706 203.92 53.9043 204.748 54.1574L205.605 54.4201C206.433 54.6734 206.898 55.5494 206.645 56.3771L200.787 75.5382C200.534 76.366 199.658 76.8324 198.83 76.5793L197.973 76.3166C197.145 76.0633 196.679 75.1872 196.932 74.3595L202.79 55.1984ZM212.383 66.464C213.248 66.4642 213.95 67.166 213.95 68.0314V74.3009C213.95 75.1665 213.248 75.8681 212.383 75.8683H205.329C204.463 75.8683 203.762 75.1666 203.762 74.3009V68.0314C203.762 67.1659 204.463 66.4641 205.329 66.464H212.383ZM95.8573 52.2463C96.4694 51.6343 97.462 51.6342 98.0741 52.2463C98.6859 52.8583 98.686 53.851 98.0741 54.4631L90.7147 61.8214C91.3753 62.0057 91.8601 62.6099 91.8602 63.3293C91.8602 64.0487 91.3753 64.6528 90.7147 64.8371L98.0741 72.1955C98.6861 72.8076 98.6862 73.8012 98.0741 74.4132C97.4621 75.0251 96.4694 75.0249 95.8573 74.4132L85.8827 64.4377C85.2706 63.8256 85.2706 62.833 85.8827 62.2209L95.8573 52.2463ZM168.384 52.2463C168.996 51.6342 169.988 51.6342 170.6 52.2463L180.575 62.2209C181.187 62.833 181.187 63.8256 180.575 64.4377L170.6 74.4132C169.988 75.025 168.996 75.025 168.384 74.4132C167.772 73.8012 167.772 72.8076 168.384 72.1955L175.742 64.8371C175.082 64.6526 174.598 64.0484 174.598 63.3293C174.598 62.6102 175.082 62.0059 175.742 61.8214L168.384 54.4631C167.772 53.851 167.772 52.8583 168.384 52.2463ZM103.504 61.7619C104.369 61.7619 105.071 62.4637 105.071 63.3293C105.071 64.1949 104.369 64.8966 103.504 64.8966H96.8983C96.0328 64.8965 95.3309 64.1948 95.3309 63.3293C95.331 62.4638 96.0329 61.7621 96.8983 61.7619H103.504ZM116.875 61.7707C117.665 61.8509 118.282 62.5178 118.282 63.3293C118.282 64.1409 117.665 64.8086 116.875 64.8888L116.715 64.8966H110.109C109.244 64.8965 108.542 64.1948 108.542 63.3293C108.542 62.4638 109.244 61.7621 110.109 61.7619H116.715L116.875 61.7707ZM130.086 61.7707C130.876 61.851 131.494 62.5178 131.494 63.3293C131.494 64.1408 130.876 64.8085 130.086 64.8888L129.927 64.8966H123.321C122.456 64.8966 121.754 64.1949 121.754 63.3293C121.754 62.4637 122.456 61.7619 123.321 61.7619H129.927L130.086 61.7707ZM143.298 61.7707C144.088 61.8512 144.704 62.518 144.704 63.3293C144.704 64.1406 144.088 64.8083 143.298 64.8888L143.137 64.8966H136.531C135.666 64.8965 134.964 64.1948 134.964 63.3293C134.964 62.4638 135.666 61.7621 136.531 61.7619H143.137L143.298 61.7707ZM156.508 61.7707C157.298 61.8508 157.915 62.5177 157.915 63.3293C157.915 64.1409 157.298 64.8087 156.508 64.8888L156.348 64.8966H149.742C148.877 64.8965 148.175 64.1948 148.175 63.3293C148.175 62.4638 148.877 61.7621 149.742 61.7619H156.348L156.508 61.7707ZM169.719 61.7707C170.509 61.8509 171.127 62.5178 171.127 63.3293C171.127 64.1408 170.509 64.8086 169.719 64.8888L169.559 64.8966H162.953C162.088 64.8964 161.386 64.1948 161.386 63.3293C161.386 62.4638 162.088 61.7621 162.953 61.7619H169.559L169.719 61.7707ZM136.311 42.4631L132.985 46.2707C133.603 46.3027 134.163 46.4699 134.665 46.7736C135.24 47.1001 135.691 47.5708 136.017 48.1847C136.357 48.7855 136.526 49.4978 136.526 50.3205C136.526 51.2346 136.311 52.0375 135.88 52.7297C135.449 53.4089 134.841 53.9442 134.057 54.3361C133.287 54.7148 132.38 54.9044 131.335 54.9045C130.407 54.9045 129.558 54.7417 128.787 54.4152C128.016 54.0756 127.37 53.5919 126.848 52.965L128.611 51.2209C128.872 51.6126 129.244 51.9262 129.727 52.1613C130.211 52.3963 130.733 52.5147 131.295 52.5148C131.817 52.5148 132.269 52.4233 132.647 52.2404C133.026 52.0445 133.32 51.7763 133.529 51.4367C133.751 51.0841 133.862 50.6789 133.862 50.2218C133.862 49.7387 133.751 49.327 133.529 48.9875C133.32 48.648 133.013 48.3871 132.608 48.2043C132.203 48.0214 131.72 47.9298 131.158 47.9298C130.91 47.9299 130.655 47.9493 130.394 47.9884C130.198 48.008 130.024 48.0386 129.872 48.0802L129.727 48.1261V46.5978L132.614 43.2472H127.612V40.9357H136.311V42.4631ZM113.361 40.7199C114.262 40.7199 115.046 40.8966 115.712 41.2492C116.391 41.6018 116.913 42.0912 117.279 42.7179C117.645 43.3448 117.828 44.0764 117.828 44.9123C117.828 45.4739 117.756 45.9834 117.612 46.4406C117.482 46.8978 117.253 47.3555 116.927 47.8127C116.613 48.2566 116.176 48.7591 115.614 49.3205L112.601 52.3966H118.122V54.7091H108.482V53.1808L113.675 47.7531C114.04 47.3613 114.335 47.0154 114.557 46.715C114.792 46.4016 114.961 46.1074 115.065 45.8332C115.17 45.5458 115.223 45.2582 115.223 44.9709C115.222 44.3964 115.033 43.9458 114.654 43.6193C114.288 43.2928 113.811 43.13 113.223 43.13C112.623 43.1301 112.087 43.2864 111.617 43.5998C111.16 43.9133 110.729 44.4099 110.324 45.089L108.502 43.5412C109.05 42.6138 109.73 41.9147 110.54 41.4445C111.363 40.9613 112.303 40.7199 113.361 40.7199ZM149.39 49.006L154.417 40.9357H156.298V54.7091H153.652V46.4757L150.283 51.8879H148.48L145.13 46.507V54.7091H142.466V40.9357H144.347L149.39 49.006ZM126.278 50.8683H119.499V48.5373H126.278V50.8683ZM206.373 0.578287C208.449 -0.885855 211.314 0.599075 211.314 3.13981V27.1242C211.314 29.665 208.449 31.1499 206.373 29.6857L197.238 23.2443C196.713 22.8739 196.086 22.6735 195.443 22.6711L193.561 22.6632C191.835 22.6565 190.438 21.255 190.438 19.5285V11.1183C190.439 9.5422 191.61 8.21056 193.173 8.00895L195.661 7.68962C196.167 7.62432 196.649 7.43566 197.066 7.14176L206.373 0.578287ZM219.898 6.44157C220.278 5.96607 220.952 5.86335 221.453 6.18571L221.551 6.25602L221.859 6.51383C223.434 7.89409 225.424 10.6208 225.424 15.131C225.424 19.916 223.113 22.8992 221.498 24.0461L221.396 24.1105C220.878 24.4043 220.211 24.264 219.859 23.7677C219.484 23.2384 219.608 22.5048 220.138 22.1291L220.337 21.9767C221.381 21.1203 223.072 18.8835 223.072 15.131C223.072 11.4032 221.457 9.28568 220.308 8.28044L220.085 8.09391L219.995 8.01481C219.569 7.59824 219.519 6.91755 219.898 6.44157ZM37.1493 1.41715C43.3936 1.41715 48.4557 6.45834 48.4559 12.6769C48.4559 18.8956 43.3937 23.9377 37.1493 23.9377C30.905 23.9375 25.8436 18.8955 25.8436 12.6769C25.8438 6.45845 30.9051 1.41733 37.1493 1.41715ZM216.557 9.08024C216.918 8.59067 217.588 8.46232 218.1 8.76579L218.2 8.83219L218.436 9.01481C219.642 9.99284 221.172 11.9329 221.172 15.132C221.172 18.5205 219.402 20.6444 218.147 21.4689L218.044 21.5304C217.515 21.8054 216.854 21.6406 216.519 21.132C216.163 20.5894 216.315 19.8604 216.857 19.5041L216.987 19.4123C217.671 18.8925 218.821 17.4991 218.821 15.132C218.821 12.7873 217.73 11.4674 216.955 10.84L216.805 10.7238L216.711 10.6476C216.27 10.2473 216.195 9.56989 216.557 9.08024ZM213.71 12.3312C214.049 11.8259 214.711 11.6667 215.237 11.9465L215.341 12.009L215.468 12.0988C216.117 12.5784 216.963 13.5467 216.963 15.133C216.963 16.6991 216.117 17.7296 215.425 18.2023L215.288 18.2902C214.731 18.6225 214.009 18.4402 213.677 17.883C213.344 17.3254 213.526 16.6033 214.084 16.2707L214.144 16.2277C214.309 16.0964 214.612 15.7454 214.612 15.133C214.612 14.5386 214.34 14.2032 214.121 14.0275L214.031 13.9621L213.935 13.8898C213.476 13.5098 213.371 12.8369 213.71 12.3312Z" fill="black"/>
</svg>