<svg width="32" height="41" viewBox="0 0 32 41" fill="none" xmlns="http://www.w3.org/2000/svg">
<path d="M11.3626 40.1C10.8626 40.1 10.3992 40.01 9.97258 39.83C9.54591 39.6433 9.17258 39.3867 8.85258 39.06C8.53924 38.7333 8.29591 38.3533 8.12258 37.92C7.94924 37.4867 7.86258 37.0233 7.86258 36.53C7.86258 36.03 7.94924 35.5633 8.12258 35.13C8.29591 34.6967 8.53924 34.32 8.85258 34C9.17258 33.6733 9.54258 33.42 9.96258 33.24C10.3892 33.0533 10.8526 32.96 11.3526 32.96C11.8992 32.96 12.3792 33.0533 12.7926 33.24C13.2059 33.4267 13.5726 33.68 13.8926 34L13.2426 34.65C13.0226 34.4033 12.7526 34.21 12.4326 34.07C12.1192 33.93 11.7592 33.86 11.3526 33.86C10.9859 33.86 10.6492 33.9267 10.3426 34.06C10.0359 34.1867 9.76924 34.37 9.54258 34.61C9.31591 34.85 9.13924 35.1333 9.01258 35.46C8.89258 35.7867 8.83258 36.1433 8.83258 36.53C8.83258 36.9167 8.89258 37.2733 9.01258 37.6C9.13924 37.9267 9.31591 38.21 9.54258 38.45C9.76924 38.69 10.0359 38.8767 10.3426 39.01C10.6492 39.1367 10.9859 39.2 11.3526 39.2C11.7859 39.2 12.1626 39.13 12.4826 38.99C12.8026 38.8433 13.0726 38.6467 13.2926 38.4L13.9426 39.04C13.6226 39.3733 13.2459 39.6333 12.8126 39.82C12.3859 40.0067 11.9026 40.1 11.3626 40.1ZM16.7913 40.1C16.358 40.1 15.9647 39.9933 15.6113 39.78C15.258 39.56 14.978 39.2633 14.7713 38.89C14.5713 38.5167 14.4713 38.0967 14.4713 37.63C14.4713 37.1633 14.5713 36.7433 14.7713 36.37C14.978 35.9967 15.2547 35.7 15.6013 35.48C15.9547 35.26 16.3513 35.15 16.7913 35.15C17.1513 35.15 17.4713 35.2267 17.7513 35.38C18.038 35.5267 18.268 35.7333 18.4413 36C18.6147 36.26 18.7113 36.5633 18.7313 36.91V38.34C18.7113 38.68 18.6147 38.9833 18.4413 39.25C18.2747 39.5167 18.048 39.7267 17.7613 39.88C17.4813 40.0267 17.158 40.1 16.7913 40.1ZM16.9413 39.25C17.388 39.25 17.748 39.1 18.0213 38.8C18.2947 38.4933 18.4313 38.1033 18.4313 37.63C18.4313 37.3033 18.368 37.02 18.2413 36.78C18.1213 36.5333 17.948 36.3433 17.7213 36.21C17.4947 36.07 17.2313 36 16.9313 36C16.6313 36 16.3647 36.07 16.1313 36.21C15.9047 36.35 15.7247 36.5433 15.5913 36.79C15.4647 37.03 15.4013 37.3067 15.4013 37.62C15.4013 37.94 15.4647 38.2233 15.5913 38.47C15.7247 38.71 15.908 38.9 16.1413 39.04C16.3747 39.18 16.6413 39.25 16.9413 39.25ZM18.3713 40V38.72L18.5413 37.56L18.3713 36.41V35.25H19.2813V40H18.3713ZM20.5916 40V35.25H21.4916V40H20.5916ZM21.4916 37.29L21.1516 37.14C21.1516 36.5333 21.2916 36.05 21.5716 35.69C21.8516 35.33 22.255 35.15 22.7816 35.15C23.0216 35.15 23.2383 35.1933 23.4316 35.28C23.625 35.36 23.805 35.4967 23.9716 35.69L23.3816 36.3C23.2816 36.1933 23.1716 36.1167 23.0516 36.07C22.9316 36.0233 22.7916 36 22.6316 36C22.2983 36 22.025 36.1067 21.8116 36.32C21.5983 36.5333 21.4916 36.8567 21.4916 37.29ZM25.3158 40V33.26H26.2158V40H25.3158ZM24.1458 36.07V35.25H27.3858V36.07H24.1458Z" fill="black"/>
<path d="M13.002 19.835C14.3783 19.9747 15.4528 21.1376 15.4531 22.5508L15.4385 22.8301C15.2988 24.2067 14.1361 25.2811 12.7227 25.2812L12.4443 25.2666C11.1593 25.1362 10.1372 24.1151 10.0068 22.8301L9.99316 22.5508C9.99354 21.0435 11.2154 19.8215 12.7227 19.8213L13.002 19.835ZM25.0156 19.835C26.3921 19.9746 27.4664 21.1375 27.4668 22.5508L27.4521 22.8301C27.3125 24.2067 26.1498 25.2812 24.7363 25.2812L24.458 25.2666C23.1729 25.1362 22.1509 24.1151 22.0205 22.8301L22.0068 22.5508C22.0072 21.0435 23.2291 19.8215 24.7363 19.8213L25.0156 19.835ZM24.7363 21.8213C24.3336 21.8215 24.0072 22.1481 24.0068 22.5508C24.0068 22.9538 24.3334 23.281 24.7363 23.2812C25.1394 23.2812 25.4668 22.9539 25.4668 22.5508C25.4664 22.148 25.1392 21.8213 24.7363 21.8213ZM12.7227 21.8213C12.32 21.8215 11.9935 22.1481 11.9932 22.5508C11.9932 22.9538 12.3197 23.281 12.7227 23.2812C13.1257 23.2811 13.4531 22.9538 13.4531 22.5508C13.4528 22.1481 13.1254 21.8214 12.7227 21.8213ZM6.82812 0.0126953C7.37292 0.0606819 7.82877 0.460933 7.94141 1.00488L11.0117 15.8418H26.4473L29.2061 2.50781H27.4648C26.7748 2.50739 26.2148 1.94791 26.2148 1.25781C26.2149 0.567783 26.7749 0.00823332 27.4648 0.0078125H30.7412L30.8809 0.015625C31.204 0.0519502 31.5032 0.213793 31.7109 0.46875C31.9183 0.723614 32.016 1.04853 31.9863 1.37207L31.9648 1.51074L28.6895 17.3447C28.5694 17.9252 28.0576 18.3418 27.4648 18.3418H9.99316C9.40078 18.3414 8.88957 17.9249 8.76953 17.3447L5.69922 2.50781H1.25781C0.567636 2.5076 0.0078125 1.94804 0.0078125 1.25781C0.00789092 0.567654 0.567685 0.00802373 1.25781 0.0078125H6.71777L6.82812 0.0126953ZM18.6348 2.80566C19.2377 2.80614 19.7271 3.29549 19.7275 3.89844L19.7295 6.625L22.459 6.62598C23.062 6.62641 23.5524 7.1167 23.5527 7.71973C23.5529 8.3225 23.0637 8.8117 22.4609 8.81152L19.7295 8.80859L19.7324 11.542C19.7328 12.145 19.2436 12.634 18.6406 12.6338C18.0377 12.6333 17.5484 12.1439 17.5479 11.541L17.5459 8.80859L14.8174 8.80664C14.2143 8.80628 13.725 8.31597 13.7246 7.71289C13.7246 7.11015 14.2127 6.62184 14.8154 6.62207L17.5439 6.62305V3.89648C17.5439 3.29368 18.0319 2.80538 18.6348 2.80566Z" fill="black"/>
</svg>
