<svg width="14" height="14" viewBox="0 0 14 14" fill="none" xmlns="http://www.w3.org/2000/svg">
<path d="M11.9728 0.347849C12.4366 -0.115947 13.1887 -0.115953 13.6525 0.347849C14.1161 0.811672 14.1162 1.56382 13.6525 2.02754L8.67886 6.99922L13.6525 11.9728C14.116 12.4366 14.116 13.1878 13.6525 13.6516C13.1887 14.1154 12.4366 14.1154 11.9728 13.6516L7.00015 8.6789L2.02749 13.6516C1.56368 14.1154 0.811613 14.1154 0.347806 13.6516C-0.1159 13.1877 -0.11597 12.4356 0.347806 11.9719L5.31949 6.99922L0.347806 2.02754C-0.115824 1.56376 -0.115841 0.811614 0.347806 0.347849C0.811563 -0.115904 1.56367 -0.1158 2.02749 0.347849L6.99917 5.31953L11.9728 0.347849Z" fill="black"/>
</svg>
