<svg width="50" height="50" viewBox="0 0 50 50" fill="none" xmlns="http://www.w3.org/2000/svg">
<circle opacity="0.7" cx="25" cy="25" r="25" fill="#ECECEC"/>
<circle cx="25" cy="25" r="22.25" stroke="currentColor" stroke-width="1.5"/>
<path d="M25.1272 30.0994C25.3279 30.3361 25.6939 30.3347 25.8928 30.0964L28.8538 26.5496C29.1253 26.224 28.8939 25.7294 28.47 25.7292H27.2483C26.9723 25.7291 26.7483 25.5053 26.7483 25.2292V19.4997C26.7482 19.2237 26.5244 18.9997 26.2483 18.9997H24.7698C24.4958 19 24.2726 19.2209 24.2698 19.4949L24.2141 25.2341C24.2114 25.5083 23.9883 25.7292 23.7141 25.7292H22.5012C22.0754 25.7292 21.8442 26.2276 22.1194 26.5525L25.1272 30.0994Z" fill="black"/>
<path d="M28.1816 14C29.6632 14.0002 30.8725 15.1505 30.9736 16.6064H33.0947C35.917 16.6065 38.2051 18.8945 38.2051 21.7168V32.2627C38.2051 34.1956 36.638 35.7626 34.7051 35.7627H15.5C13.5673 35.7624 12 34.1955 12 32.2627V21.7168C12 18.8946 14.2883 16.6068 17.1104 16.6064H19.2305C19.3316 15.1506 20.542 14.0004 22.0234 14H28.1816ZM15.3086 34.2539L15.5 34.2627C15.3659 34.2627 15.2351 34.2478 15.1084 34.2227C15.1741 34.2357 15.2408 34.2474 15.3086 34.2539ZM25.5 20C21.9102 20.0001 19 22.9102 19 26.5C19 30.0898 21.9102 32.9999 25.5 33C29.0899 33 32 30.0899 32 26.5C32 22.9101 29.0899 20 25.5 20ZM16.9307 18.1104C16.8875 18.1125 16.8445 18.1165 16.8018 18.1201C16.9034 18.1115 17.0064 18.1065 17.1104 18.1064L16.9307 18.1104ZM19.5508 18.0996L19.418 18.1064L19.5518 18.0996C19.6148 18.0932 19.6763 18.0805 19.7363 18.0654C19.6761 18.0806 19.614 18.0932 19.5508 18.0996ZM29.5693 17.2637C29.6053 17.3589 29.6509 17.4492 29.707 17.5322L29.6426 17.4248C29.6145 17.3732 29.5905 17.3192 29.5693 17.2637ZM29.4844 16.8037L29.4785 16.6787C29.4783 16.6764 29.4778 16.6742 29.4775 16.6719C29.4819 16.7151 29.4844 16.7593 29.4844 16.8037ZM29.5127 17.0742C29.5246 17.1305 29.5416 17.1849 29.5605 17.2383C29.5415 17.185 29.5247 17.1305 29.5127 17.0742Z" fill="black"/>
</svg>
