<svg width="20" height="20" viewBox="0 0 20 20" fill="none" xmlns="http://www.w3.org/2000/svg">
<path d="M17.1033 0.496929C17.7659 -0.16564 18.8402 -0.165646 19.5027 0.496929C20.1651 1.15952 20.1652 2.23384 19.5027 2.89634L12.3992 9.99986L19.5027 17.1034C20.1653 17.7659 20.1653 18.8402 19.5027 19.5028C18.8401 20.1652 17.7658 20.1653 17.1033 19.5028L9.99979 12.3993L2.89627 19.5028C2.23375 20.1652 1.1594 20.1652 0.496857 19.5028C-0.165661 18.8403 -0.165577 17.766 0.496857 17.1034L7.60037 9.99986L0.496857 2.89634C-0.165407 2.23382 -0.165432 1.15944 0.496857 0.496929C1.15935 -0.165573 2.23369 -0.165424 2.89627 0.496929L9.99979 7.60044L17.1033 0.496929Z" fill="black"/>
</svg>
