<svg width="41" height="46" viewBox="0 0 41 46" fill="none" xmlns="http://www.w3.org/2000/svg">
<path d="M1.22723 44V37.06H2.16723V44H1.22723ZM1.86723 40.95V40.09H5.48723V40.95H1.86723ZM1.86723 37.92V37.06H5.65723V37.92H1.86723ZM8.64129 44.1C8.25462 44.1 7.90462 44.0133 7.59129 43.84C7.28462 43.66 7.04462 43.4133 6.87129 43.1C6.69796 42.7867 6.61129 42.4233 6.61129 42.01V39.25H7.51129V41.97C7.51129 42.23 7.55462 42.4567 7.64129 42.65C7.73462 42.8367 7.86796 42.98 8.04129 43.08C8.21462 43.18 8.41796 43.23 8.65129 43.23C9.00462 43.23 9.28129 43.12 9.48129 42.9C9.68129 42.6733 9.78129 42.3633 9.78129 41.97V39.25H10.6813V42.01C10.6813 42.4233 10.5946 42.7867 10.4213 43.1C10.248 43.4133 10.008 43.66 9.70129 43.84C9.40129 44.0133 9.04796 44.1 8.64129 44.1ZM11.8875 44V36.86H12.7875V44H11.8875ZM14.1043 44V36.86H15.0043V44H14.1043ZM19.1912 44V43.18H21.2912C21.6912 43.18 22.0045 43.0633 22.2312 42.83C22.4579 42.59 22.5712 42.3033 22.5712 41.97C22.5712 41.7433 22.5212 41.54 22.4212 41.36C22.3212 41.1733 22.1745 41.0267 21.9812 40.92C21.7945 40.8133 21.5745 40.76 21.3212 40.76H19.1912V39.94H21.1812C21.5145 39.94 21.7779 39.8533 21.9712 39.68C22.1712 39.5 22.2712 39.2433 22.2712 38.91C22.2712 38.5767 22.1679 38.3233 21.9612 38.15C21.7545 37.97 21.4812 37.88 21.1412 37.88H19.1912V37.06H21.1612C21.6145 37.06 21.9912 37.1433 22.2912 37.31C22.5979 37.47 22.8279 37.6833 22.9812 37.95C23.1412 38.2167 23.2212 38.51 23.2212 38.83C23.2212 39.2033 23.1179 39.53 22.9112 39.81C22.7112 40.09 22.4145 40.31 22.0212 40.47L22.1012 40.17C22.5479 40.33 22.8945 40.5733 23.1412 40.9C23.3945 41.22 23.5212 41.6 23.5212 42.04C23.5212 42.4067 23.4312 42.7367 23.2512 43.03C23.0712 43.3233 22.8112 43.56 22.4712 43.74C22.1379 43.9133 21.7279 44 21.2412 44H19.1912ZM18.5612 44V37.06H19.5012V44H18.5612ZM26.8017 44.1C26.335 44.1 25.915 43.99 25.5417 43.77C25.1683 43.55 24.8717 43.2533 24.6517 42.88C24.4317 42.5 24.3217 42.0767 24.3217 41.61C24.3217 41.15 24.4317 40.7367 24.6517 40.37C24.8717 39.9967 25.1683 39.7 25.5417 39.48C25.915 39.26 26.335 39.15 26.8017 39.15C27.2617 39.15 27.6783 39.26 28.0517 39.48C28.4317 39.6933 28.7317 39.9867 28.9517 40.36C29.1717 40.7333 29.2817 41.15 29.2817 41.61C29.2817 42.0767 29.1717 42.5 28.9517 42.88C28.7317 43.2533 28.4317 43.55 28.0517 43.77C27.6783 43.99 27.2617 44.1 26.8017 44.1ZM26.8017 43.23C27.1017 43.23 27.3683 43.16 27.6017 43.02C27.835 42.88 28.0183 42.69 28.1517 42.45C28.285 42.2033 28.3517 41.9233 28.3517 41.61C28.3517 41.3033 28.2817 41.03 28.1417 40.79C28.0083 40.55 27.825 40.3633 27.5917 40.23C27.365 40.09 27.1017 40.02 26.8017 40.02C26.5017 40.02 26.235 40.09 26.0017 40.23C25.7683 40.3633 25.585 40.55 25.4517 40.79C25.3183 41.03 25.2517 41.3033 25.2517 41.61C25.2517 41.9233 25.3183 42.2033 25.4517 42.45C25.585 42.69 25.7683 42.88 26.0017 43.02C26.235 43.16 26.5017 43.23 26.8017 43.23ZM32.3057 44.1C31.8657 44.1 31.4724 43.9933 31.1257 43.78C30.7791 43.56 30.5024 43.2633 30.2957 42.89C30.0957 42.5167 29.9957 42.0967 29.9957 41.63C29.9957 41.1633 30.0957 40.7433 30.2957 40.37C30.5024 39.9967 30.7791 39.7 31.1257 39.48C31.4724 39.26 31.8657 39.15 32.3057 39.15C32.6591 39.15 32.9791 39.2267 33.2657 39.38C33.5524 39.5267 33.7824 39.7333 33.9557 40C34.1357 40.26 34.2357 40.5633 34.2557 40.91V42.34C34.2357 42.68 34.1391 42.9833 33.9657 43.25C33.7924 43.5167 33.5624 43.7267 33.2757 43.88C32.9891 44.0267 32.6657 44.1 32.3057 44.1ZM32.4557 43.25C32.7557 43.25 33.0157 43.18 33.2357 43.04C33.4624 42.9 33.6391 42.71 33.7657 42.47C33.8924 42.2233 33.9557 41.9433 33.9557 41.63C33.9557 41.3033 33.8891 41.02 33.7557 40.78C33.6291 40.54 33.4524 40.35 33.2257 40.21C33.0057 40.07 32.7457 40 32.4457 40C32.1457 40 31.8824 40.07 31.6557 40.21C31.4291 40.35 31.2491 40.5433 31.1157 40.79C30.9891 41.03 30.9257 41.3067 30.9257 41.62C30.9257 41.94 30.9891 42.2233 31.1157 42.47C31.2491 42.71 31.4291 42.9 31.6557 43.04C31.8891 43.18 32.1557 43.25 32.4557 43.25ZM34.8057 44H33.8957V42.72L34.0657 41.56L33.8957 40.41V36.86H34.8057V44ZM37.6761 44.04L35.6161 39.25H36.6161L38.1461 43H37.8261L39.4361 39.25H40.4361L38.2161 44.04H37.6761ZM36.3161 45.99L37.7161 43.12L38.2161 44.04L37.3161 45.99H36.3161Z" fill="black"/>
<path d="M21.033 -1.31845e-06C12.1786 0.000329171 5.00005 7.17879 4.99976 16.0332C4.99976 24.8879 12.1784 32.0661 21.033 32.0664C26.2805 32.0664 30.9398 29.5443 33.863 25.6504L33.9207 25.5654C34.182 25.1315 34.0777 24.5607 33.6638 24.25C33.2222 23.9188 32.5949 24.0088 32.2634 24.4502L32.0193 24.7656C29.4468 27.9975 25.4814 30.0664 21.033 30.0664C13.283 30.0661 6.99976 23.7833 6.99976 16.0332C7.00005 8.28336 13.2831 2.00033 21.033 2C25.1859 2 28.9184 3.80358 31.489 6.67285L29.656 8.02734C28.9881 8.52104 29.1783 9.56708 29.9773 9.79394L34.7371 11.1455C35.3671 11.3244 35.9967 10.8589 36.0105 10.2041L36.114 5.25781C36.1315 4.4275 35.1881 3.93905 34.5203 4.43262L33.1023 5.48047C30.1646 2.12376 25.8467 -8.97617e-07 21.033 -1.31845e-06Z" fill="black"/>
<path d="M17.3989 7.91217C17.3989 7.67055 17.5948 7.47583 17.8364 7.47583C18.0781 7.47583 18.2739 7.67171 18.2739 7.91333V8.95678C18.2739 9.23292 18.4978 9.45678 18.7739 9.45678H20.5239H22.2739C22.5501 9.45678 22.7739 9.23292 22.7739 8.95678V7.91333C22.7739 7.67171 22.9698 7.47583 23.2114 7.47583C23.4531 7.47583 23.6489 7.67055 23.6489 7.91217C23.6489 9.04355 23.6489 12.0046 23.6489 12.3044C23.6489 12.7557 24.0973 13.2587 24.3521 13.5082C24.4579 13.6118 24.5239 13.7519 24.5239 13.9V23.8092C24.5239 24.3614 24.0762 24.8092 23.5239 24.8092H21.9544C21.43 24.8092 20.9947 24.4041 20.957 23.8811L20.5239 17.8758L20.0909 23.8811C20.0531 24.4041 19.6178 24.8092 19.0934 24.8092H17.5239C16.9716 24.8092 16.5239 24.3614 16.5239 23.8092V13.9C16.5239 13.7519 16.5899 13.6118 16.6958 13.5082C16.9506 13.2587 17.3989 12.7557 17.3989 12.3044C17.3989 12.0046 17.3989 9.04355 17.3989 7.91217Z" fill="black"/>
</svg>
