<svg width="40" height="40" viewBox="0 0 40 40" fill="none" xmlns="http://www.w3.org/2000/svg">
<circle opacity="0.7" cx="20" cy="20" r="20" fill="#ECECEC"/>
<circle cx="20" cy="20" r="17.25" stroke="currentColor" stroke-width="1.5"/>
<path d="M21.3272 12.6999L22.9354 14.3081C23.326 14.6984 23.9592 14.6986 24.3496 14.3081L27.8852 10.7726L29.019 11.9065L25.516 15.491C25.1332 15.8828 25.1369 16.5096 25.5242 16.8969L27.1283 18.5011L20.8597 18.9306L21.3272 12.6999Z" fill="black" stroke="black"/>
<path d="M18.5041 27.1337L16.8959 25.5255C16.5053 25.1352 15.8721 25.135 15.4817 25.5255L11.9461 29.061L10.8123 27.9272L14.3153 24.3426C14.6981 23.9508 14.6944 23.324 14.3071 22.9367L12.7029 21.3326L18.9716 20.9031L18.5041 27.1337Z" fill="black" stroke="black"/>
</svg>
