<svg width="67" height="23" viewBox="0 0 67 23" fill="none" xmlns="http://www.w3.org/2000/svg">
<path d="M51.7473 0.00292969C56.4794 0.0453225 60.6124 0.541625 63.0813 3.31152C63.2779 3.24597 63.4915 3.17254 63.7043 3.09375C64.0262 2.97461 64.3329 2.85437 64.5598 2.76367C64.6728 2.7185 64.7657 2.68033 64.8293 2.6543C64.8608 2.64144 64.8854 2.6317 64.9016 2.625C64.9097 2.62166 64.9163 2.61879 64.9202 2.61719C64.9219 2.61645 64.9233 2.61556 64.9241 2.61523H64.925C65.6898 2.29713 66.5677 2.65911 66.886 3.42383C67.2041 4.18855 66.842 5.06641 66.0774 5.38477H66.0764L66.0686 5.38867C66.0634 5.39083 66.0556 5.39358 66.0461 5.39746C66.027 5.40536 65.999 5.41737 65.9641 5.43164C65.8941 5.46026 65.7942 5.50043 65.6731 5.54883C65.4311 5.64555 65.0995 5.7755 64.7463 5.90625C64.7121 5.91894 64.6768 5.93056 64.6418 5.94336C65.1967 7.41009 65.5002 9.23347 65.5002 11.5L65.4963 11.9854C65.2978 22.031 58.8832 23 51.0002 23L50.2571 22.9854C42.8989 22.6954 37.8064 18.1072 36.6077 12.1045L36.5002 11.5C36.2336 9.76664 36.2876 8.28147 36.6018 7.01172C36.531 6.99337 36.4589 6.97353 36.385 6.95508C35.4044 6.71019 34.303 6.50003 33.5012 6.5C32.6995 6.5 31.5981 6.71018 30.6174 6.95508C30.543 6.97367 30.47 6.99323 30.3987 7.01172C30.7129 8.28155 30.7679 9.76653 30.5012 11.5L30.3948 12.1045C29.1561 18.3074 23.7592 22.9999 16.0012 23L15.2551 22.9971C7.71732 22.9296 1.69834 21.7121 1.5061 11.9854L1.50122 11.5C1.50122 9.23321 1.80358 7.40918 2.35864 5.94238C2.32432 5.92981 2.28977 5.91871 2.2561 5.90625C1.90295 5.77551 1.57138 5.64556 1.32934 5.54883C1.20827 5.50044 1.10833 5.46027 1.03833 5.43164C1.00346 5.41738 0.975454 5.40537 0.956296 5.39746C0.946899 5.39358 0.939062 5.39083 0.933835 5.38867L0.926022 5.38477H0.925046C0.160274 5.06646 -0.201762 4.18862 0.116452 3.42383C0.434782 2.6591 1.31262 2.29703 2.07739 2.61523H2.07837C2.07917 2.6156 2.08056 2.61648 2.08227 2.61719C2.08618 2.61881 2.09277 2.62167 2.10083 2.625C2.11708 2.63171 2.14169 2.64145 2.17309 2.6543C2.23677 2.68034 2.32961 2.71851 2.44262 2.76367C2.6696 2.85438 2.97628 2.97462 3.29809 3.09375C3.51069 3.17245 3.72376 3.24602 3.92016 3.31152C6.51817 0.396874 10.959 4.9992e-08 16.0012 0L16.7512 0.00585938C21.7836 0.0920553 26.6709 1.07982 29.094 4.25586C29.3324 4.18909 29.6017 4.11713 29.8909 4.04492C30.9123 3.78984 32.3118 3.5 33.5012 3.5C34.6907 3.50003 36.0902 3.78985 37.1116 4.04492C37.4 4.11697 37.6685 4.18922 37.9065 4.25586C40.4497 0.922077 45.7091 9.00116e-05 51.0002 0L51.7473 0.00292969ZM16.0012 2C11.9502 2 8.86249 2.28636 6.77173 3.53125C5.88462 4.05949 5.08694 4.82267 4.50122 6.02051V6.5C4.433 6.5 4.36289 6.49507 4.29223 6.48828C3.79814 7.70673 3.50122 9.32339 3.50122 11.5C3.50122 16.3066 4.94861 18.3831 6.77173 19.4688C8.86249 20.7136 11.9502 21 16.0012 21C23.0897 20.9999 27.6847 16.6549 28.5247 11.1963L28.5774 10.8154C28.8129 8.94641 28.5896 7.57009 28.1399 6.54492C27.6651 5.46267 26.869 4.61188 25.759 3.93848C23.443 2.5335 19.9221 2.00002 16.0012 2ZM51.0002 2C47.0798 2.00007 43.5594 2.53372 41.2434 3.93848C40.1335 4.61184 39.3374 5.46277 38.8625 6.54492C38.3829 7.63842 38.1602 9.13192 38.4778 11.1963L38.5676 11.7041C39.6073 16.9217 44.1334 20.9997 51.0002 21C55.0513 21 58.1399 20.7136 60.2307 19.4688C62.0537 18.3831 63.5003 16.3063 63.5002 11.5C63.5002 9.32334 63.2032 7.70678 62.7092 6.48828C62.6388 6.49503 62.5692 6.49999 62.5012 6.5V6.02246C61.9156 4.82365 61.1181 4.05976 60.2307 3.53125C58.1399 2.28638 55.0513 2 51.0002 2Z" fill="currentColor"/>
</svg>
