<svg width="48" height="46" viewBox="0 0 48 46" fill="none" xmlns="http://www.w3.org/2000/svg">
<path d="M2.81316 44V37.06H3.75316V44H2.81316ZM7.29316 44V37.06H8.23316V44H7.29316ZM3.45316 40.84V39.98H7.52316V40.84H3.45316ZM11.9137 44.1C11.4404 44.1 11.0137 43.9933 10.6337 43.78C10.2537 43.56 9.95371 43.2633 9.73371 42.89C9.51371 42.5167 9.40371 42.0933 9.40371 41.62C9.40371 41.1533 9.51038 40.7333 9.72371 40.36C9.94371 39.9867 10.237 39.6933 10.6037 39.48C10.977 39.26 11.3937 39.15 11.8537 39.15C12.2937 39.15 12.6804 39.25 13.0137 39.45C13.3537 39.65 13.617 39.9267 13.8037 40.28C13.997 40.6333 14.0937 41.0333 14.0937 41.48C14.0937 41.5467 14.0904 41.62 14.0837 41.7C14.077 41.7733 14.0637 41.86 14.0437 41.96H10.0337V41.21H13.5637L13.2337 41.5C13.2337 41.18 13.177 40.91 13.0637 40.69C12.9504 40.4633 12.7904 40.29 12.5837 40.17C12.377 40.0433 12.127 39.98 11.8337 39.98C11.527 39.98 11.257 40.0467 11.0237 40.18C10.7904 40.3133 10.6104 40.5 10.4837 40.74C10.357 40.98 10.2937 41.2633 10.2937 41.59C10.2937 41.9233 10.3604 42.2167 10.4937 42.47C10.627 42.7167 10.817 42.91 11.0637 43.05C11.3104 43.1833 11.5937 43.25 11.9137 43.25C12.1804 43.25 12.4237 43.2033 12.6437 43.11C12.8704 43.0167 13.0637 42.8767 13.2237 42.69L13.8037 43.28C13.577 43.5467 13.297 43.75 12.9637 43.89C12.637 44.03 12.287 44.1 11.9137 44.1ZM17.095 44.1C16.6617 44.1 16.2684 43.9933 15.915 43.78C15.5617 43.56 15.2817 43.2633 15.075 42.89C14.875 42.5167 14.775 42.0967 14.775 41.63C14.775 41.1633 14.875 40.7433 15.075 40.37C15.2817 39.9967 15.5584 39.7 15.905 39.48C16.2584 39.26 16.655 39.15 17.095 39.15C17.455 39.15 17.775 39.2267 18.055 39.38C18.3417 39.5267 18.5717 39.7333 18.745 40C18.9184 40.26 19.015 40.5633 19.035 40.91V42.34C19.015 42.68 18.9184 42.9833 18.745 43.25C18.5784 43.5167 18.3517 43.7267 18.065 43.88C17.785 44.0267 17.4617 44.1 17.095 44.1ZM17.245 43.25C17.6917 43.25 18.0517 43.1 18.325 42.8C18.5984 42.4933 18.735 42.1033 18.735 41.63C18.735 41.3033 18.6717 41.02 18.545 40.78C18.425 40.5333 18.2517 40.3433 18.025 40.21C17.7984 40.07 17.535 40 17.235 40C16.935 40 16.6684 40.07 16.435 40.21C16.2084 40.35 16.0284 40.5433 15.895 40.79C15.7684 41.03 15.705 41.3067 15.705 41.62C15.705 41.94 15.7684 42.2233 15.895 42.47C16.0284 42.71 16.2117 42.9 16.445 43.04C16.6784 43.18 16.945 43.25 17.245 43.25ZM18.675 44V42.72L18.845 41.56L18.675 40.41V39.25H19.585V44H18.675ZM21.6058 44V37.26H22.5058V44H21.6058ZM20.4358 40.07V39.25H23.6758V40.07H20.4358ZM26.7975 44V37.06H27.4575L30.3975 41.89H29.9475L32.8875 37.06H33.5475V44H32.6075V38.71L32.8275 38.77L30.5075 42.58H29.8475L27.5275 38.77L27.7375 38.71V44H26.7975ZM37.0462 44.1C36.6129 44.1 36.2195 43.9933 35.8662 43.78C35.5129 43.56 35.2329 43.2633 35.0262 42.89C34.8262 42.5167 34.7262 42.0967 34.7262 41.63C34.7262 41.1633 34.8262 40.7433 35.0262 40.37C35.2329 39.9967 35.5095 39.7 35.8562 39.48C36.2095 39.26 36.6062 39.15 37.0462 39.15C37.4062 39.15 37.7262 39.2267 38.0062 39.38C38.2929 39.5267 38.5229 39.7333 38.6962 40C38.8695 40.26 38.9662 40.5633 38.9862 40.91V42.34C38.9662 42.68 38.8695 42.9833 38.6962 43.25C38.5295 43.5167 38.3029 43.7267 38.0162 43.88C37.7362 44.0267 37.4129 44.1 37.0462 44.1ZM37.1962 43.25C37.6429 43.25 38.0029 43.1 38.2762 42.8C38.5495 42.4933 38.6862 42.1033 38.6862 41.63C38.6862 41.3033 38.6229 41.02 38.4962 40.78C38.3762 40.5333 38.2029 40.3433 37.9762 40.21C37.7495 40.07 37.4862 40 37.1862 40C36.8862 40 36.6195 40.07 36.3862 40.21C36.1595 40.35 35.9795 40.5433 35.8462 40.79C35.7195 41.03 35.6562 41.3067 35.6562 41.62C35.6562 41.94 35.7195 42.2233 35.8462 42.47C35.9795 42.71 36.1629 42.9 36.3962 43.04C36.6295 43.18 36.8962 43.25 37.1962 43.25ZM38.6262 44V42.72L38.7962 41.56L38.6262 40.41V39.25H39.5362V44H38.6262ZM43.3465 44.1C42.9865 44.1 42.6599 44.0267 42.3665 43.88C42.0799 43.7267 41.8499 43.5167 41.6765 43.25C41.5032 42.9833 41.4065 42.68 41.3865 42.34V40.91C41.4065 40.5633 41.5032 40.26 41.6765 40C41.8565 39.7333 42.0899 39.5267 42.3765 39.38C42.6699 39.2267 42.9932 39.15 43.3465 39.15C43.7799 39.15 44.1699 39.26 44.5165 39.48C44.8699 39.7 45.1465 39.9967 45.3465 40.37C45.5465 40.7433 45.6465 41.1633 45.6465 41.63C45.6465 42.0967 45.5465 42.5167 45.3465 42.89C45.1465 43.2633 44.8699 43.56 44.5165 43.78C44.1699 43.9933 43.7799 44.1 43.3465 44.1ZM40.8465 45.99V39.25H41.7465V40.5L41.5765 41.65L41.7465 42.81V45.99H40.8465ZM43.1965 43.25C43.4965 43.25 43.7599 43.18 43.9865 43.04C44.2132 42.9 44.3932 42.71 44.5265 42.47C44.6599 42.2233 44.7265 41.94 44.7265 41.62C44.7265 41.3067 44.6599 41.0267 44.5265 40.78C44.3932 40.5333 44.2132 40.3433 43.9865 40.21C43.7599 40.07 43.4999 40 43.2065 40C42.9065 40 42.6432 40.07 42.4165 40.21C42.1899 40.3433 42.0132 40.5333 41.8865 40.78C41.7599 41.0267 41.6965 41.31 41.6965 41.63C41.6965 41.9433 41.7565 42.2233 41.8765 42.47C42.0032 42.71 42.1799 42.9 42.4065 43.04C42.6399 43.18 42.9032 43.25 43.1965 43.25Z" fill="black"/>
<circle cx="24" cy="16" r="15" stroke="black" stroke-width="2"/>
</svg>
