<svg width="40" height="40" viewBox="0 0 40 40" fill="none" xmlns="http://www.w3.org/2000/svg">
<circle opacity="0.7" cx="20" cy="20" r="20" fill="#ECECEC"/>
<circle cx="20" cy="20" r="17.25" stroke="white" stroke-width="1.5"/>
<path d="M30.8642 20.6172C31.1815 20.9315 30.9593 21.4717 30.5126 21.4717H28.5595C28.0074 21.4717 27.5597 21.9196 27.5595 22.4717V29.0049C27.5595 29.5571 27.1117 30.0047 26.5595 30.0049H23.2167C22.6645 30.0048 22.2168 29.5571 22.2168 29.0049V23.3692C22.2168 22.8169 21.769 22.3692 21.2168 22.3692H18.6611C18.1088 22.3692 17.6611 22.8169 17.6611 23.3692V29.0049C17.6611 29.5571 17.2133 30.0048 16.6611 30.0049H13.3115C12.7592 30.0049 12.3115 29.5572 12.3115 29.0049V22.4717C12.3113 21.9196 11.8636 21.4718 11.3115 21.4717H9.50093C9.0561 21.4714 8.83334 20.9343 9.14741 20.6192L19.5839 10.1465C19.7784 9.95189 20.0934 9.95109 20.289 10.1446L30.8642 20.6172Z" fill="black"/>
</svg>
