<svg width="430.000000" height="932.000000" viewBox="0 0 430 932" fill="none" xmlns="http://www.w3.org/2000/svg" xmlns:xlink="http://www.w3.org/1999/xlink">
	<desc>
			Created with Pixso.
	</desc>
	<defs>
		<clipPath id="clip184_7491">
			<rect id="Exit Button" rx="0.000000" width="19.000000" height="19.000000" transform="translate(35.500000 61.500000)" fill="white" fill-opacity="0"/>
		</clipPath>
		<clipPath id="clip184_7521">
			<rect id="Avatar Counter" rx="0.000000" width="29.000000" height="24.000000" transform="translate(375.500000 60.500000)" fill="white" fill-opacity="0"/>
		</clipPath>
		<clipPath id="clip184_7476">
			<rect id="MY AVATARS - LOGGED IN" rx="0.000000" width="429.000000" height="931.000000" transform="translate(0.500000 0.500000)" fill="white" fill-opacity="0"/>
		</clipPath>
		<linearGradient x1="55.000000" y1="827.000000" x2="374.999939" y2="827.000000" id="paint_linear_184_7497_0" gradientUnits="userSpaceOnUse">
			<stop stop-color="#372C53"/>
			<stop offset="1.000000" stop-color="#1F5167"/>
		</linearGradient>
	</defs>
	<rect id="MY AVATARS - LOGGED IN" rx="0.000000" width="429.000000" height="931.000000" transform="translate(0.500000 0.500000)" fill="#ECECEC" fill-opacity="1.000000"/>
	<g clip-path="url(#clip184_7476)">
		<rect id="Header Background" width="430.000000" height="101.000000" fill="#ECECEC" fill-opacity="1.000000"/>
		<rect id="Header Background" x="0.500000" y="0.500000" width="429.000000" height="100.000000" stroke="#000000" stroke-opacity="1.000000" stroke-width="1.000000"/>
		<path id="My Avatars" d="M159.54 65.03L159.54 81L161.71 81L161.71 69.76L166.56 77.73L168.07 77.73L172.91 69.8L172.91 81L175.07 81L175.07 65.03L173.55 65.03L167.3 75.29L161.06 65.03L159.54 65.03ZM200.16 65.03L193.63 81L195.93 81L197.38 77.38L204.45 77.38L205.89 81L208.23 81L201.73 65.03L200.16 65.03ZM203.71 75.5L200.93 68.5L198.13 75.5L203.71 75.5ZM235.21 71.95L235.21 81L237.28 81L237.28 71.95L239.97 71.95L239.97 70.07L237.28 70.07L237.28 65.49L235.21 65.49L235.21 70.07L232.52 70.07L232.52 71.95L235.21 71.95ZM222.98 80.9Q223.85 81.23 224.84 81.23Q226.1 81.23 227.08 80.71Q227.62 80.42 228.04 80.02Q228.28 79.79 228.47 79.52L228.47 81L230.57 81L230.57 70.07L228.47 70.07L228.47 71.56Q228.28 71.3 228.04 71.07Q227.61 70.65 227.06 70.36Q227.02 70.34 226.97 70.32Q226.03 69.84 224.84 69.84Q223.77 69.84 222.86 70.21Q222.47 70.37 222.11 70.6Q221.65 70.89 221.27 71.26Q220.64 71.85 220.2 72.65Q220.11 72.83 220.02 73.01Q219.5 74.16 219.5 75.54Q219.5 76.94 220.03 78.1Q220.11 78.27 220.2 78.45Q220.62 79.21 221.22 79.78Q221.63 80.17 222.12 80.48Q222.54 80.73 222.98 80.9ZM244.44 80.9Q245.31 81.23 246.3 81.23Q247.56 81.23 248.54 80.71Q249.08 80.42 249.5 80.02Q249.73 79.79 249.93 79.52L249.93 81L252.03 81L252.03 70.07L249.93 70.07L249.93 71.56Q249.74 71.3 249.5 71.07Q249.07 70.65 248.52 70.36Q248.48 70.34 248.43 70.32Q247.49 69.84 246.3 69.84Q245.23 69.84 244.32 70.21Q243.93 70.37 243.57 70.6Q243.11 70.89 242.72 71.26Q242.1 71.85 241.66 72.65Q241.57 72.83 241.48 73.01Q240.96 74.16 240.96 75.54Q240.96 76.94 241.49 78.1Q241.57 78.27 241.66 78.45Q242.08 79.21 242.68 79.78Q243.09 80.17 243.58 80.48Q244 80.73 244.44 80.9ZM257.11 74.76L257.11 81L255.04 81L255.04 70.07L257.11 70.07L257.11 71.34Q257.2 71.21 257.29 71.08Q257.61 70.68 258.01 70.41Q258.85 69.84 260.07 69.84Q260.9 69.84 261.57 70.13Q262.24 70.42 262.81 71.08L261.45 72.48Q261.11 72.12 260.7 71.96Q260.28 71.8 259.73 71.8Q258.96 71.8 258.37 72.13Q258.09 72.29 257.84 72.53Q257.11 73.27 257.11 74.76ZM265.76 80.98Q266.58 81.23 267.51 81.23Q269.35 81.23 270.44 80.33Q270.86 79.98 271.12 79.53Q271.53 78.83 271.53 77.89Q271.53 76.88 271.1 76.26Q270.91 75.97 270.66 75.74Q270.37 75.47 270.01 75.27Q269.92 75.22 269.82 75.17Q269.24 74.87 268.61 74.68Q267.87 74.46 267.19 74.26Q266.52 74.05 266.1 73.75Q265.94 73.63 265.84 73.47Q265.69 73.23 265.69 72.9Q265.69 72.64 265.79 72.43Q265.91 72.2 266.16 72.04Q266.63 71.72 267.53 71.72Q268.38 71.72 269.06 72.05Q269.39 72.21 269.67 72.43Q269.96 72.66 270.2 72.97L271.53 71.63Q271.19 71.15 270.74 70.8Q270.35 70.5 269.89 70.29Q268.89 69.84 267.6 69.84Q266.38 69.84 265.51 70.23Q264.85 70.53 264.41 71.03Q264.28 71.18 264.17 71.35Q264.1 71.45 264.04 71.55Q263.69 72.21 263.69 73.06Q263.69 74.05 264.11 74.65Q264.26 74.87 264.46 75.06Q264.78 75.37 265.2 75.59Q265.87 75.94 266.62 76.15Q267.37 76.37 268.03 76.59Q268.7 76.81 269.12 77.14Q269.28 77.26 269.38 77.42Q269.55 77.69 269.55 78.08Q269.55 78.34 269.44 78.55Q269.31 78.82 269.02 79.01Q268.49 79.34 267.53 79.34Q266.56 79.34 265.78 78.98Q265.73 78.97 265.69 78.95Q264.96 78.59 264.4 77.89L263.06 79.23Q263.15 79.33 263.24 79.43Q263.68 79.92 264.26 80.29Q264.35 80.35 264.45 80.41Q265.06 80.78 265.76 80.98ZM183.3 81.08L181.23 85.57L178.93 85.57L181.62 80.07L177.32 70.07L179.62 70.07L182.78 77.81L186.11 70.07L188.41 70.07L183.3 81.08ZM207.59 70.07L212.6 81L213.82 81L218.84 70.07L216.63 70.07L213.25 77.77L209.89 70.07L207.59 70.07ZM226.92 78.84Q226.17 79.27 225.18 79.27Q224.34 79.27 223.64 78.95Q223.49 78.88 223.34 78.79Q222.98 78.57 222.69 78.28Q222.34 77.93 222.09 77.47Q221.64 76.63 221.64 75.52Q221.64 74.44 222.09 73.61Q222.36 73.1 222.76 72.72Q223.02 72.47 223.33 72.28Q223.46 72.2 223.59 72.14Q224.29 71.8 225.16 71.8Q226.1 71.8 226.84 72.19Q226.91 72.23 226.97 72.27Q227.3 72.46 227.56 72.72Q227.94 73.09 228.18 73.58Q228.61 74.42 228.61 75.54Q228.61 76.81 228.04 77.73Q227.88 77.99 227.67 78.23Q227.33 78.6 226.92 78.84ZM248.38 78.84Q247.63 79.27 246.64 79.27Q245.8 79.27 245.1 78.95Q244.95 78.88 244.8 78.79Q244.44 78.57 244.15 78.28Q243.79 77.93 243.55 77.47Q243.1 76.63 243.1 75.52Q243.1 74.44 243.55 73.61Q243.82 73.1 244.22 72.72Q244.48 72.47 244.79 72.28Q244.91 72.2 245.04 72.14Q245.75 71.8 246.62 71.8Q247.56 71.8 248.29 72.19Q248.36 72.23 248.43 72.27Q248.76 72.46 249.02 72.72Q249.39 73.09 249.64 73.58Q250.07 74.42 250.07 75.54Q250.07 76.81 249.5 77.73Q249.34 77.99 249.12 78.23Q248.79 78.6 248.38 78.84Z" fill="#000000" fill-opacity="1.000000" fill-rule="evenodd"/>
		<g clip-path="url(#clip184_7491)">
			<path id="Exit" d="M42.6008 70.9998L35.4971 78.1033C34.8347 78.7659 34.8347 79.8401 35.4971 80.5027C36.1597 81.1653 37.2339 81.1653 37.8965 80.5027L45 73.3992L52.104 80.5029C52.7666 81.1655 53.8408 81.1655 54.5034 80.5029C55.166 79.8406 55.166 78.7661 54.5034 78.1038L47.3994 70.9998L54.5029 63.8962C55.1655 63.2336 55.1655 62.1594 54.5029 61.4968C53.8403 60.8345 52.7661 60.8345 52.1035 61.4968L45 68.6003L37.897 61.4973C37.2344 60.8347 36.1602 60.8347 35.4976 61.4973C34.835 62.1599 34.835 63.2341 35.4976 63.8967L42.6008 70.9998Z" clip-rule="evenodd" fill="#000000" fill-opacity="1.000000" fill-rule="evenodd"/>
		</g>
		<rect id="Rectangle 44" x="55.000000" y="837.000000" width="100.000000" height="50.000000" fill="#FFFFFF" fill-opacity="1.000000"/>
		<rect id="Rectangle 44" x="55.750000" y="837.750000" width="98.500000" height="48.500000" stroke="#000000" stroke-opacity="1.000000" stroke-width="1.500000"/>
		<path id="Back" d="M117.25 855.64L117.25 868.5L118.88 868.5L118.88 864.28L122.73 868.5L124.82 868.5L120.72 864.05L124.65 859.94L122.69 859.94L118.88 863.97L118.88 855.64L117.25 855.64ZM87.05 856L87.05 868.5L91.88 868.5Q93.19 868.5 94.1 868.02Q94.87 867.61 95.34 866.98Q95.42 866.87 95.49 866.75Q95.64 866.51 95.74 866.25Q95.98 865.65 95.98 864.97Q95.98 864.17 95.67 863.51Q95.52 863.19 95.3 862.91Q95.26 862.86 95.22 862.81Q94.72 862.2 93.93 861.82Q94.53 861.46 94.89 860.95Q95.05 860.73 95.17 860.48Q95.44 859.9 95.44 859.19Q95.44 858.67 95.29 858.2Q95.18 857.89 95.01 857.61Q94.95 857.5 94.89 857.41Q94.48 856.82 93.77 856.45Q92.95 856 91.73 856L87.05 856ZM88.74 857.48L88.74 861.19L91.77 861.19Q92.6 861.19 93.11 860.78Q93.15 860.75 93.19 860.71Q93.29 860.63 93.36 860.53Q93.73 860.08 93.73 859.33Q93.73 858.63 93.39 858.19Q93.29 858.06 93.17 857.96Q93.13 857.92 93.08 857.89Q92.55 857.48 91.7 857.48L88.74 857.48ZM88.74 862.66L88.74 867.02L91.96 867.02Q92.84 867.02 93.41 866.6Q93.54 866.5 93.66 866.38Q93.95 866.07 94.1 865.71Q94.27 865.31 94.27 864.84Q94.27 864.32 94.07 863.89Q94.04 863.81 93.99 863.74Q93.9 863.55 93.76 863.4Q93.54 863.13 93.21 862.95Q92.7 862.66 92.02 862.66L88.74 862.66ZM100.16 868.42Q100.84 868.68 101.61 868.68Q102.6 868.68 103.37 868.27Q103.79 868.05 104.12 867.73Q104.3 867.55 104.46 867.34L104.46 868.5L106.1 868.5L106.1 859.94L104.46 859.94L104.46 861.11Q104.3 860.91 104.12 860.73Q103.78 860.4 103.35 860.17Q103.32 860.15 103.28 860.14Q102.54 859.76 101.61 859.76Q100.78 859.76 100.06 860.06Q99.76 860.18 99.48 860.36Q99.12 860.59 98.82 860.87Q98.32 861.34 97.98 861.97Q97.91 862.1 97.84 862.24Q97.43 863.14 97.43 864.23Q97.43 865.32 97.85 866.23Q97.91 866.37 97.98 866.5Q98.31 867.1 98.78 867.55Q99.1 867.85 99.49 868.09Q99.81 868.29 100.16 868.42ZM110.6 868.34Q111.41 868.68 112.36 868.68Q113.16 868.68 113.88 868.43Q114.04 868.37 114.2 868.3Q114.78 868.05 115.23 867.66Q115.46 867.46 115.65 867.23L114.59 866.16Q114.37 866.41 114.1 866.6Q113.87 866.76 113.61 866.87Q113.04 867.11 112.36 867.11Q111.7 867.11 111.15 866.86Q111.03 866.8 110.92 866.73Q110.62 866.56 110.39 866.32Q110.12 866.05 109.93 865.71Q109.93 865.7 109.92 865.7Q109.57 865.05 109.57 864.21Q109.57 863.38 109.92 862.74Q109.92 862.73 109.93 862.72Q110.13 862.35 110.43 862.07Q110.65 861.86 110.92 861.7Q111.01 861.65 111.11 861.6Q111.67 861.33 112.36 861.33Q113.04 861.33 113.61 861.57Q113.9 861.7 114.15 861.88Q114.38 862.06 114.57 862.29L115.65 861.2Q115.31 860.82 114.9 860.53Q114.57 860.3 114.19 860.13Q114.12 860.1 114.04 860.07Q113.26 859.76 112.36 859.76Q111.4 859.76 110.58 860.11Q110.32 860.21 110.08 860.35Q109.56 860.65 109.15 861.07Q108.76 861.46 108.48 861.94Q108.36 862.15 108.26 862.38Q107.89 863.21 107.89 864.21Q107.89 865.1 108.19 865.87Q108.31 866.18 108.48 866.47Q108.77 866.97 109.16 867.37Q109.57 867.78 110.08 868.08Q110.33 868.23 110.6 868.34ZM103.24 866.81Q102.66 867.15 101.88 867.15Q101.22 867.15 100.68 866.89Q100.56 866.84 100.44 866.77Q100.16 866.6 99.93 866.37Q99.65 866.09 99.46 865.74Q99.11 865.08 99.11 864.21Q99.11 863.37 99.46 862.71Q99.67 862.31 99.98 862.02Q100.19 861.82 100.43 861.68Q100.53 861.62 100.63 861.57Q101.18 861.3 101.86 861.3Q102.6 861.3 103.17 861.6Q103.23 861.63 103.28 861.67Q103.54 861.82 103.75 862.02Q104.04 862.31 104.23 862.69Q104.56 863.35 104.56 864.23Q104.56 865.22 104.12 865.94Q103.99 866.14 103.82 866.33Q103.56 866.62 103.24 866.81Z" fill="#000000" fill-opacity="1.000000" fill-rule="evenodd"/>
		<g opacity="0.400000">
			<rect id="Rectangle 44" x="55.000000" y="777.000000" width="320.000000" height="50.000000" fill="url(#paint_linear_184_7497_0)" fill-opacity="1.000000"/>
			<path id="Load Avatar" d="M203.92 808.5L205.56 808.5L205.56 795.64L203.92 795.64L203.92 801.13Q203.77 800.92 203.59 800.75Q203.24 800.41 202.79 800.17Q202.68 800.12 202.57 800.07Q201.88 799.76 201.06 799.76Q200.21 799.76 199.48 800.07Q199.2 800.19 198.93 800.36Q198.6 800.57 198.32 800.83Q197.8 801.31 197.45 801.97Q197.37 802.1 197.31 802.24Q196.9 803.14 196.9 804.23Q196.9 805.32 197.31 806.23Q197.38 806.37 197.45 806.5Q197.8 807.15 198.32 807.63Q198.6 807.89 198.93 808.09Q199.17 808.24 199.43 808.35Q200.17 808.68 201.06 808.68Q201.98 808.68 202.73 808.31Q202.77 808.29 202.81 808.27Q203.24 808.04 203.58 807.71Q203.77 807.53 203.92 807.32L203.92 808.5ZM167.49 796L167.49 808.5L175.34 808.5L175.34 806.95L169.18 806.95L169.18 796L167.49 796ZM215.64 796L210.53 808.5L212.33 808.5L213.46 805.67L219 805.67L220.12 808.5L221.96 808.5L216.86 796L215.64 796ZM218.41 804.19L216.24 798.72L214.05 804.19L218.41 804.19ZM243.07 801.42L243.07 808.5L244.69 808.5L244.69 801.42L246.8 801.42L246.8 799.94L244.69 799.94L244.69 796.36L243.07 796.36L243.07 799.94L240.97 799.94L240.97 801.42L243.07 801.42ZM178.89 808.32Q179.71 808.68 180.68 808.68Q181.56 808.68 182.32 808.38Q182.64 808.26 182.94 808.08Q183.46 807.78 183.87 807.36Q184.27 806.97 184.55 806.47Q184.71 806.21 184.82 805.93Q185.15 805.13 185.15 804.19Q185.15 803.29 184.84 802.52Q184.72 802.22 184.55 801.94Q184.27 801.46 183.89 801.08Q183.47 800.66 182.94 800.35Q182.65 800.18 182.34 800.06Q181.57 799.76 180.68 799.76Q179.72 799.76 178.91 800.11Q178.66 800.22 178.42 800.36Q177.89 800.67 177.48 801.09Q177.1 801.47 176.81 801.95Q176.66 802.21 176.54 802.48Q176.22 803.27 176.22 804.19Q176.22 805.13 176.55 805.93Q176.66 806.21 176.81 806.47Q177.13 807.02 177.57 807.44Q177.95 807.81 178.42 808.08Q178.65 808.22 178.89 808.32ZM189.15 808.42Q189.83 808.68 190.6 808.68Q191.59 808.68 192.36 808.27Q192.78 808.05 193.11 807.73Q193.29 807.55 193.45 807.34L193.45 808.5L195.09 808.5L195.09 799.94L193.45 799.94L193.45 801.11Q193.29 800.91 193.11 800.73Q192.77 800.4 192.34 800.17Q192.31 800.15 192.27 800.14Q191.53 799.76 190.6 799.76Q189.77 799.76 189.05 800.06Q188.75 800.18 188.47 800.36Q188.11 800.59 187.8 800.87Q187.31 801.34 186.97 801.97Q186.9 802.1 186.83 802.24Q186.42 803.14 186.42 804.23Q186.42 805.32 186.84 806.23Q186.9 806.37 186.97 806.5Q187.3 807.1 187.77 807.55Q188.09 807.85 188.48 808.09Q188.8 808.29 189.15 808.42ZM233.5 808.42Q234.18 808.68 234.96 808.68Q235.94 808.68 236.71 808.27Q237.13 808.05 237.46 807.73Q237.64 807.55 237.8 807.34L237.8 808.5L239.44 808.5L239.44 799.94L237.8 799.94L237.8 801.11Q237.64 800.91 237.46 800.73Q237.12 800.4 236.69 800.17Q236.66 800.15 236.62 800.14Q235.88 799.76 234.96 799.76Q234.12 799.76 233.41 800.06Q233.1 800.18 232.82 800.36Q232.46 800.59 232.16 800.87Q231.67 801.34 231.33 801.97Q231.25 802.1 231.19 802.24Q230.78 803.14 230.78 804.23Q230.78 805.32 231.19 806.23Q231.25 806.37 231.33 806.5Q231.65 807.1 232.12 807.55Q232.44 807.85 232.83 808.09Q233.15 808.29 233.5 808.42ZM250.29 808.42Q250.97 808.68 251.75 808.68Q252.74 808.68 253.5 808.27Q253.92 808.05 254.25 807.73Q254.44 807.55 254.59 807.34L254.59 808.5L256.23 808.5L256.23 799.94L254.59 799.94L254.59 801.11Q254.44 800.91 254.25 800.73Q253.92 800.4 253.48 800.17Q253.45 800.15 253.42 800.14Q252.68 799.76 251.75 799.76Q250.91 799.76 250.2 800.06Q249.9 800.18 249.61 800.36Q249.25 800.59 248.95 800.87Q248.46 801.34 248.12 801.97Q248.04 802.1 247.98 802.24Q247.57 803.14 247.57 804.23Q247.57 805.32 247.98 806.23Q248.05 806.37 248.12 806.5Q248.44 807.1 248.91 807.55Q249.23 807.85 249.62 808.09Q249.95 808.29 250.29 808.42ZM260.21 803.62L260.21 808.5L258.59 808.5L258.59 799.94L260.21 799.94L260.21 800.94Q260.28 800.84 260.35 800.74Q260.6 800.42 260.91 800.21Q261.57 799.76 262.53 799.76Q263.18 799.76 263.7 799.99Q264.22 800.22 264.67 800.74L263.61 801.83Q263.34 801.55 263.02 801.42Q262.69 801.3 262.26 801.3Q261.66 801.3 261.2 801.56Q260.97 801.68 260.78 801.87Q260.21 802.45 260.21 803.62ZM221.45 799.94L225.38 808.5L226.33 808.5L230.26 799.94L228.53 799.94L225.88 805.97L223.26 799.94L221.45 799.94ZM192.23 806.81Q191.65 807.15 190.87 807.15Q190.21 807.15 189.67 806.89Q189.54 806.84 189.43 806.77Q189.15 806.6 188.92 806.37Q188.64 806.09 188.45 805.74Q188.1 805.08 188.1 804.21Q188.1 803.37 188.45 802.71Q188.66 802.31 188.97 802.02Q189.18 801.82 189.42 801.68Q189.52 801.62 189.62 801.57Q190.17 801.3 190.85 801.3Q191.59 801.3 192.16 801.6Q192.22 801.63 192.27 801.67Q192.53 801.82 192.73 802.02Q193.02 802.31 193.22 802.69Q193.55 803.35 193.55 804.23Q193.55 805.22 193.11 805.94Q192.98 806.14 192.81 806.33Q192.55 806.62 192.23 806.81ZM202.62 806.84Q202.06 807.15 201.33 807.15Q200.65 807.15 200.1 806.88Q199.99 806.83 199.9 806.77Q199.64 806.61 199.43 806.41Q199.13 806.12 198.93 805.74Q198.57 805.08 198.57 804.21Q198.57 803.37 198.93 802.71Q199.15 802.29 199.49 801.98Q199.67 801.81 199.89 801.68Q199.97 801.63 200.05 801.58Q200.61 801.3 201.31 801.3Q202.04 801.3 202.6 801.6Q202.66 801.64 202.72 801.68Q202.96 801.82 203.15 802.01Q203.46 802.3 203.68 802.7Q204.03 803.35 204.03 804.23Q204.03 805.08 203.69 805.74Q203.48 806.14 203.17 806.43Q202.98 806.62 202.74 806.77Q202.68 806.81 202.62 806.84ZM236.58 806.81Q236 807.15 235.22 807.15Q234.56 807.15 234.02 806.89Q233.9 806.84 233.78 806.77Q233.5 806.6 233.27 806.37Q232.99 806.09 232.8 805.74Q232.45 805.08 232.45 804.21Q232.45 803.37 232.8 802.71Q233.01 802.31 233.32 802.02Q233.53 801.82 233.77 801.68Q233.87 801.62 233.97 801.57Q234.52 801.3 235.21 801.3Q235.94 801.3 236.52 801.6Q236.57 801.63 236.63 801.67Q236.88 801.82 237.09 802.02Q237.38 802.31 237.57 802.69Q237.9 803.35 237.9 804.23Q237.9 805.22 237.46 805.94Q237.33 806.14 237.17 806.33Q236.9 806.62 236.58 806.81ZM253.37 806.81Q252.79 807.15 252.02 807.15Q251.36 807.15 250.81 806.89Q250.69 806.84 250.58 806.77Q250.29 806.6 250.06 806.37Q249.79 806.09 249.6 805.74Q249.24 805.08 249.24 804.21Q249.24 803.37 249.6 802.71Q249.81 802.31 250.12 802.02Q250.32 801.82 250.57 801.68Q250.66 801.62 250.77 801.57Q251.32 801.3 252 801.3Q252.74 801.3 253.31 801.6Q253.37 801.63 253.42 801.67Q253.67 801.82 253.88 802.02Q254.17 802.31 254.36 802.69Q254.7 803.35 254.7 804.23Q254.7 805.22 254.25 805.94Q254.13 806.14 253.96 806.33Q253.7 806.62 253.37 806.81ZM181.9 806.85Q181.36 807.11 180.68 807.11Q180.02 807.11 179.48 806.86Q179.36 806.8 179.24 806.73Q178.97 806.57 178.75 806.36Q178.46 806.07 178.25 805.7Q178.24 805.68 178.23 805.66Q177.89 805.01 177.89 804.19Q177.89 803.44 178.2 802.83Q178.22 802.77 178.25 802.72Q178.46 802.35 178.75 802.07Q178.97 801.86 179.24 801.7Q179.34 801.65 179.44 801.6Q180 801.33 180.68 801.33Q181.4 801.33 181.97 801.62Q182.04 801.66 182.11 801.7Q182.35 801.84 182.55 802.03Q182.88 802.32 183.1 802.72Q183.15 802.8 183.19 802.88Q183.47 803.46 183.47 804.19Q183.47 805.01 183.14 805.66Q183.12 805.68 183.11 805.7Q182.91 806.06 182.63 806.34Q182.4 806.56 182.12 806.73Q182.01 806.8 181.9 806.85Z" fill="#FFFFFF" fill-opacity="1.000000" fill-rule="evenodd"/>
		</g>
		<rect id="Rectangle 44" x="165.000000" y="837.000000" width="210.000000" height="50.000000" fill="#000000" fill-opacity="1.000000"/>
		<path id="Create New Avatar" d="M200.03 868.23Q201.13 868.68 202.41 868.68Q203.87 868.68 205.03 868.17Q205.71 867.88 206.29 867.45Q206.7 867.14 207.06 866.77L205.89 865.62Q205.8 865.72 205.69 865.82Q205.16 866.34 204.43 866.67Q203.57 867.05 202.4 867.05Q201.41 867.05 200.58 866.71Q200.13 866.52 199.75 866.24Q199.42 866.01 199.14 865.71Q199.05 865.62 198.98 865.53Q198.48 864.94 198.19 864.18Q197.86 863.29 197.86 862.25Q197.86 861.2 198.19 860.33Q198.49 859.55 198.99 858.95Q199.06 858.87 199.14 858.8Q199.43 858.48 199.78 858.24Q200.15 857.98 200.58 857.79Q201.41 857.44 202.4 857.44Q203.5 857.44 204.35 857.82Q205 858.11 205.49 858.56Q205.65 858.7 205.8 858.87L206.97 857.69Q206.58 857.3 206.13 856.98Q205.6 856.6 204.99 856.33Q203.87 855.82 202.4 855.82Q201.1 855.82 199.99 856.28Q199.95 856.3 199.9 856.32Q199.2 856.63 198.6 857.08Q198.23 857.36 197.91 857.69Q197.67 857.93 197.46 858.2Q196.92 858.89 196.58 859.73Q196.58 859.73 196.58 859.74Q196.12 860.9 196.12 862.25Q196.12 863.44 196.49 864.49Q196.53 864.62 196.58 864.75Q196.9 865.54 197.39 866.2Q197.63 866.52 197.91 866.8Q198.23 867.14 198.59 867.42Q199.2 867.87 199.91 868.18Q199.97 868.21 200.03 868.23ZM255.91 856L255.91 868.5L257.6 868.5L257.6 859.21L264.55 868.5L265.74 868.5L265.74 856L264.04 856L264.04 865.25L257.1 856L255.91 856ZM299.16 856L294.05 868.5L295.85 868.5L296.99 865.67L302.52 865.67L303.65 868.5L305.48 868.5L300.39 856L299.16 856ZM301.94 864.19L299.77 858.72L297.57 864.19L301.94 864.19ZM237.19 861.42L237.19 868.5L238.81 868.5L238.81 861.42L240.92 861.42L240.92 859.94L238.81 859.94L238.81 856.36L237.19 856.36L237.19 859.94L235.08 859.94L235.08 861.42L237.19 861.42ZM326.59 861.42L326.59 868.5L328.22 868.5L328.22 861.42L330.32 861.42L330.32 859.94L328.22 859.94L328.22 856.36L326.59 856.36L326.59 859.94L324.49 859.94L324.49 861.42L326.59 861.42ZM210.46 863.62L210.46 868.5L208.84 868.5L208.84 859.94L210.46 859.94L210.46 860.94Q210.53 860.84 210.61 860.74Q210.85 860.42 211.16 860.21Q211.82 859.76 212.78 859.76Q213.43 859.76 213.95 859.99Q214.47 860.22 214.93 860.74L213.86 861.83Q213.59 861.55 213.27 861.42Q212.94 861.3 212.51 861.3Q211.91 861.3 211.45 861.56Q211.23 861.68 211.04 861.87Q210.46 862.45 210.46 863.62ZM217.91 868.32Q218.75 868.68 219.75 868.68Q220.54 868.68 221.26 868.44Q221.46 868.38 221.64 868.3Q222.18 868.07 222.62 867.72Q222.91 867.48 223.15 867.2L222.11 866.14Q221.87 866.41 221.59 866.61Q221.35 866.78 221.07 866.9Q220.47 867.15 219.75 867.15Q218.92 867.15 218.27 866.81Q218.24 866.79 218.22 866.78Q217.9 866.6 217.64 866.35Q217.38 866.08 217.19 865.74Q216.97 865.32 216.89 864.82L223.58 864.82Q223.64 864.55 223.65 864.35Q223.67 864.14 223.67 863.96Q223.67 862.83 223.22 861.92Q223.19 861.86 223.16 861.8Q222.86 861.25 222.44 860.84Q222.12 860.53 221.74 860.3Q221.64 860.25 221.54 860.19Q220.7 859.76 219.64 859.76Q218.71 859.76 217.91 860.1Q217.65 860.21 217.4 860.35Q216.93 860.63 216.56 860.99Q216.13 861.41 215.81 861.94Q215.69 862.15 215.59 862.38Q215.23 863.21 215.23 864.21Q215.23 865.25 215.62 866.1Q215.71 866.31 215.82 866.5Q216.1 866.98 216.48 867.36Q216.9 867.78 217.44 868.09Q217.67 868.22 217.91 868.32ZM216.89 863.47Q216.97 863.01 217.18 862.63Q217.36 862.27 217.64 862Q217.86 861.78 218.15 861.62Q218.16 861.61 218.17 861.61Q218.79 861.26 219.61 861.26Q220.4 861.26 220.96 861.59Q221.17 861.72 221.35 861.89Q221.63 862.16 221.82 862.53Q222.03 862.94 222.09 863.47L216.89 863.47ZM227.62 868.42Q228.3 868.68 229.07 868.68Q230.06 868.68 230.83 868.27Q231.25 868.05 231.58 867.73Q231.76 867.55 231.92 867.34L231.92 868.5L233.56 868.5L233.56 859.94L231.92 859.94L231.92 861.11Q231.76 860.91 231.58 860.73Q231.24 860.4 230.81 860.17Q230.78 860.15 230.74 860.14Q230 859.76 229.07 859.76Q228.24 859.76 227.52 860.06Q227.22 860.18 226.94 860.36Q226.58 860.59 226.28 860.87Q225.78 861.34 225.44 861.97Q225.37 862.1 225.3 862.24Q224.89 863.14 224.89 864.23Q224.89 865.32 225.31 866.23Q225.37 866.37 225.44 866.5Q225.77 867.1 226.24 867.55Q226.56 867.85 226.95 868.09Q227.27 868.29 227.62 868.42ZM244.35 868.32Q245.19 868.68 246.19 868.68Q246.98 868.68 247.7 868.44Q247.9 868.38 248.09 868.3Q248.63 868.07 249.06 867.72Q249.35 867.48 249.59 867.2L248.55 866.14Q248.31 866.41 248.03 866.61Q247.79 866.78 247.51 866.9Q246.91 867.15 246.19 867.15Q245.36 867.15 244.71 866.81Q244.69 866.79 244.66 866.78Q244.34 866.6 244.09 866.35Q243.82 866.08 243.64 865.74Q243.41 865.32 243.33 864.82L250.02 864.82Q250.08 864.55 250.1 864.35Q250.11 864.14 250.11 863.96Q250.11 862.83 249.66 861.92Q249.63 861.86 249.6 861.8Q249.31 861.25 248.88 860.84Q248.57 860.53 248.18 860.3Q248.08 860.25 247.98 860.19Q247.14 859.76 246.08 859.76Q245.15 859.76 244.35 860.1Q244.09 860.21 243.84 860.35Q243.38 860.63 243 860.99Q242.57 861.41 242.26 861.94Q242.13 862.15 242.04 862.38Q241.67 863.21 241.67 864.21Q241.67 865.25 242.06 866.1Q242.15 866.31 242.26 866.5Q242.55 866.98 242.92 867.36Q243.35 867.78 243.89 868.09Q244.11 868.22 244.35 868.32ZM243.33 863.47Q243.42 863.01 243.62 862.63Q243.81 862.27 244.08 862Q244.3 861.78 244.59 861.62Q244.6 861.61 244.61 861.61Q245.23 861.26 246.05 861.26Q246.84 861.26 247.4 861.59Q247.61 861.72 247.79 861.89Q248.07 862.16 248.26 862.53Q248.47 862.94 248.53 863.47L243.33 863.47ZM270.52 868.32Q271.37 868.68 272.36 868.68Q273.16 868.68 273.88 868.44Q274.07 868.38 274.26 868.3Q274.8 868.07 275.24 867.72Q275.52 867.48 275.77 867.2L274.72 866.14Q274.49 866.41 274.2 866.61Q273.96 866.78 273.68 866.9Q273.08 867.15 272.36 867.15Q271.53 867.15 270.89 866.81Q270.86 866.79 270.83 866.78Q270.51 866.6 270.26 866.35Q269.99 866.08 269.81 865.74Q269.59 865.32 269.5 864.82L276.2 864.82Q276.25 864.55 276.27 864.35Q276.28 864.14 276.28 863.96Q276.28 862.83 275.84 861.92Q275.8 861.86 275.77 861.8Q275.48 861.25 275.05 860.84Q274.74 860.53 274.35 860.3Q274.25 860.25 274.15 860.19Q273.31 859.76 272.26 859.76Q271.32 859.76 270.53 860.1Q270.26 860.21 270.01 860.35Q269.55 860.63 269.17 860.99Q268.74 861.41 268.43 861.94Q268.31 862.15 268.21 862.38Q267.84 863.21 267.84 864.21Q267.84 865.25 268.23 866.1Q268.32 866.31 268.44 866.5Q268.72 866.98 269.1 867.36Q269.52 867.78 270.06 868.09Q270.28 868.22 270.52 868.32ZM269.5 863.47Q269.59 863.01 269.79 862.63Q269.98 862.27 270.25 862Q270.48 861.78 270.76 861.62Q270.77 861.61 270.78 861.61Q271.4 861.26 272.22 861.26Q273.01 861.26 273.57 861.59Q273.78 861.72 273.96 861.89Q274.24 862.16 274.43 862.53Q274.64 862.94 274.71 863.47L269.5 863.47ZM317.02 868.42Q317.7 868.68 318.48 868.68Q319.47 868.68 320.23 868.27Q320.65 868.05 320.98 867.73Q321.17 867.55 321.32 867.34L321.32 868.5L322.96 868.5L322.96 859.94L321.32 859.94L321.32 861.11Q321.17 860.91 320.99 860.73Q320.65 860.4 320.22 860.17Q320.18 860.15 320.15 860.14Q319.41 859.76 318.48 859.76Q317.64 859.76 316.93 860.06Q316.63 860.18 316.34 860.36Q315.98 860.59 315.68 860.87Q315.19 861.34 314.85 861.97Q314.77 862.1 314.71 862.24Q314.3 863.14 314.3 864.23Q314.3 865.32 314.71 866.23Q314.78 866.37 314.85 866.5Q315.18 867.1 315.64 867.55Q315.96 867.85 316.35 868.09Q316.68 868.29 317.02 868.42ZM333.82 868.42Q334.5 868.68 335.27 868.68Q336.26 868.68 337.03 868.27Q337.45 868.05 337.78 867.73Q337.96 867.55 338.12 867.34L338.12 868.5L339.76 868.5L339.76 859.94L338.12 859.94L338.12 861.11Q337.96 860.91 337.78 860.73Q337.44 860.4 337.01 860.17Q336.98 860.15 336.94 860.14Q336.2 859.76 335.27 859.76Q334.44 859.76 333.72 860.06Q333.42 860.18 333.14 860.36Q332.78 860.59 332.48 860.87Q331.98 861.34 331.64 861.97Q331.57 862.1 331.5 862.24Q331.09 863.14 331.09 864.23Q331.09 865.32 331.51 866.23Q331.57 866.37 331.64 866.5Q331.97 867.1 332.44 867.55Q332.76 867.85 333.15 868.09Q333.47 868.29 333.82 868.42ZM343.73 863.62L343.73 868.5L342.11 868.5L342.11 859.94L343.73 859.94L343.73 860.94Q343.8 860.84 343.88 860.74Q344.12 860.42 344.44 860.21Q345.09 859.76 346.05 859.76Q346.7 859.76 347.22 859.99Q347.74 860.22 348.2 860.74L347.13 861.83Q346.87 861.55 346.54 861.42Q346.22 861.3 345.78 861.3Q345.18 861.3 344.72 861.56Q344.5 861.68 344.31 861.87Q343.73 862.45 343.73 863.62ZM277 859.94L280.39 868.5L281.32 868.5L283.51 862.81L285.68 868.5L286.64 868.5L290 859.94L288.31 859.94L286.13 865.87L283.97 859.94L283.04 859.94L280.88 865.87L278.7 859.94L277 859.94ZM304.98 859.94L308.9 868.5L309.86 868.5L313.78 859.94L312.05 859.94L309.41 865.97L306.78 859.94L304.98 859.94ZM230.7 866.81Q230.12 867.15 229.34 867.15Q228.68 867.15 228.14 866.89Q228.02 866.84 227.9 866.77Q227.62 866.6 227.39 866.37Q227.11 866.09 226.92 865.74Q226.57 865.08 226.57 864.21Q226.57 863.37 226.92 862.71Q227.13 862.31 227.44 862.02Q227.65 861.82 227.89 861.68Q227.99 861.62 228.09 861.57Q228.64 861.3 229.32 861.3Q230.06 861.3 230.63 861.6Q230.69 861.63 230.74 861.67Q231 861.82 231.2 862.02Q231.5 862.31 231.69 862.69Q232.02 863.35 232.02 864.23Q232.02 865.22 231.58 865.94Q231.45 866.14 231.28 866.33Q231.02 866.62 230.7 866.81ZM320.1 866.81Q319.52 867.15 318.75 867.15Q318.09 867.15 317.54 866.89Q317.42 866.84 317.31 866.77Q317.02 866.6 316.79 866.37Q316.52 866.09 316.33 865.74Q315.97 865.08 315.97 864.21Q315.97 863.37 316.33 862.71Q316.54 862.31 316.85 862.02Q317.05 861.82 317.3 861.68Q317.4 861.62 317.5 861.57Q318.05 861.3 318.73 861.3Q319.47 861.3 320.04 861.6Q320.1 861.63 320.15 861.67Q320.4 861.82 320.61 862.02Q320.9 862.31 321.09 862.69Q321.43 863.35 321.43 864.23Q321.43 865.22 320.98 865.94Q320.86 866.14 320.69 866.33Q320.43 866.62 320.1 866.81ZM336.9 866.81Q336.32 867.15 335.54 867.15Q334.88 867.15 334.34 866.89Q334.22 866.84 334.1 866.77Q333.82 866.6 333.59 866.37Q333.31 866.09 333.12 865.74Q332.77 865.08 332.77 864.21Q332.77 863.37 333.12 862.71Q333.33 862.31 333.64 862.02Q333.85 861.82 334.09 861.68Q334.19 861.62 334.29 861.57Q334.84 861.3 335.52 861.3Q336.26 861.3 336.83 861.6Q336.89 861.63 336.94 861.67Q337.2 861.82 337.4 862.02Q337.7 862.31 337.89 862.69Q338.22 863.35 338.22 864.23Q338.22 865.22 337.78 865.94Q337.65 866.14 337.48 866.33Q337.22 866.62 336.9 866.81Z" fill="#FFFFFF" fill-opacity="1.000000" fill-rule="evenodd"/>
		<rect id="Rectangle 44" x="55.000000" y="126.000000" width="320.000000" height="40.000000" fill="#000000" fill-opacity="1.000000"/>
		<rect id="Rectangle 44" x="55.750000" y="126.750000" width="318.500000" height="38.500000" stroke="#000000" stroke-opacity="1.000000" stroke-width="1.500000"/>
		<path id="Avatar Name 1" d="M162.16 140L157.05 152.5L158.86 152.5L159.99 149.67L165.53 149.67L166.65 152.5L168.48 152.5L163.39 140L162.16 140ZM164.94 148.19L162.77 142.72L160.58 148.19L164.94 148.19ZM216.69 140L216.69 152.5L218.38 152.5L218.38 143.21L225.33 152.5L226.51 152.5L226.51 140L224.82 140L224.82 149.25L217.87 140L216.69 140ZM267.81 140L267.81 141.51L270.37 141.51L270.37 152.5L272.04 152.5L272.04 140L267.81 140ZM189.6 145.42L189.6 152.5L191.22 152.5L191.22 145.42L193.32 145.42L193.32 143.94L191.22 143.94L191.22 140.36L189.6 140.36L189.6 143.94L187.49 143.94L187.49 145.42L189.6 145.42ZM180.03 152.42Q180.7 152.67 181.48 152.67Q182.47 152.67 183.23 152.27Q183.66 152.05 183.98 151.73Q184.17 151.55 184.32 151.34L184.32 152.5L185.96 152.5L185.96 143.94L184.32 143.94L184.32 145.11Q184.17 144.91 183.99 144.73Q183.65 144.4 183.22 144.17Q183.18 144.15 183.15 144.14Q182.41 143.76 181.48 143.76Q180.65 143.76 179.93 144.06Q179.63 144.18 179.34 144.36Q178.98 144.59 178.68 144.87Q178.19 145.34 177.85 145.97Q177.78 146.1 177.71 146.24Q177.3 147.14 177.3 148.23Q177.3 149.32 177.71 150.23Q177.78 150.37 177.85 150.5Q178.18 151.1 178.64 151.55Q178.97 151.85 179.35 152.09Q179.68 152.29 180.03 152.42ZM196.82 152.42Q197.5 152.67 198.27 152.67Q199.26 152.67 200.03 152.27Q200.45 152.05 200.78 151.73Q200.96 151.55 201.12 151.34L201.12 152.5L202.76 152.5L202.76 143.94L201.12 143.94L201.12 145.11Q200.96 144.91 200.78 144.73Q200.44 144.4 200.01 144.17Q199.98 144.15 199.94 144.14Q199.2 143.76 198.27 143.76Q197.44 143.76 196.72 144.06Q196.42 144.18 196.14 144.36Q195.78 144.59 195.48 144.87Q194.98 145.34 194.64 145.97Q194.57 146.1 194.51 146.24Q194.1 147.14 194.1 148.23Q194.1 149.32 194.51 150.23Q194.57 150.37 194.64 150.5Q194.97 151.1 195.44 151.55Q195.76 151.85 196.15 152.09Q196.47 152.29 196.82 152.42ZM206.73 147.62L206.73 152.5L205.11 152.5L205.11 143.94L206.73 143.94L206.73 144.94Q206.8 144.84 206.88 144.74Q207.12 144.42 207.44 144.21Q208.09 143.76 209.05 143.76Q209.7 143.76 210.22 143.99Q210.75 144.22 211.2 144.74L210.13 145.83Q209.87 145.55 209.54 145.42Q209.22 145.3 208.79 145.3Q208.18 145.3 207.72 145.56Q207.5 145.68 207.31 145.87Q206.73 146.45 206.73 147.62ZM231.36 152.42Q232.04 152.67 232.82 152.67Q233.81 152.67 234.57 152.27Q234.99 152.05 235.32 151.73Q235.5 151.55 235.66 151.34L235.66 152.5L237.3 152.5L237.3 143.94L235.66 143.94L235.66 145.11Q235.51 144.91 235.32 144.73Q234.99 144.4 234.55 144.17Q234.52 144.15 234.49 144.14Q233.75 143.76 232.82 143.76Q231.98 143.76 231.27 144.06Q230.96 144.18 230.68 144.36Q230.32 144.59 230.02 144.87Q229.53 145.34 229.19 145.97Q229.11 146.1 229.05 146.24Q228.64 147.14 228.64 148.23Q228.64 149.32 229.05 150.23Q229.11 150.37 229.19 150.5Q229.51 151.1 229.98 151.55Q230.3 151.85 230.69 152.09Q231.01 152.29 231.36 152.42ZM245.43 147.33L245.43 152.5L247.05 152.5L247.05 147.31Q247.05 146.69 247.34 146.24L247.34 146.23Q247.49 146 247.68 145.83Q247.87 145.65 248.1 145.53Q248.16 145.5 248.21 145.48Q248.65 145.28 249.18 145.28Q249.73 145.28 250.17 145.5Q250.42 145.63 250.63 145.83Q250.76 145.96 250.87 146.11Q251.21 146.6 251.21 147.33L251.21 152.5L252.85 152.5L252.85 147.01Q252.85 146 252.41 145.28Q252.17 144.9 251.86 144.61Q251.58 144.35 251.23 144.16Q251.18 144.14 251.12 144.11Q250.43 143.76 249.55 143.76Q248.93 143.76 248.37 143.96Q248.13 144.05 247.9 144.17Q247.52 144.37 247.22 144.65Q246.9 144.93 246.66 145.29Q246.65 145.3 246.65 145.31Q246.64 145.3 246.63 145.28Q246.41 144.9 246.1 144.62Q245.83 144.35 245.48 144.16Q245.35 144.1 245.22 144.04Q244.6 143.76 243.85 143.76Q243.09 143.76 242.45 144.04Q242.32 144.1 242.19 144.17Q241.81 144.38 241.51 144.68Q241.39 144.8 241.28 144.94L241.28 143.94L239.65 143.94L239.65 152.5L241.28 152.5L241.28 147.31Q241.28 146.69 241.56 146.24L241.56 146.23Q241.73 145.98 241.94 145.79Q242.11 145.64 242.32 145.53Q242.35 145.51 242.38 145.5Q242.82 145.28 243.38 145.28Q243.98 145.28 244.44 145.53Q244.66 145.65 244.85 145.83Q244.98 145.96 245.09 146.11Q245.43 146.6 245.43 147.33ZM257.17 152.32Q258.01 152.67 259 152.67Q259.8 152.67 260.52 152.44Q260.71 152.38 260.9 152.3Q261.44 152.07 261.88 151.72Q262.17 151.48 262.41 151.2L261.36 150.14Q261.13 150.41 260.84 150.61Q260.6 150.78 260.33 150.89Q259.72 151.15 259 151.15Q258.18 151.15 257.53 150.81Q257.5 150.79 257.47 150.78Q257.15 150.6 256.9 150.35Q256.64 150.08 256.45 149.74Q256.23 149.32 256.14 148.82L262.84 148.82Q262.89 148.55 262.91 148.35Q262.93 148.14 262.93 147.96Q262.93 146.83 262.48 145.92Q262.45 145.86 262.41 145.8Q262.12 145.25 261.7 144.84Q261.38 144.53 260.99 144.3Q260.89 144.24 260.79 144.19Q259.95 143.76 258.9 143.76Q257.96 143.76 257.17 144.1Q256.9 144.21 256.66 144.35Q256.19 144.63 255.81 144.99Q255.38 145.41 255.07 145.94Q254.95 146.15 254.85 146.38Q254.49 147.21 254.49 148.21Q254.49 149.25 254.87 150.1Q254.97 150.31 255.08 150.5Q255.36 150.98 255.74 151.36Q256.16 151.78 256.7 152.09Q256.93 152.22 257.17 152.32ZM256.15 147.47Q256.23 147.01 256.43 146.63Q256.62 146.27 256.89 146Q257.12 145.78 257.4 145.62Q257.41 145.61 257.42 145.61Q258.05 145.26 258.86 145.26Q259.65 145.26 260.21 145.59Q260.43 145.72 260.6 145.89Q260.89 146.16 261.07 146.53Q261.28 146.94 261.35 147.47L256.15 147.47ZM167.98 143.94L171.9 152.5L172.86 152.5L176.78 143.94L175.05 143.94L172.41 149.97L169.78 143.94L167.98 143.94ZM183.1 150.81Q182.52 151.15 181.75 151.15Q181.09 151.15 180.54 150.89Q180.42 150.84 180.31 150.77Q180.02 150.6 179.8 150.37Q179.52 150.09 179.33 149.74Q178.98 149.08 178.98 148.21Q178.98 147.37 179.33 146.71Q179.54 146.31 179.85 146.02Q180.05 145.82 180.3 145.67Q180.4 145.62 180.5 145.57Q181.05 145.3 181.73 145.3Q182.47 145.3 183.04 145.6Q183.1 145.63 183.15 145.67Q183.41 145.82 183.61 146.02Q183.9 146.31 184.1 146.69Q184.43 147.35 184.43 148.23Q184.43 149.22 183.99 149.94Q183.86 150.14 183.69 150.33Q183.43 150.62 183.1 150.81ZM199.9 150.81Q199.32 151.15 198.54 151.15Q197.88 151.15 197.34 150.89Q197.22 150.84 197.1 150.77Q196.82 150.6 196.59 150.37Q196.31 150.09 196.12 149.74Q195.77 149.08 195.77 148.21Q195.77 147.37 196.12 146.71Q196.33 146.31 196.64 146.02Q196.85 145.82 197.09 145.67Q197.19 145.62 197.29 145.57Q197.84 145.3 198.53 145.3Q199.26 145.3 199.84 145.6Q199.89 145.63 199.94 145.67Q200.2 145.82 200.41 146.02Q200.7 146.31 200.89 146.69Q201.22 147.35 201.22 148.23Q201.22 149.22 200.78 149.94Q200.65 150.14 200.49 150.33Q200.22 150.62 199.9 150.81ZM234.44 150.81Q233.86 151.15 233.08 151.15Q232.42 151.15 231.88 150.89Q231.76 150.84 231.64 150.77Q231.36 150.6 231.13 150.37Q230.86 150.09 230.66 149.74Q230.31 149.08 230.31 148.21Q230.31 147.37 230.66 146.71Q230.88 146.31 231.19 146.02Q231.39 145.82 231.63 145.67Q231.73 145.62 231.83 145.57Q232.38 145.3 233.07 145.3Q233.8 145.3 234.38 145.6Q234.43 145.63 234.49 145.67Q234.74 145.82 234.95 146.02Q235.24 146.31 235.43 146.69Q235.77 147.35 235.77 148.23Q235.77 149.22 235.32 149.94Q235.19 150.14 235.03 150.33Q234.76 150.62 234.44 150.81Z" fill="#FFFFFF" fill-opacity="1.000000" fill-rule="evenodd"/>
		<rect id="Rectangle 44" x="55.000000" y="186.000000" width="320.000000" height="40.000000" fill="#FFFFFF" fill-opacity="1.000000"/>
		<rect id="Rectangle 44" x="55.750000" y="186.750000" width="318.500000" height="38.500000" stroke="#000000" stroke-opacity="1.000000" stroke-width="1.500000"/>
		<path id="Avatar Name 2" d="M270.71 206.61L266.1 211.47L266.1 212.5L274.49 212.5L274.49 210.98L268.71 210.98L272.02 207.58Q272.86 206.7 273.34 206.06Q273.82 205.42 274.01 204.81Q274.2 204.2 274.2 203.43Q274.2 202.35 273.73 201.54L273.73 201.54Q273.54 201.21 273.29 200.94Q272.92 200.54 272.4 200.27Q271.55 199.82 270.4 199.82Q269.18 199.82 268.22 200.32Q268.1 200.38 267.99 200.45Q266.94 201.07 266.21 202.29L267.39 203.28Q267.95 202.33 268.67 201.87Q268.79 201.79 268.92 201.73Q269.55 201.41 270.35 201.41Q271.15 201.41 271.71 201.78Q271.82 201.86 271.93 201.95Q272.1 202.1 272.23 202.29Q272.54 202.76 272.54 203.44Q272.54 203.68 272.5 203.91Q272.46 204.15 272.37 204.38Q272.2 204.83 271.8 205.36Q271.41 205.89 270.71 206.61ZM160.42 200L155.31 212.5L157.11 212.5L158.24 209.67L163.78 209.67L164.9 212.5L166.74 212.5L161.64 200L160.42 200ZM163.19 208.19L161.02 202.72L158.83 208.19L163.19 208.19ZM214.94 200L214.94 212.5L216.63 212.5L216.63 203.21L223.58 212.5L224.77 212.5L224.77 200L223.08 200L223.08 209.25L216.13 200L214.94 200ZM187.85 205.42L187.85 212.5L189.47 212.5L189.47 205.42L191.58 205.42L191.58 203.94L189.47 203.94L189.47 200.36L187.85 200.36L187.85 203.94L185.75 203.94L185.75 205.42L187.85 205.42ZM178.28 212.42Q178.96 212.68 179.73 212.68Q180.72 212.68 181.49 212.27Q181.91 212.05 182.24 211.73Q182.42 211.55 182.58 211.34L182.58 212.5L184.22 212.5L184.22 203.94L182.58 203.94L182.58 205.11Q182.42 204.91 182.24 204.73Q181.9 204.4 181.47 204.17Q181.44 204.15 181.4 204.14Q180.66 203.76 179.73 203.76Q178.9 203.76 178.18 204.06Q177.88 204.18 177.6 204.36Q177.24 204.59 176.94 204.87Q176.44 205.34 176.1 205.97Q176.03 206.1 175.97 206.24Q175.56 207.14 175.56 208.23Q175.56 209.32 175.97 210.23Q176.03 210.37 176.1 210.5Q176.43 211.1 176.9 211.55Q177.22 211.85 177.61 212.09Q177.93 212.29 178.28 212.42ZM195.07 212.42Q195.75 212.68 196.53 212.68Q197.52 212.68 198.28 212.27Q198.7 212.05 199.03 211.73Q199.22 211.55 199.37 211.34L199.37 212.5L201.01 212.5L201.01 203.94L199.37 203.94L199.37 205.11Q199.22 204.91 199.03 204.73Q198.7 204.4 198.26 204.17Q198.23 204.15 198.2 204.14Q197.46 203.76 196.53 203.76Q195.69 203.76 194.98 204.06Q194.67 204.18 194.39 204.36Q194.03 204.59 193.73 204.87Q193.24 205.34 192.9 205.97Q192.82 206.1 192.76 206.24Q192.35 207.14 192.35 208.23Q192.35 209.32 192.76 210.23Q192.83 210.37 192.9 210.5Q193.22 211.1 193.69 211.55Q194.01 211.85 194.4 212.09Q194.72 212.29 195.07 212.42ZM204.99 207.62L204.99 212.5L203.37 212.5L203.37 203.94L204.99 203.94L204.99 204.94Q205.06 204.84 205.13 204.74Q205.38 204.42 205.69 204.21Q206.35 203.76 207.31 203.76Q207.96 203.76 208.48 203.99Q209 204.22 209.45 204.74L208.39 205.83Q208.12 205.55 207.8 205.42Q207.47 205.3 207.04 205.3Q206.44 205.3 205.98 205.56Q205.75 205.68 205.56 205.87Q204.99 206.45 204.99 207.62ZM229.62 212.42Q230.29 212.68 231.07 212.68Q232.06 212.68 232.82 212.27Q233.25 212.05 233.57 211.73Q233.76 211.55 233.91 211.34L233.91 212.5L235.55 212.5L235.55 203.94L233.91 203.94L233.91 205.11Q233.76 204.91 233.58 204.73Q233.24 204.4 232.81 204.17Q232.77 204.15 232.74 204.14Q232 203.76 231.07 203.76Q230.24 203.76 229.52 204.06Q229.22 204.18 228.93 204.36Q228.57 204.59 228.27 204.87Q227.78 205.34 227.44 205.97Q227.37 206.1 227.3 206.24Q226.89 207.14 226.89 208.23Q226.89 209.32 227.3 210.23Q227.37 210.37 227.44 210.5Q227.77 211.1 228.23 211.55Q228.56 211.85 228.94 212.09Q229.27 212.29 229.62 212.42ZM243.69 207.33L243.69 212.5L245.31 212.5L245.31 207.31Q245.31 206.69 245.59 206.24L245.59 206.23Q245.74 206 245.94 205.83Q246.12 205.65 246.36 205.53Q246.41 205.5 246.46 205.48Q246.9 205.28 247.43 205.28Q247.98 205.28 248.42 205.5Q248.67 205.63 248.88 205.83Q249.02 205.96 249.12 206.11Q249.47 206.6 249.47 207.33L249.47 212.5L251.1 212.5L251.1 207.01Q251.1 206 250.66 205.28Q250.43 204.9 250.11 204.61Q249.83 204.35 249.48 204.16Q249.43 204.14 249.38 204.11Q248.68 203.76 247.81 203.76Q247.18 203.76 246.63 203.96Q246.38 204.05 246.15 204.17Q245.78 204.37 245.47 204.65Q245.16 204.93 244.92 205.29Q244.91 205.3 244.9 205.31Q244.89 205.3 244.88 205.28Q244.66 204.9 244.36 204.62Q244.08 204.35 243.73 204.16Q243.61 204.1 243.48 204.04Q242.85 203.76 242.1 203.76Q241.34 203.76 240.71 204.04Q240.57 204.1 240.45 204.17Q240.07 204.38 239.77 204.68Q239.64 204.8 239.53 204.94L239.53 203.94L237.91 203.94L237.91 212.5L239.53 212.5L239.53 207.31Q239.53 206.69 239.81 206.24L239.82 206.23Q239.98 205.98 240.2 205.79Q240.37 205.64 240.57 205.53Q240.6 205.51 240.63 205.5Q241.08 205.28 241.63 205.28Q242.23 205.28 242.69 205.53Q242.91 205.65 243.1 205.83Q243.24 205.96 243.34 206.11Q243.69 206.6 243.69 207.33ZM255.42 212.32Q256.26 212.68 257.26 212.68Q258.05 212.68 258.77 212.44Q258.97 212.38 259.16 212.3Q259.7 212.07 260.13 211.72Q260.42 211.48 260.66 211.2L259.62 210.14Q259.38 210.41 259.1 210.61Q258.86 210.78 258.58 210.9Q257.98 211.15 257.26 211.15Q256.43 211.15 255.78 210.81Q255.76 210.79 255.73 210.78Q255.41 210.6 255.16 210.35Q254.89 210.08 254.7 209.74Q254.48 209.32 254.4 208.82L261.09 208.82Q261.15 208.55 261.16 208.35Q261.18 208.14 261.18 207.96Q261.18 206.83 260.73 205.92Q260.7 205.86 260.67 205.8Q260.37 205.25 259.95 204.84Q259.63 204.53 259.25 204.3Q259.15 204.24 259.04 204.19Q258.21 203.76 257.15 203.76Q256.22 203.76 255.42 204.1Q255.16 204.21 254.91 204.35Q254.44 204.63 254.07 204.99Q253.64 205.41 253.32 205.94Q253.2 206.15 253.11 206.38Q252.74 207.21 252.74 208.21Q252.74 209.25 253.13 210.1Q253.22 210.31 253.33 210.5Q253.62 210.98 253.99 211.36Q254.41 211.78 254.95 212.09Q255.18 212.22 255.42 212.32ZM254.4 207.47Q254.48 207.01 254.69 206.63Q254.87 206.27 255.15 206Q255.37 205.78 255.66 205.62Q255.67 205.61 255.68 205.61Q256.3 205.26 257.12 205.26Q257.91 205.26 258.47 205.59Q258.68 205.72 258.86 205.89Q259.14 206.16 259.33 206.53Q259.54 206.94 259.6 207.47L254.4 207.47ZM166.23 203.94L170.16 212.5L171.11 212.5L175.04 203.94L173.31 203.94L170.66 209.97L168.04 203.94L166.23 203.94ZM181.36 210.81Q180.78 211.15 180 211.15Q179.34 211.15 178.8 210.89Q178.68 210.84 178.56 210.77Q178.28 210.6 178.05 210.37Q177.77 210.09 177.58 209.74Q177.23 209.08 177.23 208.21Q177.23 207.37 177.58 206.71Q177.79 206.31 178.1 206.02Q178.31 205.82 178.55 205.68Q178.65 205.62 178.75 205.57Q179.3 205.3 179.99 205.3Q180.72 205.3 181.3 205.6Q181.35 205.63 181.4 205.67Q181.66 205.82 181.87 206.02Q182.16 206.31 182.35 206.69Q182.68 207.35 182.68 208.23Q182.68 209.22 182.24 209.94Q182.11 210.14 181.95 210.33Q181.68 210.62 181.36 210.81ZM198.15 210.81Q197.57 211.15 196.8 211.15Q196.14 211.15 195.59 210.89Q195.47 210.84 195.36 210.77Q195.07 210.6 194.84 210.37Q194.57 210.09 194.38 209.74Q194.02 209.08 194.02 208.21Q194.02 207.37 194.38 206.71Q194.59 206.31 194.9 206.02Q195.1 205.82 195.35 205.68Q195.44 205.62 195.55 205.57Q196.1 205.3 196.78 205.3Q197.52 205.3 198.09 205.6Q198.14 205.63 198.2 205.67Q198.45 205.82 198.66 206.02Q198.95 206.31 199.14 206.69Q199.48 207.35 199.48 208.23Q199.48 209.22 199.03 209.94Q198.91 210.14 198.74 210.33Q198.48 210.62 198.15 210.81ZM232.69 210.81Q232.11 211.15 231.34 211.15Q230.68 211.15 230.13 210.89Q230.01 210.84 229.9 210.77Q229.61 210.6 229.39 210.37Q229.11 210.09 228.92 209.74Q228.57 209.08 228.57 208.21Q228.57 207.37 228.92 206.71Q229.13 206.31 229.44 206.02Q229.64 205.82 229.89 205.68Q229.99 205.62 230.09 205.57Q230.64 205.3 231.32 205.3Q232.06 205.3 232.63 205.6Q232.69 205.63 232.74 205.67Q233 205.82 233.2 206.02Q233.49 206.31 233.69 206.69Q234.02 207.35 234.02 208.23Q234.02 209.22 233.58 209.94Q233.45 210.14 233.28 210.33Q233.02 210.62 232.69 210.81Z" fill="#000000" fill-opacity="1.000000" fill-rule="evenodd"/>
		<rect id="Rectangle 44" x="55.000000" y="246.000000" width="320.000000" height="42.000000" fill="#FFFFFF" fill-opacity="1.000000"/>
		<rect id="Rectangle 44" x="55.750000" y="246.750000" width="318.500000" height="40.500000" stroke="#000000" stroke-opacity="1.000000" stroke-width="1.500000"/>
		<path id="Avatar Name 3" d="M160.45 261L155.33 273.5L157.14 273.5L158.27 270.67L163.81 270.67L164.93 273.5L166.76 273.5L161.67 261L160.45 261ZM163.22 269.19L161.05 263.72L158.86 269.19L163.22 269.19ZM214.97 261L214.97 273.5L216.66 273.5L216.66 264.21L223.61 273.5L224.8 273.5L224.8 261L223.1 261L223.1 270.25L216.16 261L214.97 261ZM266.66 261L266.66 262.51L271.82 262.51L268.59 266.19L268.59 267.21Q268.9 267.12 269.22 267.08Q269.54 267.04 269.87 267.04Q270.73 267.04 271.36 267.34Q271.77 267.54 272.06 267.84Q272.22 268.01 272.34 268.21Q272.35 268.24 272.37 268.26Q272.69 268.81 272.69 269.55Q272.69 270.21 272.43 270.74Q272.39 270.81 272.34 270.89Q272.18 271.16 271.96 271.37Q271.71 271.61 271.39 271.78Q270.79 272.09 269.96 272.09Q269.18 272.09 268.53 271.81Q268.44 271.77 268.36 271.72Q267.81 271.44 267.44 271.01Q267.32 270.88 267.22 270.72L266.07 271.87Q266.47 272.38 266.97 272.75Q267.33 273.02 267.75 273.22Q268.75 273.68 269.98 273.68Q271.29 273.68 272.28 273.16Q272.93 272.82 273.39 272.32Q273.64 272.06 273.84 271.74Q273.93 271.59 274.01 271.44Q274.4 270.64 274.4 269.64Q274.4 268.55 273.94 267.71Q273.93 267.7 273.92 267.68Q273.6 267.11 273.14 266.71Q272.91 266.52 272.65 266.37Q272.49 266.27 272.32 266.2Q271.65 265.9 270.84 265.9L270.83 265.9L274.26 262.01L274.26 261L266.66 261ZM187.88 266.42L187.88 273.5L189.5 273.5L189.5 266.42L191.6 266.42L191.6 264.94L189.5 264.94L189.5 261.36L187.88 261.36L187.88 264.94L185.77 264.94L185.77 266.42L187.88 266.42ZM178.31 273.42Q178.99 273.68 179.76 273.68Q180.75 273.68 181.52 273.27Q181.94 273.05 182.26 272.73Q182.45 272.55 182.6 272.34L182.6 273.5L184.24 273.5L184.24 264.94L182.6 264.94L182.6 266.11Q182.45 265.91 182.27 265.73Q181.93 265.4 181.5 265.17Q181.46 265.15 181.43 265.14Q180.69 264.76 179.76 264.76Q178.93 264.76 178.21 265.06Q177.91 265.18 177.63 265.36Q177.27 265.59 176.96 265.87Q176.47 266.34 176.13 266.97Q176.06 267.1 175.99 267.24Q175.58 268.14 175.58 269.23Q175.58 270.32 176 271.23Q176.06 271.37 176.13 271.5Q176.46 272.1 176.93 272.54Q177.25 272.85 177.63 273.09Q177.96 273.29 178.31 273.42ZM195.1 273.42Q195.78 273.68 196.56 273.68Q197.54 273.68 198.31 273.27Q198.73 273.05 199.06 272.73Q199.24 272.55 199.4 272.34L199.4 273.5L201.04 273.5L201.04 264.94L199.4 264.94L199.4 266.11Q199.24 265.91 199.06 265.73Q198.72 265.4 198.29 265.17Q198.26 265.15 198.22 265.14Q197.48 264.76 196.56 264.76Q195.72 264.76 195.01 265.06Q194.7 265.18 194.42 265.36Q194.06 265.59 193.76 265.87Q193.27 266.34 192.93 266.97Q192.85 267.1 192.79 267.24Q192.38 268.14 192.38 269.23Q192.38 270.32 192.79 271.23Q192.85 271.37 192.93 271.5Q193.25 272.1 193.72 272.54Q194.04 272.85 194.43 273.09Q194.75 273.29 195.1 273.42ZM205.01 268.62L205.01 273.5L203.39 273.5L203.39 264.94L205.01 264.94L205.01 265.94Q205.08 265.84 205.16 265.74Q205.4 265.42 205.72 265.21Q206.37 264.76 207.33 264.76Q207.99 264.76 208.5 264.99Q209.03 265.22 209.48 265.74L208.42 266.83Q208.15 266.55 207.82 266.42Q207.5 266.3 207.07 266.3Q206.46 266.3 206.01 266.56Q205.78 266.68 205.59 266.87Q205.01 267.45 205.01 268.62ZM229.64 273.42Q230.32 273.68 231.1 273.68Q232.09 273.68 232.85 273.27Q233.27 273.05 233.6 272.73Q233.79 272.55 233.94 272.34L233.94 273.5L235.58 273.5L235.58 264.94L233.94 264.94L233.94 266.11Q233.79 265.91 233.6 265.73Q233.27 265.4 232.83 265.17Q232.8 265.15 232.77 265.14Q232.03 264.76 231.1 264.76Q230.26 264.76 229.55 265.06Q229.24 265.18 228.96 265.36Q228.6 265.59 228.3 265.87Q227.81 266.34 227.47 266.97Q227.39 267.1 227.33 267.24Q226.92 268.14 226.92 269.23Q226.92 270.32 227.33 271.23Q227.39 271.37 227.47 271.5Q227.79 272.1 228.26 272.54Q228.58 272.85 228.97 273.09Q229.29 273.29 229.64 273.42ZM243.71 268.33L243.71 273.5L245.34 273.5L245.34 268.31Q245.34 267.69 245.62 267.24L245.62 267.23Q245.77 267 245.96 266.83Q246.15 266.65 246.39 266.53Q246.44 266.5 246.49 266.48Q246.93 266.28 247.46 266.28Q248.01 266.28 248.45 266.5Q248.7 266.63 248.91 266.83Q249.04 266.96 249.15 267.11Q249.49 267.6 249.49 268.33L249.49 273.5L251.13 273.5L251.13 268.01Q251.13 267 250.69 266.28Q250.46 265.9 250.14 265.61Q249.86 265.35 249.51 265.16Q249.46 265.14 249.41 265.11Q248.71 264.76 247.84 264.76Q247.21 264.76 246.65 264.96Q246.41 265.05 246.18 265.17Q245.8 265.37 245.5 265.65Q245.19 265.93 244.94 266.29Q244.94 266.3 244.93 266.31Q244.92 266.3 244.91 266.28Q244.69 265.9 244.38 265.62Q244.11 265.35 243.76 265.16Q243.63 265.1 243.51 265.04Q242.88 264.76 242.13 264.76Q241.37 264.76 240.73 265.04Q240.6 265.1 240.48 265.17Q240.09 265.38 239.79 265.68Q239.67 265.8 239.56 265.94L239.56 264.94L237.94 264.94L237.94 273.5L239.56 273.5L239.56 268.31Q239.56 267.69 239.84 267.24L239.84 267.23Q240.01 266.98 240.23 266.79Q240.4 266.64 240.6 266.53Q240.63 266.51 240.66 266.5Q241.11 266.28 241.66 266.28Q242.26 266.28 242.72 266.53Q242.94 266.65 243.13 266.83Q243.27 266.96 243.37 267.11Q243.71 267.6 243.71 268.33ZM255.45 273.32Q256.29 273.68 257.28 273.68Q258.08 273.68 258.8 273.44Q258.99 273.38 259.18 273.3Q259.72 273.07 260.16 272.72Q260.45 272.48 260.69 272.2L259.64 271.14Q259.41 271.41 259.12 271.61Q258.88 271.78 258.61 271.9Q258.01 272.15 257.28 272.15Q256.46 272.15 255.81 271.81Q255.78 271.79 255.76 271.78Q255.43 271.6 255.18 271.35Q254.92 271.08 254.73 270.74Q254.51 270.32 254.42 269.82L261.12 269.82Q261.17 269.55 261.19 269.35Q261.21 269.14 261.21 268.96Q261.21 267.83 260.76 266.92Q260.73 266.86 260.69 266.8Q260.4 266.25 259.98 265.84Q259.66 265.53 259.28 265.3Q259.18 265.25 259.07 265.19Q258.24 264.76 257.18 264.76Q256.24 264.76 255.45 265.1Q255.19 265.21 254.94 265.35Q254.47 265.63 254.1 265.99Q253.67 266.41 253.35 266.94Q253.23 267.15 253.13 267.38Q252.77 268.21 252.77 269.21Q252.77 270.25 253.16 271.1Q253.25 271.31 253.36 271.5Q253.64 271.98 254.02 272.36Q254.44 272.78 254.98 273.09Q255.21 273.22 255.45 273.32ZM254.43 268.47Q254.51 268.01 254.71 267.63Q254.9 267.27 255.17 267Q255.4 266.78 255.68 266.62Q255.7 266.61 255.71 266.61Q256.33 266.26 257.14 266.26Q257.93 266.26 258.49 266.59Q258.71 266.72 258.89 266.89Q259.17 267.16 259.35 267.53Q259.56 267.94 259.63 268.47L254.43 268.47ZM166.26 264.94L170.18 273.5L171.14 273.5L175.06 264.94L173.34 264.94L170.69 270.97L168.06 264.94L166.26 264.94ZM181.39 271.81Q180.81 272.15 180.03 272.15Q179.37 272.15 178.82 271.89Q178.7 271.84 178.59 271.77Q178.3 271.6 178.08 271.37Q177.8 271.09 177.61 270.74Q177.26 270.08 177.26 269.21Q177.26 268.37 177.61 267.71Q177.82 267.31 178.13 267.02Q178.33 266.82 178.58 266.68Q178.68 266.62 178.78 266.57Q179.33 266.3 180.01 266.3Q180.75 266.3 181.32 266.6Q181.38 266.63 181.43 266.67Q181.69 266.82 181.89 267.02Q182.18 267.31 182.38 267.69Q182.71 268.35 182.71 269.23Q182.71 270.22 182.27 270.94Q182.14 271.14 181.97 271.33Q181.71 271.62 181.39 271.81ZM198.18 271.81Q197.6 272.15 196.82 272.15Q196.16 272.15 195.62 271.89Q195.5 271.84 195.38 271.77Q195.1 271.6 194.87 271.37Q194.59 271.09 194.4 270.74Q194.05 270.08 194.05 269.21Q194.05 268.37 194.4 267.71Q194.61 267.31 194.92 267.02Q195.13 266.82 195.37 266.68Q195.47 266.62 195.57 266.57Q196.12 266.3 196.81 266.3Q197.54 266.3 198.12 266.6Q198.17 266.63 198.23 266.67Q198.48 266.82 198.69 267.02Q198.98 267.31 199.17 267.69Q199.5 268.35 199.5 269.23Q199.5 270.22 199.06 270.94Q198.93 271.14 198.77 271.33Q198.5 271.62 198.18 271.81ZM232.72 271.81Q232.14 272.15 231.37 272.15Q230.7 272.15 230.16 271.89Q230.04 271.84 229.92 271.77Q229.64 271.6 229.41 271.37Q229.14 271.09 228.94 270.74Q228.59 270.08 228.59 269.21Q228.59 268.37 228.94 267.71Q229.16 267.31 229.47 267.02Q229.67 266.82 229.92 266.68Q230.01 266.62 230.12 266.57Q230.67 266.3 231.35 266.3Q232.09 266.3 232.66 266.6Q232.71 266.63 232.77 266.67Q233.02 266.82 233.23 267.02Q233.52 267.31 233.71 267.69Q234.05 268.35 234.05 269.23Q234.05 270.22 233.6 270.94Q233.47 271.14 233.31 271.33Q233.05 271.62 232.72 271.81Z" fill="#000000" fill-opacity="1.000000" fill-rule="evenodd"/>
		<path id="Delete Avatar" d="M395.32 146L390.348 150.972C389.884 151.436 389.884 152.188 390.348 152.652C390.812 153.115 391.563 153.115 392.027 152.652L397 147.679L401.973 152.652C402.437 153.116 403.188 153.116 403.652 152.652C404.116 152.188 404.116 151.436 403.652 150.972L398.679 146L403.652 141.027C404.116 140.563 404.116 139.812 403.652 139.348C403.188 138.884 402.436 138.884 401.972 139.348L397 144.32L392.028 139.348C391.564 138.884 390.812 138.884 390.348 139.348C389.884 139.812 389.884 140.564 390.348 141.027L395.32 146Z" clip-rule="evenodd" fill="#000000" fill-opacity="1.000000" fill-rule="evenodd"/>
		<path id="Delete Avatar" d="M395.32 267L390.348 271.972C389.884 272.436 389.884 273.188 390.348 273.652C390.812 274.115 391.563 274.115 392.027 273.652L397 268.679L401.973 273.652C402.437 274.116 403.188 274.116 403.652 273.652C404.116 273.188 404.116 272.436 403.652 271.972L398.679 267L403.652 262.027C404.116 261.563 404.116 260.812 403.652 260.348C403.188 259.884 402.436 259.884 401.972 260.348L397 265.32L392.028 260.348C391.564 259.884 390.812 259.884 390.348 260.348C389.884 260.812 389.884 261.564 390.348 262.027L395.32 267Z" clip-rule="evenodd" fill="#000000" fill-opacity="1.000000" fill-rule="evenodd"/>
		<path id="Delete Avatar" d="M395.32 206L390.348 210.972C389.884 211.436 389.884 212.188 390.348 212.651C390.812 213.115 391.563 213.115 392.027 212.651L397 207.679L401.972 212.652C402.436 213.115 403.188 213.115 403.652 212.652C404.116 212.188 404.116 211.436 403.652 210.972L398.679 206L403.652 201.028C404.115 200.564 404.115 199.812 403.652 199.348C403.188 198.884 402.436 198.884 401.972 199.348L397 204.32L392.028 199.348C391.564 198.885 390.812 198.885 390.348 199.348C389.884 199.812 389.884 200.564 390.348 201.028L395.32 206Z" clip-rule="evenodd" fill="#000000" fill-opacity="1.000000" fill-rule="evenodd"/>
		<g clip-path="url(#clip184_7521)">
			<path id="3/5" d="M391.5 65.6L385.66 81.84L387.45 81.84L393.26 65.6L391.5 65.6ZM375.39 66.42L375.39 68.18L381.41 68.18L377.64 72.47L377.64 73.66Q378 73.56 378.37 73.51Q378.75 73.46 379.13 73.46Q380.14 73.46 380.87 73.82Q381.35 74.04 381.68 74.4Q381.87 74.6 382.02 74.83Q382.03 74.86 382.05 74.88Q382.43 75.53 382.43 76.4Q382.43 77.17 382.12 77.78Q382.07 77.86 382.02 77.95Q381.82 78.27 381.57 78.51Q381.28 78.8 380.91 78.99Q380.2 79.36 379.24 79.36Q378.33 79.36 377.57 79.02Q377.47 78.98 377.37 78.93Q376.73 78.6 376.3 78.1Q376.16 77.94 376.04 77.76L374.7 79.1Q375.16 79.7 375.74 80.13Q376.17 80.44 376.67 80.67Q377.83 81.21 379.26 81.21Q380.79 81.21 381.95 80.61Q382.7 80.21 383.24 79.63Q383.53 79.32 383.76 78.95Q383.87 78.78 383.96 78.59Q384.42 77.66 384.42 76.5Q384.42 75.23 383.88 74.25Q383.87 74.23 383.86 74.21Q383.49 73.54 382.94 73.08Q382.68 72.86 382.38 72.68Q382.19 72.57 382 72.48Q381.21 72.13 380.26 72.13L380.26 72.13L384.26 67.6L384.26 66.42L375.39 66.42ZM395.01 73.14L396.08 74.21Q396.71 73.71 397.41 73.5Q398.12 73.29 398.98 73.29Q399.67 73.29 400.27 73.53Q400.4 73.58 400.52 73.64Q400.84 73.79 401.1 74.02Q401.42 74.29 401.64 74.65Q402.06 75.32 402.06 76.29Q402.06 77.22 401.65 77.9Q401.64 77.91 401.63 77.92Q401.48 78.16 401.28 78.37Q400.93 78.74 400.45 78.98Q399.71 79.36 398.73 79.36Q397.75 79.36 396.94 78.99Q396.88 78.96 396.82 78.93Q396.16 78.59 395.71 78.06Q395.59 77.92 395.49 77.76L394.15 79.1Q394.6 79.69 395.16 80.11Q395.6 80.44 396.11 80.67Q397.28 81.21 398.77 81.21Q400.3 81.21 401.5 80.58Q402.3 80.17 402.87 79.54Q403.15 79.23 403.38 78.87Q403.56 78.58 403.69 78.27Q404.06 77.41 404.06 76.4Q404.06 75.23 403.62 74.25Q403.56 74.12 403.5 74Q403.25 73.52 402.91 73.13Q402.48 72.65 401.9 72.3Q400.84 71.67 399.33 71.67Q398.56 71.67 397.97 71.82Q397.38 71.97 396.92 72.24Q396.88 72.26 396.84 72.29L397.28 68.18L403.33 68.18L403.33 66.42L395.66 66.42L395.01 73.14Z" fill="#000000" fill-opacity="1.000000" fill-rule="evenodd"/>
		</g>
	</g>
</svg>
