<svg width="60" height="60" viewBox="0 0 60 60" fill="none" xmlns="http://www.w3.org/2000/svg">
<circle opacity="0.7" cx="30" cy="30" r="30" fill="#ECECEC"/>
<circle cx="30" cy="30" r="27.25" stroke="currentColor" stroke-width="1.5"/>
<path d="M19.6896 39.0374C19.1922 38.3749 18.2519 38.241 17.5894 38.7384C16.9269 39.2358 16.793 40.176 17.2904 40.8385L19.6896 39.0374ZM31.1232 14.6818V16.1818C39.0137 16.1818 45.4103 22.5784 45.4103 30.4689H46.9103H48.4103C48.4103 20.9215 40.6706 13.1818 31.1232 13.1818V14.6818ZM46.9103 30.4689H45.4103C45.4103 38.3594 39.0137 44.756 31.1232 44.756V46.256V47.756C40.6706 47.756 48.4103 40.0163 48.4103 30.4689H46.9103ZM31.1232 46.256V44.756C26.4487 44.756 22.2985 42.5126 19.6896 39.0374L18.49 39.938L17.2904 40.8385C20.4416 45.036 25.465 47.756 31.1232 47.756V46.256ZM18.49 20.9999L19.6896 21.9004C22.2985 18.4252 26.4487 16.1818 31.1232 16.1818V14.6818V13.1818C25.465 13.1818 20.4416 15.9019 17.2904 20.0993L18.49 20.9999Z" fill="black"/>
<path d="M13.0437 28.8956C12.7288 28.985 12.4139 28.752 12.4068 28.4248L12.1829 17.7765C12.1742 17.3614 12.6467 17.1175 12.9806 17.3643L23.4494 25.1029C23.7832 25.3498 23.688 25.8725 23.2886 25.9859L13.0437 28.8956Z" fill="black" stroke="black"/>
</svg>
