<svg width="60" height="60" viewBox="0 0 60 60" fill="none" xmlns="http://www.w3.org/2000/svg">
<circle opacity="0.7" cx="30" cy="30" r="30" transform="matrix(-1 0 0 1 60 0)" fill="#ECECEC"/>
<circle cx="28" cy="28" r="27.25" transform="matrix(-1 0 0 1 58 2)" stroke="currentColor" stroke-width="1.5"/>
<path d="M40.3104 39.0374C40.8078 38.3749 41.7481 38.241 42.4106 38.7384C43.0731 39.2358 43.207 40.176 42.7096 40.8385L40.3104 39.0374ZM28.8768 14.6818V16.1818C20.9863 16.1818 14.5897 22.5784 14.5897 30.4689H13.0897H11.5897C11.5897 20.9215 19.3294 13.1818 28.8768 13.1818V14.6818ZM13.0897 30.4689H14.5897C14.5897 38.3594 20.9863 44.756 28.8768 44.756V46.256V47.756C19.3294 47.756 11.5897 40.0163 11.5897 30.4689H13.0897ZM28.8768 46.256V44.756C33.5513 44.756 37.7015 42.5126 40.3104 39.0374L41.51 39.938L42.7096 40.8385C39.5584 45.036 34.535 47.756 28.8768 47.756V46.256ZM41.51 20.9999L40.3104 21.9004C37.7015 18.4252 33.5513 16.1818 28.8768 16.1818V14.6818V13.1818C34.535 13.1818 39.5584 15.9019 42.7096 20.0993L41.51 20.9999Z" fill="black"/>
<path d="M46.9563 28.8956C47.2712 28.985 47.5861 28.752 47.5932 28.4248L47.8171 17.7765C47.8258 17.3614 47.3533 17.1175 47.0194 17.3643L36.5506 25.1029C36.2168 25.3498 36.312 25.8725 36.7114 25.9859L46.9563 28.8956Z" fill="black" stroke="black"/>
</svg>
