<svg width="60" height="46" viewBox="0 0 60 46" fill="none" xmlns="http://www.w3.org/2000/svg">
<path d="M3.02621 44V37.26H3.96621V44H3.02621ZM0.666211 37.92V37.06H6.31621V37.92H0.666211ZM8.12785 44.1C7.66119 44.1 7.24119 43.99 6.86785 43.77C6.49452 43.55 6.19785 43.2533 5.97785 42.88C5.75785 42.5 5.64785 42.0767 5.64785 41.61C5.64785 41.15 5.75785 40.7367 5.97785 40.37C6.19785 39.9967 6.49452 39.7 6.86785 39.48C7.24119 39.26 7.66119 39.15 8.12785 39.15C8.58785 39.15 9.00452 39.26 9.37785 39.48C9.75785 39.6933 10.0579 39.9867 10.2779 40.36C10.4979 40.7333 10.6079 41.15 10.6079 41.61C10.6079 42.0767 10.4979 42.5 10.2779 42.88C10.0579 43.2533 9.75785 43.55 9.37785 43.77C9.00452 43.99 8.58785 44.1 8.12785 44.1ZM8.12785 43.23C8.42785 43.23 8.69452 43.16 8.92785 43.02C9.16119 42.88 9.34452 42.69 9.47785 42.45C9.61119 42.2033 9.67785 41.9233 9.67785 41.61C9.67785 41.3033 9.60785 41.03 9.46785 40.79C9.33452 40.55 9.15119 40.3633 8.91785 40.23C8.69119 40.09 8.42785 40.02 8.12785 40.02C7.82785 40.02 7.56118 40.09 7.32785 40.23C7.09452 40.3633 6.91118 40.55 6.77785 40.79C6.64452 41.03 6.57785 41.3033 6.57785 41.61C6.57785 41.9233 6.64452 42.2033 6.77785 42.45C6.91118 42.69 7.09452 42.88 7.32785 43.02C7.56118 43.16 7.82785 43.23 8.12785 43.23ZM14.1219 44.1C13.7619 44.1 13.4352 44.0267 13.1419 43.88C12.8552 43.7267 12.6252 43.5167 12.4519 43.25C12.2786 42.9833 12.1819 42.68 12.1619 42.34V40.91C12.1819 40.5633 12.2786 40.26 12.4519 40C12.6319 39.7333 12.8652 39.5267 13.1519 39.38C13.4452 39.2267 13.7686 39.15 14.1219 39.15C14.5552 39.15 14.9452 39.26 15.2919 39.48C15.6452 39.7 15.9219 39.9967 16.1219 40.37C16.3219 40.7433 16.4219 41.1633 16.4219 41.63C16.4219 42.0967 16.3219 42.5167 16.1219 42.89C15.9219 43.2633 15.6452 43.56 15.2919 43.78C14.9452 43.9933 14.5552 44.1 14.1219 44.1ZM11.6219 45.99V39.25H12.5219V40.5L12.3519 41.65L12.5219 42.81V45.99H11.6219ZM13.9719 43.25C14.2719 43.25 14.5352 43.18 14.7619 43.04C14.9886 42.9 15.1686 42.71 15.3019 42.47C15.4352 42.2233 15.5019 41.94 15.5019 41.62C15.5019 41.3067 15.4352 41.0267 15.3019 40.78C15.1686 40.5333 14.9886 40.3433 14.7619 40.21C14.5352 40.07 14.2752 40 13.9819 40C13.6819 40 13.4186 40.07 13.1919 40.21C12.9652 40.3433 12.7886 40.5333 12.6619 40.78C12.5352 41.0267 12.4719 41.31 12.4719 41.63C12.4719 41.9433 12.5319 42.2233 12.6519 42.47C12.7786 42.71 12.9552 42.9 13.1819 43.04C13.4152 43.18 13.6786 43.25 13.9719 43.25ZM24.2323 44L20.9123 40.44C20.6523 40.16 20.459 39.8933 20.3323 39.64C20.2056 39.3867 20.1423 39.1067 20.1423 38.8C20.1423 38.4467 20.2256 38.1333 20.3923 37.86C20.559 37.58 20.789 37.36 21.0823 37.2C21.3756 37.0333 21.7123 36.95 22.0923 36.95C22.3723 36.95 22.6256 36.9967 22.8523 37.09C23.0856 37.1767 23.289 37.2933 23.4623 37.44C23.6423 37.5867 23.7923 37.7533 23.9123 37.94L23.2623 38.53C23.109 38.3167 22.939 38.1467 22.7523 38.02C22.5723 37.8867 22.3523 37.82 22.0923 37.82C21.7923 37.82 21.5423 37.91 21.3423 38.09C21.1423 38.27 21.0423 38.5033 21.0423 38.79C21.0423 39.03 21.0923 39.2333 21.1923 39.4C21.2923 39.5667 21.4423 39.76 21.6423 39.98L25.3323 44H24.2323ZM21.7423 44.1C21.2823 44.1 20.879 44.01 20.5323 43.83C20.1856 43.65 19.9156 43.4033 19.7223 43.09C19.5356 42.77 19.4423 42.4067 19.4423 42C19.4423 41.58 19.5556 41.2 19.7823 40.86C20.009 40.52 20.339 40.25 20.7723 40.05L21.2023 40.61C20.9356 40.7433 20.7256 40.9267 20.5723 41.16C20.419 41.3867 20.3423 41.66 20.3423 41.98C20.3423 42.24 20.4023 42.4633 20.5223 42.65C20.6423 42.8367 20.809 42.9833 21.0223 43.09C21.2423 43.19 21.4923 43.24 21.7723 43.24C22.1256 43.24 22.4256 43.1667 22.6723 43.02C22.919 42.8733 23.1056 42.6867 23.2323 42.46L23.8223 43.15C23.689 43.33 23.5123 43.4933 23.2923 43.64C23.079 43.78 22.839 43.8933 22.5723 43.98C22.3123 44.06 22.0356 44.1 21.7423 44.1ZM28.6033 44V43.18H30.7033C31.1033 43.18 31.4167 43.0633 31.6433 42.83C31.87 42.59 31.9833 42.3033 31.9833 41.97C31.9833 41.7433 31.9333 41.54 31.8333 41.36C31.7333 41.1733 31.5867 41.0267 31.3933 40.92C31.2067 40.8133 30.9867 40.76 30.7333 40.76H28.6033V39.94H30.5933C30.9267 39.94 31.19 39.8533 31.3833 39.68C31.5833 39.5 31.6833 39.2433 31.6833 38.91C31.6833 38.5767 31.58 38.3233 31.3733 38.15C31.1667 37.97 30.8933 37.88 30.5533 37.88H28.6033V37.06H30.5733C31.0267 37.06 31.4033 37.1433 31.7033 37.31C32.01 37.47 32.24 37.6833 32.3933 37.95C32.5533 38.2167 32.6333 38.51 32.6333 38.83C32.6333 39.2033 32.53 39.53 32.3233 39.81C32.1233 40.09 31.8267 40.31 31.4333 40.47L31.5133 40.17C31.96 40.33 32.3067 40.5733 32.5533 40.9C32.8067 41.22 32.9333 41.6 32.9333 42.04C32.9333 42.4067 32.8433 42.7367 32.6633 43.03C32.4833 43.3233 32.2233 43.56 31.8833 43.74C31.55 43.9133 31.14 44 30.6533 44H28.6033ZM27.9733 44V37.06H28.9133V44H27.9733ZM36.2138 44.1C35.7471 44.1 35.3271 43.99 34.9538 43.77C34.5805 43.55 34.2838 43.2533 34.0638 42.88C33.8438 42.5 33.7338 42.0767 33.7338 41.61C33.7338 41.15 33.8438 40.7367 34.0638 40.37C34.2838 39.9967 34.5805 39.7 34.9538 39.48C35.3271 39.26 35.7471 39.15 36.2138 39.15C36.6738 39.15 37.0905 39.26 37.4638 39.48C37.8438 39.6933 38.1438 39.9867 38.3638 40.36C38.5838 40.7333 38.6938 41.15 38.6938 41.61C38.6938 42.0767 38.5838 42.5 38.3638 42.88C38.1438 43.2533 37.8438 43.55 37.4638 43.77C37.0905 43.99 36.6738 44.1 36.2138 44.1ZM36.2138 43.23C36.5138 43.23 36.7805 43.16 37.0138 43.02C37.2471 42.88 37.4305 42.69 37.5638 42.45C37.6971 42.2033 37.7638 41.9233 37.7638 41.61C37.7638 41.3033 37.6938 41.03 37.5538 40.79C37.4205 40.55 37.2371 40.3633 37.0038 40.23C36.7771 40.09 36.5138 40.02 36.2138 40.02C35.9138 40.02 35.6471 40.09 35.4138 40.23C35.1805 40.3633 34.9971 40.55 34.8638 40.79C34.7305 41.03 34.6638 41.3033 34.6638 41.61C34.6638 41.9233 34.7305 42.2033 34.8638 42.45C34.9971 42.69 35.1805 42.88 35.4138 43.02C35.6471 43.16 35.9138 43.23 36.2138 43.23ZM40.4379 44V37.26H41.3379V44H40.4379ZM39.2679 40.07V39.25H45.3379V40.07H39.2679ZM43.2679 44V37.26H44.1679V44H43.2679ZM48.245 44.1C47.7784 44.1 47.3584 43.99 46.985 43.77C46.6117 43.55 46.315 43.2533 46.095 42.88C45.875 42.5 45.765 42.0767 45.765 41.61C45.765 41.15 45.875 40.7367 46.095 40.37C46.315 39.9967 46.6117 39.7 46.985 39.48C47.3584 39.26 47.7784 39.15 48.245 39.15C48.705 39.15 49.1217 39.26 49.495 39.48C49.875 39.6933 50.175 39.9867 50.395 40.36C50.615 40.7333 50.725 41.15 50.725 41.61C50.725 42.0767 50.615 42.5 50.395 42.88C50.175 43.2533 49.875 43.55 49.495 43.77C49.1217 43.99 48.705 44.1 48.245 44.1ZM48.245 43.23C48.545 43.23 48.8117 43.16 49.045 43.02C49.2784 42.88 49.4617 42.69 49.595 42.45C49.7284 42.2033 49.795 41.9233 49.795 41.61C49.795 41.3033 49.725 41.03 49.585 40.79C49.4517 40.55 49.2684 40.3633 49.035 40.23C48.8084 40.09 48.545 40.02 48.245 40.02C47.945 40.02 47.6784 40.09 47.445 40.23C47.2117 40.3633 47.0284 40.55 46.895 40.79C46.7617 41.03 46.695 41.3033 46.695 41.61C46.695 41.9233 46.7617 42.2033 46.895 42.45C47.0284 42.69 47.2117 42.88 47.445 43.02C47.6784 43.16 47.945 43.23 48.245 43.23ZM51.7391 44V39.25H52.6391V44H51.7391ZM54.9491 44V41.13C54.9491 40.7767 54.8391 40.5 54.6191 40.3C54.4058 40.0933 54.1358 39.99 53.8091 39.99C53.5891 39.99 53.3924 40.0367 53.2191 40.13C53.0458 40.2233 52.9058 40.3533 52.7991 40.52C52.6924 40.6867 52.6391 40.8867 52.6391 41.12L52.2691 40.94C52.2691 40.58 52.3458 40.2667 52.4991 40C52.6591 39.7333 52.8758 39.5267 53.1491 39.38C53.4224 39.2267 53.7291 39.15 54.0691 39.15C54.4024 39.15 54.7024 39.2233 54.9691 39.37C55.2424 39.5167 55.4558 39.7233 55.6091 39.99C55.7691 40.2567 55.8491 40.5733 55.8491 40.94V44H54.9491ZM58.1591 44V41.13C58.1591 40.7767 58.0491 40.5 57.8291 40.3C57.6158 40.0933 57.3491 39.99 57.0291 39.99C56.8091 39.99 56.6091 40.0367 56.4291 40.13C56.2558 40.2233 56.1158 40.3533 56.0091 40.52C55.9024 40.6867 55.8491 40.8867 55.8491 41.12L55.3391 40.94C55.3591 40.5733 55.4558 40.26 55.6291 40C55.8091 39.7333 56.0391 39.5267 56.3191 39.38C56.5991 39.2267 56.9058 39.15 57.2391 39.15C57.5858 39.15 57.8958 39.2233 58.1691 39.37C58.4424 39.5167 58.6591 39.7233 58.8191 39.99C58.9858 40.2567 59.0691 40.5767 59.0691 40.95V44H58.1591Z" fill="black"/>
<path d="M29.0813 0C37.9357 0.000331264 45.1142 7.17879 45.1145 16.0332C45.1145 24.8879 37.9359 32.0661 29.0813 32.0664C23.8337 32.0664 19.1745 29.5443 16.2512 25.6504L16.1936 25.5654C15.9322 25.1315 16.0366 24.5607 16.4504 24.25C16.892 23.9188 17.5193 24.0088 17.8508 24.4502L18.095 24.7656C20.6675 27.9975 24.6328 30.0664 29.0813 30.0664C36.8313 30.0661 43.1145 23.7833 43.1145 16.0332C43.1142 8.28336 36.8311 2.00033 29.0813 2C24.9284 2 21.1959 3.80358 18.6252 6.67285L20.4582 8.02734C21.1261 8.52104 20.9359 9.56708 20.137 9.79395L15.3772 11.1455C14.7471 11.3244 14.1175 10.8589 14.1038 10.2041L14.0002 5.25781C13.9828 4.4275 14.9261 3.93905 15.594 4.43262L17.012 5.48047C19.9497 2.12376 24.2675 0 29.0813 0Z" fill="black"/>
<path d="M32.5758 10.1445C32.6871 9.73933 33.0602 9.47607 33.4804 9.47607H35.1901H36.9073C37.3238 9.47607 37.6943 9.73476 37.8066 10.1359C37.9674 10.7103 38.1869 11.6379 38.333 12.8314C38.5332 14.4683 38.7423 20.1076 38.8226 22.4468C38.8419 23.011 38.3895 23.4761 37.8249 23.4761H37.0351C36.5226 23.4761 36.093 23.0885 36.0404 22.5787L35.1901 14.3356L34.3398 22.5787C34.2872 23.0885 33.8577 23.4761 33.3451 23.4761H32.5536C31.9897 23.4761 31.5375 23.0122 31.556 22.4486C31.6329 20.1105 31.8354 14.4687 32.0472 12.8314C32.2009 11.6438 32.4178 10.7196 32.5758 10.1445Z" fill="black"/>
<path d="M19.6074 12.452C19.5589 11.967 19.867 11.5178 20.3368 11.3884L22.8872 10.6858C23.3335 10.5628 23.8194 10.7861 24.2361 10.9878C24.4379 11.0854 24.6975 11.1579 25.0234 11.1579C25.3494 11.1579 25.609 11.0854 25.8108 10.9878C26.2275 10.7861 26.7134 10.5628 27.1597 10.6858L29.71 11.3884C30.1799 11.5178 30.488 11.967 30.4395 12.452L30.3562 13.2852C30.3092 13.7548 29.914 14.1124 29.4421 14.1124C28.9347 14.1124 28.5234 14.5237 28.5234 15.0311V19.4761C28.5234 20.0284 28.0757 20.4761 27.5234 20.4761H22.5234C21.9712 20.4761 21.5234 20.0284 21.5234 19.4761V15.0311C21.5234 14.5237 21.1121 14.1124 20.6048 14.1124C20.1328 14.1124 19.7377 13.7548 19.6907 13.2852L19.6074 12.452Z" fill="black"/>
</svg>
