<svg width="50" height="50" viewBox="0 0 50 50" fill="none" xmlns="http://www.w3.org/2000/svg">
<circle class="outerCircle" opacity="0.7" cx="25" cy="25" r="25" fill="#ECECEC"/>
<circle cx="25" cy="25" r="22.25" stroke="white" stroke-width="1.5"/>
<path fill-rule="evenodd" clip-rule="evenodd" d="M30.8881 33.0009C30.5256 32.633 29.9451 32.6057 29.5213 32.9009C27.6301 34.2178 25.3407 34.9884 22.874 34.9884C16.3774 34.9884 11.1108 29.6433 11.1108 23.0498C11.1108 16.4562 16.3774 11.1111 22.874 11.1111C29.3706 11.1111 34.6371 16.4562 34.6371 23.0498C34.6371 25.3624 33.9892 27.5215 32.8676 29.3502C32.6135 29.7645 32.6522 30.3037 32.9933 30.65L38.5932 36.3334C39.1973 36.9465 39.1973 37.9309 38.5932 38.544C37.9764 39.17 36.9665 39.17 36.3497 38.544L30.8881 33.0009ZM31.7663 23.0142C31.7663 27.979 27.8008 32.0038 22.909 32.0038C18.0172 32.0038 14.0516 27.979 14.0516 23.0142C14.0516 18.0494 18.0172 14.0247 22.909 14.0247C27.8008 14.0247 31.7663 18.0494 31.7663 23.0142Z" fill="#000"/>
<path d="M27.335 23.7859H24.7852C24.2329 23.7859 23.7852 24.2336 23.7852 24.7859V27.3572H21.9912L21.9375 24.7654C21.9263 24.2214 21.4826 23.7861 20.9385 23.7859H18.3887L22.8906 18.6208L27.335 23.7859Z" fill="#000" stroke="#000"/>
</svg>
