<svg width="50" height="50" viewBox="0 0 50 50" fill="none" xmlns="http://www.w3.org/2000/svg">
<circle opacity="0.7" cx="25" cy="25" r="25" fill="#ECECEC"/>
<circle cx="25" cy="25" r="22.25" stroke="currentColor" stroke-width="1.5"/>
<path d="M25.1275 23.1767C25.3282 22.9403 25.6933 22.9416 25.8922 23.1796L28.8531 26.7274C29.1246 27.053 28.8933 27.5477 28.4693 27.5477H27.2486C26.9725 27.5477 26.7486 27.7716 26.7486 28.0477V33.7763C26.7486 34.0523 26.5246 34.2761 26.2486 34.2763H24.7701C24.4958 34.2763 24.2728 34.0554 24.2701 33.7811L24.2144 28.0429C24.2118 27.7687 23.9886 27.5479 23.7144 27.5477H22.5006C22.0747 27.5477 21.8443 27.0484 22.1197 26.7235L25.1275 23.1767Z" fill="black"/>
<path d="M28.1816 14C29.6632 14.0002 30.8725 15.1505 30.9736 16.6064H33.0947C35.917 16.6065 38.2051 18.8945 38.2051 21.7168V32.2627C38.2051 34.1956 36.638 35.7626 34.7051 35.7627H15.5C13.5673 35.7624 12 34.1955 12 32.2627V21.7168C12 18.8946 14.2883 16.6068 17.1104 16.6064H19.2305C19.3316 15.1507 20.542 14.0004 22.0234 14H28.1816ZM15.3086 34.2539L15.5 34.2627C15.3659 34.2627 15.2351 34.2478 15.1084 34.2227C15.1741 34.2357 15.2408 34.2474 15.3086 34.2539ZM25.5 20C21.9102 20.0001 19 22.9102 19 26.5C19 30.0898 21.9102 32.9999 25.5 33C29.0899 33 32 30.0899 32 26.5C32 22.9101 29.0899 20 25.5 20ZM16.9307 18.1104C16.8875 18.1125 16.8445 18.1165 16.8018 18.1201C16.9034 18.1115 17.0064 18.1065 17.1104 18.1064L16.9307 18.1104ZM19.5508 18.0996L19.418 18.1064L19.5518 18.0996C19.6148 18.0932 19.6763 18.0805 19.7363 18.0654C19.6761 18.0806 19.614 18.0932 19.5508 18.0996ZM29.5693 17.2637C29.6053 17.3589 29.6509 17.4492 29.707 17.5322L29.6426 17.4248C29.6145 17.3732 29.5905 17.3192 29.5693 17.2637ZM29.4844 16.8037L29.4785 16.6787C29.4783 16.6764 29.4778 16.6742 29.4775 16.6719C29.4819 16.7151 29.4844 16.7593 29.4844 16.8037ZM29.5127 17.0742C29.5246 17.1305 29.5416 17.1849 29.5605 17.2383C29.5415 17.185 29.5247 17.1305 29.5127 17.0742Z" fill="black"/>
</svg>
