<svg width="30" height="24" viewBox="0 0 30 24" fill="none" xmlns="http://www.w3.org/2000/svg">
<path d="M11.4092 0.822292C14.0535 -1.09586 17.7576 0.792897 17.7578 4.0596V19.9405L17.7471 20.2422C17.5343 23.2218 14.197 24.9241 11.6602 23.3467L11.4092 23.1778L6.10645 19.3311C5.53261 18.9148 4.85697 18.6654 4.1543 18.6074L3.85156 18.5948C1.78877 18.5867 0.108001 16.964 0.00488281 14.9268L0 14.7285V9.58108C0 7.63793 1.3942 5.98573 3.28906 5.64456L3.47461 5.61526L4.09375 5.53323C4.67002 5.45683 5.22175 5.2557 5.71094 4.94534L5.91699 4.80569L11.4092 0.822292ZM14.7578 4.0596C14.7576 3.2941 13.9442 2.8317 13.2979 3.1719L13.1709 3.25003L7.67871 7.2344C6.8553 7.83167 5.91271 8.24108 4.91797 8.43655L4.48828 8.50784L3.86816 8.58987C3.37125 8.65597 3 9.07974 3 9.58108V14.7285C3.00022 15.2055 3.38628 15.5929 3.86328 15.5948L4.13184 15.6006C5.47594 15.6585 6.77595 16.1101 7.86816 16.9024L13.1709 20.7491C13.8319 21.2284 14.7574 20.7568 14.7578 19.9405V4.0596ZM24.875 4.24514C25.2853 3.74492 26.0033 3.64535 26.5312 3.99514L26.6348 4.07132L26.9062 4.30471C28.2894 5.55197 30.0098 7.99303 30.0098 12C30.0096 16.2454 28.0168 18.9209 26.5791 19.9707C26.0216 20.3774 25.239 20.2557 24.832 19.6983C24.4253 19.141 24.5477 18.3594 25.1045 17.9522C25.9009 17.3707 27.5096 15.4433 27.5098 12C27.5098 8.79781 26.1633 7.0001 25.2295 6.16018L25.0488 6.00491L24.9541 5.91897C24.5075 5.46991 24.465 4.74557 24.875 4.24514ZM22.0254 6.5596C22.4166 6.04402 23.1311 5.91705 23.6719 6.2471L23.7773 6.31936L23.9873 6.48733C25.0578 7.38108 26.3934 9.13479 26.3936 12C26.3934 15.0302 24.8544 16.9563 23.7217 17.7217C23.1498 18.1078 22.3718 17.9575 21.9854 17.3858C21.599 16.8139 21.7497 16.0361 22.3213 15.6494C22.8133 15.317 23.8934 14.1444 23.8936 12C23.8934 10.1467 23.1142 9.06675 22.5107 8.51565L22.2656 8.31155L22.168 8.22854C21.7048 7.79661 21.6345 7.07508 22.0254 6.5596ZM19.5967 9.41311C19.9639 8.88018 20.6712 8.72042 21.2266 9.02542L21.335 9.0928L21.5742 9.27444C22.15 9.75556 22.8134 10.6357 22.8135 12.001C22.8133 13.4415 22.0548 14.4071 21.4072 14.8614L21.2793 14.9453C20.6911 15.306 19.9216 15.1221 19.5605 14.5342C19.1995 13.9459 19.3844 13.1756 19.9727 12.8145L20.0371 12.7588C20.0754 12.7202 20.1193 12.667 20.1602 12.5996C20.2385 12.4704 20.3134 12.2774 20.3135 12.001C20.3135 11.7201 20.2403 11.539 20.168 11.4199C20.109 11.323 20.0381 11.2486 19.9756 11.1963L19.917 11.1514L19.8154 11.0733C19.3328 10.663 19.2298 9.946 19.5967 9.41311Z" fill="white"/>
</svg>
