<svg width="30" height="26" viewBox="0 0 30 26" fill="none" xmlns="http://www.w3.org/2000/svg">
<path d="M11.9883 1.71666C14.6392 -0.140024 18.283 1.75662 18.2832 4.99303V21.0067L18.2725 21.3065C18.0632 24.2604 14.7786 25.9698 12.2393 24.4462L11.9883 24.2831L6.27441 20.2811C5.68977 19.8716 5.00614 19.627 4.29785 19.5702L3.99219 19.5575C1.85798 19.5493 0.111938 17.8704 0.00488281 15.7626L0 15.5575V10.6307C0.000180929 8.68092 1.4038 7.02507 3.30664 6.69127L3.49219 6.66295L4.26953 6.56432C4.83196 6.4923 5.37178 6.3013 5.85352 6.00572L6.05664 5.87193L11.9883 1.71666ZM15.2832 4.99303C15.283 4.23441 14.4821 3.77053 13.8359 4.0985L13.71 4.17467L7.77734 8.32994C6.9645 8.89924 6.0411 9.2877 5.06934 9.47252L4.65039 9.5399L3.87305 9.63951C3.37406 9.7034 3.00019 10.1277 3 10.6307V15.5575C3.00016 16.1008 3.44577 16.5554 4.00391 16.5575L4.27051 16.5633C5.60328 16.6191 6.89807 17.0549 7.99609 17.8241L13.71 21.826L13.8359 21.9022C14.4822 22.2301 15.2832 21.7655 15.2832 21.0067V4.99303ZM27.8574 8.97935C28.3468 8.4932 29.1396 8.49321 29.6289 8.97935C30.1183 9.46594 30.1183 10.2555 29.6289 10.7421L27.2266 13.1297L29.6328 15.5223C30.1222 16.0088 30.122 16.7974 29.6328 17.284C29.1434 17.7706 28.3498 17.7706 27.8604 17.284L25.4541 14.8915L23.0518 17.2811C22.5623 17.7676 21.7687 17.7676 21.2793 17.2811C20.7899 16.7945 20.7899 16.005 21.2793 15.5184L23.6816 13.1297L21.2832 10.745C20.7938 10.2584 20.7938 9.46984 21.2832 8.98326C21.7726 8.49678 22.5663 8.49671 23.0557 8.98326L25.4541 11.368L27.8574 8.97935Z" fill="white"/>
</svg>
