<svg width="100" height="100" viewBox="0 0 100 100" fill="none" xmlns="http://www.w3.org/2000/svg">
<path d="M49.4482 1.09802H49.4678C49.5394 1.09664 57.9756 0.778166 67.0957 4.77869C76.1879 8.76702 85.9772 17.0517 88.8213 34.3265C89.8956 40.8567 89.6953 47.8039 88.2197 54.976L80.0195 94.7933V94.7943C79.811 95.8136 79.134 96.6309 78.1885 97.0228L77.998 97.0951C77.665 97.2076 77.3268 97.2631 76.9961 97.2631C76.3656 97.263 75.7459 97.0651 75.2148 96.6801L74.9932 96.5033L66.7051 89.2855L65.877 88.5638V97.7054C65.8767 98.372 65.3403 98.9083 64.6816 98.9086C64.0242 98.9086 63.4856 98.3718 63.4854 97.7054V88.0756L62.7061 88.6019C62.484 88.7519 62.262 88.9017 62.0391 89.0511L62.0381 89.0521L60.459 90.1166L60.458 90.1176C59.807 90.5606 59.1723 91.034 58.5508 91.4955C55.8215 93.5222 53.1411 95.497 49.3848 95.5004L49.3584 95.4994C49.3495 95.4994 49.3409 95.5 49.333 95.5004C45.576 95.4963 42.8966 93.5226 40.1699 91.4965L40.1689 91.4955C39.5461 91.0339 38.9114 90.5602 38.2588 90.1156L38.2568 90.1146L36.6309 89.0179L36.6299 89.017L36.1338 88.682L35.3564 88.1635V97.7054C35.3562 98.3721 34.819 98.9086 34.1602 98.9086C33.5029 98.9083 32.9651 98.3716 32.9648 97.7054V88.4838L32.1367 89.2054L23.7568 96.5033C22.9222 97.2319 21.8047 97.4505 20.7549 97.0951H20.7559C19.7099 96.7385 18.9528 95.8809 18.7305 94.7924V94.7914L10.5303 54.975C9.05453 47.8036 8.8544 40.8566 9.92871 34.3265C12.7729 17.0561 22.5633 8.77049 31.6768 4.78064C40.8179 0.778761 49.2953 1.09498 49.4482 1.09802ZM34.4648 33.1049C34.1973 33.1284 33.8314 33.2024 33.6279 33.5394C33.5346 33.694 33.5052 33.8579 33.499 33.9965C33.4929 34.1339 33.5078 34.2786 33.5283 34.4183C33.9828 37.5142 32.3319 39.8772 30.7539 41.8177C29.9935 42.7528 29.1997 43.6452 28.792 44.4213C28.5828 44.8195 28.4368 45.254 28.4824 45.7006C28.5303 46.1691 28.7792 46.5651 29.1885 46.891L29.209 46.9066L29.2295 46.9213C29.5711 47.1405 30.1027 47.6037 30.4824 48.0668C30.6739 48.3004 30.7992 48.5011 30.8535 48.6449C30.8541 48.6463 30.854 48.6484 30.8545 48.6498C30.7656 48.6665 30.6382 48.6773 30.4727 48.6703C30.1249 48.6554 29.6626 48.5702 29.1533 48.39C28.1346 48.0295 26.9839 47.3111 26.1963 46.1185C25.9058 45.6785 25.8002 45.0133 25.8232 44.1263C25.8461 43.2463 25.9882 42.2661 26.1045 41.226C26.2182 40.2092 26.3049 39.1451 26.1875 38.1849C26.0693 37.2182 25.7368 36.2991 24.9609 35.6371L24.3906 35.1498L24.1602 35.8636C23.1775 38.9188 21.7148 44.6812 21.7148 51.8988C21.7149 62.0041 22.3383 73.648 30.2021 81.1488C30.7478 81.6692 31.3207 82.1645 31.9023 82.6459L31.9053 82.6488C31.9372 82.6748 31.9676 82.701 32.002 82.7299C32.0354 82.7581 32.073 82.7887 32.1123 82.8207C32.6542 83.2615 33.2101 83.6862 33.7695 84.101H33.7705C33.9709 84.2491 34.1827 84.4015 34.3916 84.5521V84.5531C34.5173 84.6446 34.6681 84.7491 34.7842 84.8324L34.8027 84.8461L34.8232 84.8578C34.844 84.87 34.8623 84.8796 34.876 84.8861C34.8788 84.8875 34.8821 84.8888 34.8848 84.89C35.927 85.6279 36.9869 86.3383 38.0381 87.0463V87.0472L39.6318 88.1234C39.9665 88.3515 40.2974 88.5875 40.6279 88.8275L41.6211 89.559C43.9642 91.3005 46.3405 93.0848 49.3564 93.0922H49.3594C52.3769 93.0847 54.7526 91.3 57.0957 89.5599C57.7627 89.0659 58.4168 88.5796 59.0879 88.1234L60.5859 87.1107C61.7935 86.2962 63.0199 85.462 64.2236 84.5951L64.2256 84.5941C64.4439 84.4353 64.6637 84.2755 64.875 84.1185C65.4317 83.7067 65.9838 83.2861 66.5244 82.85C66.572 82.8116 66.6169 82.7744 66.6572 82.7406C66.6986 82.7059 66.7356 82.6743 66.7734 82.6439L66.7783 82.64C67.362 82.1581 67.9388 81.6639 68.4912 81.142C69.2094 80.4677 69.8446 79.7381 70.4375 78.9974H70.4385C76.1977 71.7857 76.9615 61.3773 77.0039 56.972V56.9711C77.0118 56.0603 76.6912 55.1825 76.0986 54.4984L76.0977 54.4974L75.2139 53.4955C73.1515 51.1902 71.093 49.1035 69.0537 47.2103H69.0527C69.0274 47.1854 69.0019 47.1611 68.9824 47.1429L68.9814 47.142L68.3008 46.5199C61.2723 40.1986 54.5336 37.1071 48.9131 35.4984C43.1588 33.8516 38.4779 33.7498 36.1279 33.3392H36.1289C35.6512 33.2544 35.2406 33.194 34.9277 33.1508L34.9229 33.1498L34.5674 33.1068L34.5166 33.1L34.4648 33.1049Z" fill="currentColor" stroke="currentColor"/>
</svg>
