<svg width="60" height="60" viewBox="0 0 60 60" fill="none" xmlns="http://www.w3.org/2000/svg">
<g clip-path="url(#clip0_184_13202)">
<path d="M30.0312 0.742554L30.0508 0.74353L30.0703 0.742554C30.0895 0.742185 35.1578 0.550298 40.6289 2.93884C45.8754 5.22934 51.5213 9.8979 53.4199 19.5629L53.5918 20.514C54.2376 24.4208 54.1191 28.5891 53.2266 32.9066L48.1807 57.2933L48.1797 57.2953C48.0927 57.7184 47.8029 58.0471 47.3916 58.1869C47.2566 58.2321 47.1241 58.2533 46.998 58.2533C46.7219 58.2533 46.4467 58.1553 46.2168 57.9564L41.1172 53.5365L39.4629 52.1019V59.2181C39.4627 59.2424 39.4429 59.2611 39.4189 59.2611C39.4117 59.2611 39.4071 59.2597 39.4033 59.2582C39.3988 59.2563 39.3934 59.2531 39.3887 59.2484C39.3839 59.2437 39.3808 59.2383 39.3789 59.2338C39.3773 59.23 39.376 59.2254 39.376 59.2181V52.0189L37.8184 53.0668C37.6818 53.1585 37.5462 53.2495 37.4102 53.3402L37.4072 53.3412L36.4355 53.9935L36.4326 53.9955C36.0177 54.2765 35.6146 54.5766 35.2354 54.8568C33.535 56.1135 32.0585 57.1719 30.0039 57.1732H29.9717C27.9189 57.1699 26.4435 56.1122 24.7461 54.8568L24.7451 54.8558C24.3656 54.576 23.9631 54.2771 23.5479 53.9955L23.5439 53.9926L22.543 53.3207L22.54 53.3187L22.2334 53.1127L20.6807 52.0824V59.2181C20.6805 59.2422 20.6615 59.2609 20.6377 59.2611C20.6301 59.2611 20.6249 59.2598 20.6211 59.2582C20.6166 59.2563 20.6112 59.2532 20.6064 59.2484C20.6018 59.2437 20.5986 59.2382 20.5967 59.2338C20.5951 59.23 20.5938 59.2253 20.5938 59.2181V52.0521L18.9385 53.4867L13.7822 57.9574H13.7812C13.455 58.2409 13.0249 58.3265 12.6094 58.1869H12.6104C12.1982 58.047 11.9073 57.7179 11.8203 57.2943L11.8193 57.2924L6.77344 32.9066C5.93654 28.8591 5.78097 24.9424 6.29688 21.2494L6.4082 20.514C8.11409 10.2045 13.9561 5.30617 19.3848 2.9408C24.8635 0.553594 29.9524 0.740825 30.0312 0.742554ZM29.8213 57.1879C29.8154 57.1889 29.8102 57.1892 29.8066 57.1898C29.8111 57.189 29.8188 57.1874 29.8281 57.1859C29.8344 57.1849 29.8428 57.1833 29.8525 57.182C29.8399 57.1837 29.8292 57.1865 29.8213 57.1879ZM30.1221 57.182C30.128 57.1828 30.1334 57.1834 30.1377 57.184C30.1365 57.1838 30.1351 57.1841 30.1338 57.184C30.1288 57.1833 30.1223 57.1819 30.1152 57.181C30.1177 57.1813 30.1199 57.1817 30.1221 57.182ZM29.8672 57.1801C29.8723 57.1795 29.8781 57.1796 29.8838 57.1791C29.8866 57.1788 29.8895 57.1784 29.8926 57.1781C29.8835 57.179 29.8749 57.1791 29.8672 57.1801ZM30.0732 57.1771C30.0772 57.1774 30.0813 57.1778 30.085 57.1781C30.069 57.1766 30.0506 57.176 30.0303 57.1752C30.0462 57.1757 30.0606 57.1762 30.0732 57.1771ZM20.2627 16.6986C20.0199 16.8753 19.8324 17.0852 19.71 17.3285C19.5853 17.5761 19.5648 17.7909 19.5576 17.8627V17.8636C19.4969 18.4742 19.7412 19.0772 19.9932 19.5443C20.2637 20.0459 20.6405 20.5648 21.0498 21.057C21.8697 22.0429 22.9096 23.0266 23.7676 23.7064L23.7686 23.7074C23.7829 23.7188 23.7875 23.738 23.7822 23.7533L23.7812 23.7562C23.7756 23.7725 23.7598 23.7845 23.7412 23.7845C19.7667 23.7845 16.9108 21.9358 15.4238 20.6732L14.2842 19.7064L13.8252 21.1283C13.205 23.0475 12.2862 26.6504 12.2861 31.1625C12.2861 37.3161 12.6426 44.7562 17.7256 49.5814C18.0771 49.9151 18.4425 50.2299 18.8076 50.5306L18.8135 50.5355C18.8282 50.5475 18.8432 50.56 18.8652 50.5785L18.9424 50.642C19.2865 50.9206 19.6375 51.1874 19.9863 51.4447H19.9873L20.3779 51.7279C20.4515 51.7811 20.5686 51.8627 20.6191 51.8988L20.6562 51.9252L20.6953 51.9486C20.7056 51.9547 20.7162 51.9591 20.7256 51.9642C21.3621 52.4117 22.0071 52.8437 22.6387 53.267L23.6182 53.9252C24.0163 54.1953 24.4086 54.4844 24.8174 54.7865C26.1321 55.7591 27.6606 56.9245 29.5947 57.0707L29.9873 57.0863H29.9922C32.1141 57.0811 33.7591 55.8247 35.1611 54.7885C35.5755 54.4831 35.9651 54.1933 36.3643 53.9232L37.2852 53.3051L37.2842 53.3041C38.0275 52.8051 38.7902 52.2908 39.54 51.7533L39.5439 51.7504C39.6757 51.655 39.8154 51.5534 39.9492 51.4545C40.2972 51.1982 40.6448 50.9348 40.9863 50.6605C41.0214 50.6324 41.0542 50.6053 41.0781 50.5853C41.1041 50.5637 41.1217 50.5491 41.1387 50.5355L41.1484 50.5277C41.512 50.2289 41.8801 49.9163 42.2354 49.5824C42.7103 49.1387 43.1245 48.6638 43.501 48.1957V48.1947C47.2031 43.5808 47.6681 36.9934 47.6943 34.2767V34.2758C47.7007 33.5494 47.4437 32.8471 46.9668 32.2992L46.9648 32.2972L46.415 31.6761C45.3149 30.4523 44.2158 29.3273 43.124 28.2914L42.5791 27.7816C42.5609 27.7641 42.545 27.7488 42.5361 27.7406L42.5342 27.7386C33.4914 19.3966 25.14 17.2146 21.9678 16.6625H21.9688C21.6636 16.6086 21.4014 16.5706 21.2031 16.5433L21.1943 16.5414L20.9697 16.514L20.5801 16.4681L20.2627 16.6986Z" stroke="currentColor" stroke-width="2"/>
</g>
<defs>
<clipPath id="clip0_184_13202">
<rect width="60" height="60" fill="white"/>
</clipPath>
</defs>
</svg>
