<svg width="430.000000" height="932.000000" viewBox="0 0 430 932" fill="none" xmlns="http://www.w3.org/2000/svg" xmlns:xlink="http://www.w3.org/1999/xlink">
	<desc>
			Created with Pixso.
	</desc>
	<defs>
		<clipPath id="clip184_8533">
			<rect id="WEB" rx="0.000000" width="429.000000" height="931.000000" transform="translate(0.500000 0.500000)" fill="white" fill-opacity="0"/>
		</clipPath>
	</defs>
	<rect id="WEB" rx="0.000000" width="429.000000" height="931.000000" transform="translate(0.500000 0.500000)" fill="#ECECEC" fill-opacity="1.000000"/>
	<g clip-path="url(#clip184_8533)">
		<rect id="Button_Black" rx="0.000000" width="319.000000" height="49.000000" transform="translate(55.500000 441.500000)" fill="#FFFFFF" fill-opacity="0"/>
		<rect id="Rectangle 44" x="55.000000" y="441.000000" width="320.000000" height="50.000000" fill="#000000" fill-opacity="1.000000"/>
		<rect id="Rectangle 44" x="55.750000" y="441.750000" width="318.500000" height="48.500000" stroke="#000000" stroke-opacity="1.000000" stroke-width="1.500000"/>
		<path id="Try On in 3D" d="M201.21 472.31Q202.18 472.67 203.28 472.67Q204.31 472.67 205.23 472.35Q205.42 472.28 205.6 472.2Q206.23 471.93 206.76 471.53Q207.15 471.25 207.49 470.9Q207.74 470.64 207.95 470.36Q208.44 469.72 208.76 468.96Q208.84 468.76 208.91 468.55Q209.22 467.63 209.22 466.6Q209.22 465.42 208.83 464.4Q208.79 464.31 208.76 464.22Q208.45 463.48 207.98 462.86Q207.75 462.56 207.48 462.28Q207.1 461.89 206.65 461.58Q206.16 461.23 205.59 460.99Q205.5 460.95 205.41 460.92Q204.4 460.53 203.25 460.53Q202.09 460.53 201.09 460.92Q201 460.95 200.91 460.99Q200.31 461.24 199.79 461.62Q199.38 461.91 199.02 462.28Q198.76 462.55 198.54 462.85Q198.07 463.47 197.77 464.21L197.76 464.21Q197.32 465.31 197.32 466.58Q197.32 467.66 197.65 468.63Q197.7 468.79 197.77 468.94Q198.05 469.64 198.48 470.23Q198.73 470.58 199.03 470.89Q199.39 471.26 199.81 471.56Q200.33 471.94 200.94 472.2Q201.07 472.26 201.21 472.31ZM169.25 460.7L169.25 462.16L173.26 462.16L173.26 472.5L174.86 472.5L174.86 462.16L178.85 462.16L178.85 460.7L169.25 460.7ZM240.6 460.7L240.6 462.12L245.47 462.12L242.42 465.59L242.42 466.56Q242.71 466.48 243.01 466.44Q243.32 466.39 243.62 466.39Q244.44 466.39 245.03 466.68Q245.42 466.87 245.69 467.16Q245.84 467.32 245.96 467.51Q245.97 467.53 245.99 467.55Q246.29 468.07 246.29 468.77Q246.29 469.4 246.04 469.89Q246 469.96 245.96 470.03Q245.8 470.29 245.59 470.49Q245.36 470.71 245.06 470.87Q244.49 471.17 243.71 471.17Q242.97 471.17 242.36 470.9Q242.28 470.86 242.2 470.82Q241.68 470.56 241.33 470.15Q241.22 470.02 241.12 469.88L240.04 470.96Q240.41 471.44 240.88 471.79Q241.23 472.05 241.63 472.23Q242.57 472.67 243.73 472.67Q244.97 472.67 245.9 472.18Q246.51 471.86 246.95 471.39Q247.18 471.14 247.37 470.84Q247.46 470.7 247.53 470.55Q247.91 469.8 247.91 468.86Q247.91 467.83 247.47 467.04Q247.46 467.02 247.45 467Q247.15 466.46 246.71 466.09Q246.5 465.91 246.25 465.76Q246.1 465.68 245.94 465.61Q245.31 465.32 244.54 465.32L244.54 465.32L247.77 461.65L247.77 460.7L240.6 460.7ZM250.07 460.7L250.07 472.5L254.47 472.5Q255.74 472.5 256.84 472.06Q257.72 471.7 258.4 471.12Q258.57 470.97 258.73 470.81Q258.97 470.58 259.18 470.32Q259.67 469.69 259.98 468.93Q260.01 468.88 260.03 468.82Q260.43 467.79 260.43 466.6Q260.43 465.32 259.98 464.25Q259.7 463.56 259.26 462.99Q259.02 462.67 258.72 462.38Q258.52 462.17 258.29 461.99Q257.64 461.47 256.82 461.14Q255.73 460.7 254.44 460.7L250.07 460.7ZM251.66 462.16L251.66 471.03L254.4 471.03Q255.71 471.03 256.69 470.47L256.7 470.47Q257.19 470.18 257.57 469.79Q257.96 469.39 258.24 468.89L258.24 468.89Q258.79 467.89 258.79 466.58Q258.79 465.35 258.28 464.38Q258.25 464.33 258.23 464.29Q257.92 463.74 257.49 463.33Q257.13 462.98 256.68 462.72Q256.66 462.71 256.64 462.7Q255.67 462.16 254.4 462.16L251.66 462.16ZM224.28 462.69Q224.49 462.8 224.77 462.8Q225.04 462.8 225.25 462.69Q225.37 462.63 225.46 462.53Q225.57 462.42 225.63 462.3Q225.74 462.09 225.74 461.82Q225.74 461.58 225.64 461.38Q225.58 461.25 225.46 461.13Q225.36 461.03 225.24 460.96Q225.04 460.85 224.77 460.85Q224.5 460.85 224.29 460.96Q224.17 461.03 224.07 461.13Q223.96 461.24 223.9 461.37Q223.8 461.57 223.8 461.82Q223.8 462.09 223.91 462.31Q223.97 462.43 224.07 462.53Q224.17 462.62 224.28 462.69ZM205.3 470.65Q204.41 471.13 203.25 471.13Q202.34 471.13 201.57 470.81Q201.54 470.8 201.52 470.79Q200.96 470.55 200.52 470.18Q200.33 470.03 200.16 469.85Q199.59 469.25 199.28 468.41Q198.97 467.56 198.97 466.58Q198.97 465.25 199.52 464.24Q199.87 463.59 200.38 463.12Q200.67 462.85 201.03 462.64Q201.15 462.56 201.28 462.5Q202.15 462.06 203.25 462.06Q204.2 462.06 204.98 462.39Q205.42 462.58 205.8 462.85Q206.09 463.07 206.34 463.34Q206.44 463.44 206.54 463.56Q206.98 464.09 207.24 464.77Q207.56 465.59 207.56 466.58Q207.56 467.87 207.03 468.88Q207.02 468.91 207 468.93Q206.64 469.6 206.12 470.08Q205.82 470.34 205.48 470.55Q205.39 470.6 205.3 470.65ZM180.21 467.89L180.21 472.5L178.68 472.5L178.68 464.42L180.21 464.42L180.21 465.36Q180.28 465.26 180.35 465.17Q180.58 464.87 180.88 464.67Q181.5 464.25 182.41 464.25Q183.02 464.25 183.51 464.46Q184 464.68 184.43 465.17L183.43 466.2Q183.17 465.93 182.87 465.82Q182.56 465.7 182.15 465.7Q181.58 465.7 181.15 465.94Q180.94 466.06 180.76 466.24Q180.21 466.78 180.21 467.89ZM216.85 467.78L216.85 472.5L218.38 472.5L218.38 467.48Q218.38 467.1 218.29 466.74Q218.19 466.31 217.97 465.91Q217.77 465.54 217.49 465.24Q217.21 464.94 216.86 464.71Q216.7 464.6 216.52 464.52Q215.94 464.25 215.23 464.25Q214.49 464.25 213.86 464.53Q213.72 464.59 213.58 464.67Q213.17 464.91 212.85 465.24Q212.75 465.35 212.67 465.46L212.67 464.42L211.14 464.42L211.14 472.5L212.67 472.5L212.67 467.78Q212.67 467.23 212.89 466.79Q212.91 466.74 212.94 466.7Q213.08 466.45 213.29 466.25Q213.46 466.08 213.68 465.95Q213.73 465.93 213.78 465.9Q214.22 465.68 214.77 465.68Q215.39 465.68 215.85 465.94Q216.08 466.08 216.27 466.27Q216.46 466.47 216.59 466.7Q216.85 467.17 216.85 467.78ZM233.51 467.78L233.51 472.5L235.04 472.5L235.04 467.48Q235.04 467.1 234.95 466.74Q234.85 466.31 234.63 465.91Q234.43 465.54 234.15 465.24Q233.87 464.94 233.52 464.71Q233.36 464.6 233.18 464.52Q232.6 464.25 231.89 464.25Q231.15 464.25 230.52 464.53Q230.38 464.59 230.24 464.67Q229.83 464.91 229.51 465.24Q229.41 465.35 229.33 465.46L229.33 464.42L227.8 464.42L227.8 472.5L229.33 472.5L229.33 467.78Q229.33 467.23 229.55 466.79Q229.57 466.74 229.6 466.7Q229.74 466.45 229.95 466.25Q230.12 466.08 230.34 465.95Q230.39 465.93 230.44 465.9Q230.88 465.68 231.43 465.68Q232.05 465.68 232.51 465.94Q232.74 466.08 232.93 466.27Q233.12 466.47 233.25 466.7Q233.51 467.17 233.51 467.78ZM188.93 472.56L187.41 475.88L185.7 475.88L187.69 471.81L184.52 464.42L186.21 464.42L188.55 470.14L191.01 464.42L192.71 464.42L188.93 472.56ZM224 464.42L224 472.5L225.54 472.5L225.54 464.42L224 464.42Z" fill="#FFFFFF" fill-opacity="1.000000" fill-rule="evenodd"/>
		<path id="PANDOMOTO WEB" d="M207.25 128.65Q209.07 129.33 211.14 129.33Q213.43 129.33 215.38 128.5Q215.4 128.5 215.41 128.49Q216.61 127.98 217.63 127.22Q218.28 126.74 218.86 126.16Q219.4 125.63 219.85 125.03Q220.65 123.96 221.19 122.7Q221.29 122.45 221.38 122.19Q222.03 120.43 222.03 118.43Q222.03 116.49 221.41 114.76Q221.31 114.46 221.19 114.18Q220.62 112.84 219.76 111.73Q219.35 111.2 218.86 110.71Q218.31 110.16 217.69 109.7Q216.64 108.92 215.4 108.4Q213.42 107.57 211.08 107.57Q208.9 107.57 207.02 108.31Q206.9 108.35 206.79 108.4Q205.54 108.92 204.49 109.7Q203.87 110.16 203.32 110.71Q202.79 111.24 202.35 111.84Q201.55 112.9 201.01 114.16Q200.94 114.33 200.88 114.5Q200.19 116.32 200.19 118.4Q200.19 120.24 200.73 121.89Q200.87 122.29 201.03 122.68Q201.63 124.1 202.55 125.26Q202.92 125.73 203.35 126.16Q203.81 126.62 204.32 127.02Q205.45 127.91 206.83 128.49Q207.04 128.58 207.25 128.65ZM256.75 128.65Q258.57 129.33 260.64 129.33Q262.93 129.33 264.88 128.5Q264.9 128.5 264.91 128.49Q266.11 127.98 267.13 127.22Q267.78 126.74 268.36 126.16Q268.9 125.63 269.35 125.03Q270.15 123.96 270.69 122.7Q270.79 122.45 270.88 122.19Q271.53 120.43 271.53 118.43Q271.53 116.49 270.91 114.76Q270.81 114.46 270.69 114.18Q270.12 112.84 269.26 111.73Q268.85 111.2 268.36 110.71Q267.81 110.16 267.19 109.7Q266.14 108.92 264.9 108.4Q262.92 107.57 260.58 107.57Q258.4 107.57 256.51 108.31Q256.4 108.35 256.29 108.4Q255.04 108.92 253.99 109.7Q253.37 110.16 252.82 110.71Q252.29 111.24 251.85 111.84Q251.05 112.9 250.51 114.16Q250.44 114.33 250.38 114.5Q249.69 116.32 249.69 118.4Q249.69 120.24 250.23 121.89Q250.37 122.29 250.53 122.68Q251.13 124.1 252.05 125.26Q252.42 125.73 252.85 126.16Q253.31 126.62 253.82 127.02Q254.95 127.91 256.33 128.49Q256.54 128.58 256.75 128.65ZM297.16 128.65Q298.98 129.33 301.05 129.33Q303.34 129.33 305.29 128.5Q305.31 128.5 305.32 128.49Q306.52 127.98 307.54 127.22Q308.19 126.74 308.77 126.16Q309.31 125.63 309.76 125.03Q310.56 123.96 311.1 122.7Q311.2 122.45 311.29 122.19Q311.94 120.43 311.94 118.43Q311.94 116.49 311.32 114.76Q311.22 114.46 311.1 114.18Q310.53 112.84 309.67 111.73Q309.26 111.2 308.77 110.71Q308.22 110.16 307.6 109.7Q306.55 108.92 305.31 108.4Q303.33 107.57 300.99 107.57Q298.81 107.57 296.93 108.31Q296.81 108.35 296.7 108.4Q295.45 108.92 294.4 109.7Q293.78 110.16 293.23 110.71Q292.7 111.24 292.26 111.84Q291.46 112.9 290.92 114.16Q290.85 114.33 290.79 114.5Q290.1 116.32 290.1 118.4Q290.1 120.24 290.64 121.89Q290.78 122.29 290.94 122.68Q291.54 124.1 292.46 125.26Q292.83 125.73 293.26 126.16Q293.72 126.62 294.23 127.02Q295.36 127.91 296.74 128.49Q296.95 128.58 297.16 128.65ZM119.13 107.91L119.13 129L123.21 129L123.21 121.17L127.44 121.17Q129.44 121.17 131.04 120.37L131.05 120.36Q132 119.88 132.71 119.17Q133.2 118.67 133.59 118.06Q133.63 118 133.66 117.94Q134.52 116.49 134.52 114.54Q134.52 112.55 133.64 111.09Q133.61 111.05 133.59 111.01Q133.2 110.39 132.69 109.88Q131.98 109.19 131.05 108.72Q131.03 108.71 131 108.69Q129.41 107.91 127.44 107.91L119.13 107.91ZM123.21 111.23L123.21 117.83L127.02 117.83Q127.93 117.83 128.68 117.48Q128.72 117.46 128.75 117.45Q129.2 117.23 129.53 116.9Q129.79 116.65 129.99 116.32Q130.44 115.58 130.44 114.54Q130.44 113.51 129.99 112.77Q129.77 112.4 129.47 112.12Q129.16 111.83 128.75 111.63Q128.7 111.6 128.64 111.57Q127.91 111.23 127.02 111.23L123.21 111.23ZM142.77 107.91L134.28 129L138.54 129L140.05 125.06L148.72 125.06L150.21 129L154.56 129L146.1 107.91L142.77 107.91ZM147.43 121.64L144.42 113.66L141.36 121.64L147.43 121.64ZM157.05 107.91L157.05 129L161.13 129L161.13 115.39L171.63 129L174.57 129L174.57 107.91L170.46 107.91L170.46 121.58L159.9 107.91L157.05 107.91ZM178.86 107.91L178.86 129L187.14 129Q189.45 129 191.44 128.22Q193.09 127.57 194.37 126.5Q194.65 126.27 194.91 126.01Q195.42 125.52 195.86 124.95Q196.67 123.91 197.2 122.65L197.21 122.63Q198.03 120.7 198.03 118.43Q198.03 116.16 197.2 114.24Q196.72 113.1 196 112.14Q195.5 111.48 194.89 110.9Q194.5 110.52 194.07 110.19Q192.88 109.26 191.41 108.69Q189.42 107.91 187.08 107.91L178.86 107.91ZM182.94 111.53L182.94 125.36L187.02 125.36Q189.06 125.36 190.59 124.51Q191.28 124.13 191.83 123.59Q192.51 122.95 192.97 122.1Q193.83 120.54 193.83 118.4Q193.83 116.33 192.96 114.79Q192.49 113.96 191.83 113.33Q191.26 112.79 190.56 112.39Q190.55 112.39 190.54 112.38Q189.02 111.53 187.02 111.53L182.94 111.53ZM225.27 107.91L225.27 129L229.35 129L229.35 116.44L234.48 124.67L237.24 124.67L242.4 116.38L242.4 129L246.45 129L246.45 107.91L243.57 107.91L235.87 120.26L228.15 107.91L225.27 107.91ZM272.04 107.91L272.04 111.53L278.76 111.53L278.76 129L282.87 129L282.87 111.53L289.59 111.53L289.59 107.91L272.04 107.91ZM214.62 124.62Q213.12 125.52 211.08 125.52Q209.61 125.52 208.37 125.01Q207.41 124.62 206.67 123.98Q206.44 123.78 206.24 123.57Q205.35 122.64 204.85 121.32Q204.36 119.99 204.36 118.4Q204.36 116.3 205.21 114.71Q205.73 113.76 206.48 113.06Q206.98 112.6 207.58 112.25Q207.71 112.17 207.85 112.1Q209.27 111.36 211.08 111.36Q212.61 111.36 213.84 111.87Q214.59 112.18 215.21 112.65Q215.62 112.95 215.97 113.32Q216.14 113.5 216.3 113.7Q216.96 114.51 217.35 115.56Q217.83 116.84 217.83 118.4Q217.83 120.54 216.97 122.13Q216.45 123.09 215.69 123.81Q215.2 124.26 214.62 124.62ZM264.12 124.62Q262.62 125.52 260.58 125.52Q259.11 125.52 257.87 125.01Q256.91 124.62 256.17 123.98Q255.94 123.78 255.74 123.57Q254.85 122.64 254.35 121.32Q253.86 119.99 253.86 118.4Q253.86 116.3 254.71 114.71Q255.23 113.76 255.98 113.06Q256.48 112.6 257.08 112.25Q257.21 112.17 257.35 112.1Q258.77 111.36 260.58 111.36Q262.11 111.36 263.34 111.87Q264.09 112.18 264.71 112.65Q265.12 112.95 265.47 113.32Q265.64 113.5 265.8 113.7Q266.46 114.51 266.85 115.56Q267.33 116.84 267.33 118.4Q267.33 120.54 266.47 122.13Q265.95 123.09 265.19 123.81Q264.7 124.26 264.12 124.62ZM304.53 124.62Q303.03 125.52 300.99 125.52Q299.52 125.52 298.28 125.01Q297.32 124.62 296.58 123.98Q296.35 123.78 296.15 123.57Q295.26 122.64 294.76 121.32Q294.27 119.99 294.27 118.4Q294.27 116.3 295.12 114.71Q295.64 113.76 296.39 113.06Q296.89 112.6 297.49 112.25Q297.62 112.17 297.76 112.1Q299.18 111.36 300.99 111.36Q302.52 111.36 303.75 111.87Q304.5 112.18 305.12 112.65Q305.53 112.95 305.88 113.32Q306.05 113.5 306.21 113.7Q306.87 114.51 307.26 115.56Q307.74 116.84 307.74 118.4Q307.74 120.54 306.88 122.13Q306.36 123.09 305.6 123.81Q305.11 124.26 304.53 124.62ZM182.28 145.91L189.12 167L192.18 167L196.51 152.93L200.85 167L203.88 167L210.75 145.91L206.73 145.91L202.33 159.91L198.03 145.91L195 145.91L190.69 159.96L186.3 145.91L182.28 145.91ZM213.54 145.91L213.54 167L228.21 167L228.21 163.39L217.62 163.39L217.62 157.96L227.16 157.96L227.16 154.49L217.62 154.49L217.62 149.5L228.06 149.5L228.06 145.91L213.54 145.91ZM231.6 145.91L231.6 167L240.24 167Q242.49 167 244.07 166.18Q245.44 165.45 246.24 164.33Q246.36 164.16 246.46 163.99Q246.74 163.52 246.93 163.02Q247.29 162.05 247.29 160.94Q247.29 159.54 246.74 158.41Q246.46 157.81 246.02 157.29Q245.2 156.32 243.95 155.7Q244.83 155.2 245.41 154.5Q245.84 154 246.1 153.43Q246.51 152.51 246.51 151.39Q246.51 150.54 246.27 149.77Q246.09 149.2 245.79 148.68Q245.7 148.52 245.6 148.38Q244.89 147.34 243.64 146.67Q242.22 145.91 240.12 145.91L231.6 145.91ZM235.65 149.23L235.65 154.3L239.64 154.3Q240.87 154.3 241.62 153.71Q241.64 153.69 241.66 153.67Q241.82 153.55 241.94 153.4Q242.43 152.79 242.43 151.78Q242.43 150.72 241.91 150.1Q241.8 149.97 241.66 149.86Q241.64 149.85 241.62 149.83Q240.87 149.23 239.64 149.23L235.65 149.23ZM235.65 157.61L235.65 163.66L240.09 163.66Q241.24 163.66 242 163.11Q242.21 162.96 242.38 162.77Q242.79 162.33 242.99 161.81Q243.21 161.27 243.21 160.64Q243.21 159.92 242.95 159.32Q242.91 159.21 242.85 159.11Q242.73 158.87 242.56 158.67Q242.25 158.28 241.78 158.02Q241.08 157.61 240.09 157.61L235.65 157.61Z" fill="#000000" fill-opacity="1.000000" fill-rule="evenodd"/>
	</g>
</svg>
